<?xml version="1.0" encoding="UTF-8"?>
<svg width="874px" height="802px" viewBox="0 0 874 802" version="1.1" xmlns="http://www.w3.org/2000/svg" xmlns:xlink="http://www.w3.org/1999/xlink">
    <!-- Generator: Sketch 53.1 (72631) - https://sketchapp.com -->
    <title>Удобный заказ в приложении и быстрая подача Copy</title>
    <desc>Created with Sketch.</desc>
    <defs>
        <linearGradient x1="50.0016081%" y1="100.000291%" x2="50.0016081%" y2="-0.00295697249%" id="linearGradient-1">
            <stop stop-color="#808080" stop-opacity="0.25" offset="0%"></stop>
            <stop stop-color="#808080" stop-opacity="0.12" offset="54%"></stop>
            <stop stop-color="#808080" stop-opacity="0.1" offset="100%"></stop>
        </linearGradient>
    </defs>
    <g id="Page-1" stroke="none" stroke-width="1" fill="none" fill-rule="evenodd">
        <g id="Artboard" transform="translate(-1055.000000, -4998.000000)" fill-rule="nonzero">
            <g id="Удобный-заказ-в-приложении-и-быстрая-подача-Copy" transform="translate(1055.000000, 4998.000000)">
                <path d="M489.35,125.35 C441.47,123.69 395.87,108.24 352.35,91.35 C308.83,74.46 265.65,55.72 218.92,46.72 C188.86,40.96 154.49,40.14 130.27,56.25 C106.97,71.76 99.43,98.53 95.39,123.37 C92.39,142.06 90.55,161.73 98.9,179.22 C104.69,191.37 114.98,201.58 122.09,213.22 C146.85,253.7 129.35,303.62 102.52,343.15 C89.94,361.69 75.34,379.38 65.63,399.15 C55.92,418.92 51.42,441.5 59.92,461.64 C68.34,481.64 88.41,496.58 110.15,507.13 C154.31,528.54 206.34,534.67 257.08,538.13 C369.4,545.81 482.31,542.49 594.93,539.13 C636.6,537.89 678.46,536.64 719.46,530.2 C742.23,526.62 765.74,520.94 782.27,507.2 C803.27,489.79 808.45,460.32 794.39,438.49 C770.8,401.88 705.6,392.78 689.11,353.49 C680.04,331.86 689.36,307.77 702.54,287.72 C730.83,244.72 778.24,206.94 780.74,157.72 C782.46,123.95 759.66,90.12 724.42,74.13 C687.48,57.38 636.25,59.49 609,87.22 C580.94,115.84 531.62,126.82 489.35,125.35 Z" id="Path" fill="#FDE61D" opacity="0.24"></path>
                <ellipse id="Oval" fill="#FDE61D" opacity="0.24" cx="394.25" cy="760.32" rx="303.97" ry="41.12"></ellipse>
                <path d="M469.27,209.6 C469.27,209.6 459.86,191.03 461.13,185.51 C462.4,179.99 454.51,168.2 454.51,168.2 L455.02,148.64 C455.02,148.64 453.93,150.64 448.25,152.39 C447.77,151.76 447.25,151.14 446.71,150.55 C444.653145,148.407965 442.365938,146.499724 439.89,144.86 L429.89,123.28 L420.22,108.47 C420.22,108.47 404.97,77.47 389.22,70.63 L386.74,65.78 C386.909176,65.6800213 386.974219,65.4675485 386.89,65.29 L384.37,60.36 C384.27682,60.1834196 384.065329,60.1057288 383.88,60.18 L381.47,55.46 C380.54955,49.3432303 378.14633,43.5446052 374.47,38.57 C374.22,38.22 373.95,37.9 373.69,37.57 L377.61,37.43 C381.05,37.3 384.89,37 387.2,34.43 C388.027873,33.4721013 388.638529,32.3463106 388.99,31.13 C389.287263,30.1768102 389.481702,29.1945548 389.57,28.2 C389.57,28.05 389.57,27.9 389.57,27.76 C389.57,27.42 389.57,27.0866667 389.57,26.76 C389.57,26.49 389.57,26.23 389.57,25.96 C389.57,25.69 389.57,25.53 389.57,25.32 C389.57,25.11 389.46,24.63 389.4,24.32 C389.4,24.19 389.4,24.06 389.32,23.93 C389.236657,23.5382659 389.133187,23.1510861 389.01,22.77 C388.980747,22.6952613 388.957343,22.6183634 388.94,22.54 C388.8,22.14 388.65,21.74 388.48,21.35 C388.452501,21.2985879 388.429095,21.245089 388.41,21.19 C388.23,20.8 388.03,20.42 387.82,20.05 L387.76,19.93 L387.76,19.93 C387.686415,19.7747877 387.602909,19.6244765 387.51,19.48 C384.8,15.22 380.04,12.73 375.51,10.48 C371.282862,8.25750648 366.943748,6.2548385 362.51,4.48 C346.024419,-1.70241814 327.814483,-1.44533669 311.51,5.2 C309.899663,5.80976769 308.373946,6.6230352 306.97,7.62 C305.013058,9.2764789 303.340887,11.2425463 302.02,13.44 L294.27,24.89 C293.187039,26.2828503 292.33918,27.8434506 291.76,29.51 C290.31,34.95 294.86,40.4 294.35,46.01 C294.09,48.8 292.59,51.36 292.3,54.15 C291.93,57.75 293.6,61.22 295.23,64.47 L306.32,86.47 C305.73,89.36 305.08,92.32 304.37,95.18 L304.37,95.18 C299.26,100.46 297.54,103.34 297.07,104.9 L296.92,104.98 L296.92,104.98 C295.90794,105.63359 295.037404,106.483723 294.36,107.48 L283.82,117.72 C283.82,117.72 265.5,122.48 261.69,128.51 C261.69,128.51 232.94,127.25 233.19,167.4 C233.19,167.4 231.92,182.46 231.19,184.47 C230.46,186.48 231.19,206.8 231.19,206.8 L230.85,247.96 C230.85,247.96 229.75,269.79 230.85,277.57 C231.95,285.35 233.22,314.96 233.22,314.96 C233.22,314.96 240.09,343.82 237.55,354.11 C235.11,363.96 237.55,385.5 241.55,385.59 C242.31,387.16 243.18,387.93 244.13,387.49 C244.54351,387.310795 244.967643,387.157172 245.4,387.03 L245.4,411.62 C245.4,411.62 240.45,446.07 246,452.62 C242.32,457.86 238,466.8 236.9,469.15 L198,467.06 L193.05,468.45 L193.05,468.45 L188.51,469.72 L185.76,532.99 L186.86,533.07 L186.78,535 L189.38,535.19 L185.76,598.91 L239.61,603.34 C237.24,608.65 234.49,614.34 233.42,614.89 C231.42,615.89 227.06,612.89 226.04,614.13 C225.02,615.37 221.97,616.89 218.41,616.13 C214.85,615.37 212.56,619.39 212.56,619.39 C212.56,619.39 213.08,619.85 213.86,620.7 C208.08,620 200.77,623.1 196.8,625.1 C195.02,626 193.91,626.67 193.91,626.67 L183.41,626.67 L189.18,663.48 L193.25,666.26 L194.25,695.26 C194.25,695.26 210.53,745.45 217.99,745.12 C218.970154,745.085252 219.886543,744.625232 220.5,743.86 C224.5,739.24 221.73,723.37 221.73,723.37 L221.73,696.95 C221.73,696.95 227.83,694.27 227.15,692.26 C226.47,690.25 236.99,668.26 237.93,666.26 C237.98484,666.226143 238.015818,666.164186 238.01,666.1 C238.01,663.84 242.59,661.33 242.33,660.33 C242.07,659.33 253.53,653.05 254.33,647.53 C255.13,642.01 262.72,645.02 262.72,645.02 L272.38,633.92 C272.67,647.45 273.22,656.92 274.17,659.32 C278.75,670.87 280.53,688.94 280.53,688.94 C280.53,688.94 277.73,702.74 280.53,707.26 C282.25,710.02 286.25,712.98 289.03,715.43 C286.14,724.19 286.55,742.81 286.55,742.81 L286.55,753.51 L307.92,759.51 C307.92,759.51 308.59,754.16 309.61,754.16 C310.63,754.16 324.2,764.53 324.2,764.53 C324.2,764.53 376.44,765.2 389.66,764.53 C394.66,764.28 396.02,762.13 395.25,759.53 C393.98,755.2 386.85,749.59 380.51,749.16 C370.33,748.49 357.44,737.79 357.44,737.79 C357.44,737.79 358.44,735.44 353.03,732.1 C349.29,729.8 338.94,720.49 332.54,715.04 C332.84,714.63 333.15,714.22 333.44,713.78 C333.44,713.78 324.79,701.78 326.58,696.46 C328.37,691.14 325.81,683.46 325.81,683.46 C325.81,683.46 320.98,668.65 320.98,661.12 C320.98,656.35 320.26,629.22 319.74,609.98 L324.2,610.35 L324.29,608.43 L326.29,608.61 L345.2,610.35 L344.62,590.14 C353.73,586.14 361.31,582.43 364.45,580.06 C375.13,572.06 384.29,571.53 384.29,571.53 C384.29,571.53 405.91,559.99 409.22,555.22 C412.53,550.45 412.22,515.82 412.22,515.82 L410.44,441.6 L410.44,441.54 C410.44,441.54 408.92,405.66 405.86,397.88 C404.74,395 401.97,385.4 398.94,374.44 C400.681487,374.260638 402.43978,374.334743 404.16,374.66 C404.27,377.34 404.34,379.18 404.34,379.81 C404.34,384.07 410.44,387.69 410.44,387.69 L406.12,291.69 L406.12,226.38 C419.44,230.62 451.65,231.94 451.65,231.94 C474.86,230.72 469.27,209.6 469.27,209.6 Z M343.63,127.12 L343.56,127.12 C344.0329,124.603159 344.650592,122.115694 345.41,119.67 L343.63,127.12 Z M256.21,456.39 C264.1,457.69 273.21,457.31 273.9,455.78 C273.97,455.63 274.06,455.36 274.18,455.01 C274.43,455.45 274.67,455.9 274.92,456.36 L274.15,470.84 L274.15,471.17 L248.15,469.77 C249.97,462.02 253.41,458.24 256.21,456.39 Z M342.88,529.45 L342.21,506 C343.37,501.68 344.41,497.76 345.3,494.4 C345.7,497.19 346.04,499.76 346.3,502.13 C348.76,524.38 345.13,528.72 342.88,529.45 Z M416.88,177.87 C415.39,178.44 409.72,174.87 404.34,171.17 C404.34,170.49 404.39,169.82 404.42,169.17 C405.18,153.86 380.25,144.33 372.62,142.57 C370.768461,142.092124 368.972012,141.421807 367.26,140.57 C363.194861,138.556499 359.242347,136.323195 355.42,133.88 L355.52,133.59 C355.52,133.59 345.68,127.36 345.47,119.59 C347.712461,112.522686 350.542333,105.655397 353.93,99.06 C354.12,98.67 354.33,98.26 354.53,97.87 C359.180343,96.4236715 363.520907,94.1245287 367.33,91.09 C368.86,111.09 397.8,128.3 397.8,128.3 L400.89,133.3 L401.62,134.48 C400.06,135.4 399.31,136.14 399.84,136.57 C402.04,138.33 407.36,148.29 409.56,152.5 C410.16,153.64 410.56,154.35 410.56,154.35 C410.56,154.35 415.29,167.22 418,177.99 C417.639848,177.839626 417.243569,177.797912 416.86,177.87 L416.88,177.87 Z" id="Shape" fill="url(#linearGradient-1)"></path>
                <path d="M428.06,126 L427.72,126.45 L426.56,128 L404.31,143.72 L399.59,135.96 L396.59,130.96 C396.59,130.96 352.24,104.36 371.31,78.72 C390.38,53.08 418.56,111.22 418.56,111.22 L428.06,126 Z" id="Path" fill="#FFC5D3"></path>
                <rect id="Rectangle" fill="#3A3768" transform="translate(384.208364, 65.989326) rotate(-26.730000) translate(-384.208364, -65.989326) " x="383.828364" y="62.8593256" width="1" height="6.26" rx="0.38"></rect>
                <rect id="Rectangle" fill="#3A3768" transform="translate(358.378524, 71.152580) rotate(-26.730000) translate(-358.378524, -71.152580) " x="358.163524" y="70.1225804" width="1" height="2.06" rx="0.21"></rect>
                <rect id="Rectangle" fill="#3A3768" transform="translate(360.424374, 75.195502) rotate(-26.730000) translate(-360.424374, -75.195502) " x="360.184374" y="73.4005017" width="1" height="3.59" rx="0.24"></rect>
                <rect id="Rectangle" fill="#3A3768" transform="translate(362.601236, 79.536711) rotate(-26.730000) translate(-362.601236, -79.536711) " x="362.371236" y="77.7267113" width="1" height="3.62" rx="0.23"></rect>
                <rect id="Rectangle" fill="#1C1B19" transform="translate(377.817353, 81.473641) rotate(-26.730000) translate(-377.817353, -81.473641) " x="365.117353" y="55.6636415" width="25.4" height="51.62" rx="2.24"></rect>
                <path d="M373.16,56.39 C372.943646,56.4971407 372.779409,56.6867146 372.704192,56.9161284 C372.628974,57.1455422 372.649083,57.3955571 372.76,57.61 L372.84,57.78 C372.951326,57.9959284 372.971691,58.2474062 372.89656,58.478434 C372.821429,58.7094618 372.65704,58.9008572 372.44,59.01 L362.82,63.85 C362.605557,63.9609172 362.355542,63.9810259 362.126128,63.9058083 C361.896715,63.8305907 361.707141,63.6663544 361.6,63.45 L361.51,63.28 C361.402604,63.0638328 361.213725,62.8991894 360.984925,62.8222974 C360.756124,62.7454053 360.506148,62.7625648 360.29,62.87 L358.42,63.82 C358.005963,64.0237699 357.691173,64.3853655 357.546374,64.8235229 C357.401576,65.2616802 357.438915,65.7396447 357.65,66.15 L378.09,106.72 C378.526668,107.575164 379.570844,107.918761 380.43,107.49 L397.21,99.04 C398.065164,98.6033324 398.408761,97.5591557 397.98,96.7 L377.53,56.11 C377.322188,55.6972209 376.958703,55.3840689 376.51972,55.2396173 C376.080737,55.0951656 375.602322,55.1312819 375.19,55.34 L373.16,56.39 Z" id="Path" fill="#FDE61D"></path>
                <rect id="Rectangle" fill="#E6E8EC" transform="translate(366.467783, 60.420457) rotate(-26.730000) translate(-366.467783, -60.420457) " x="364.692783" y="60.0604567" width="3.55" height="1" rx="0.36"></rect>
                <circle id="Oval" fill="#E6E8EC" cx="368.88" cy="59.17" r="1"></circle>
                <path d="M387.56,212 L381.31,379.72 C381.31,379.72 402.31,372.72 405.56,377.97 C408.81,383.22 402.06,293.97 402.06,293.97 L387.56,212 Z" id="Path" fill="#5F5570"></path>
                <path d="M387.56,212 L381.31,379.72 C381.31,379.72 402.31,372.72 405.56,377.97 C408.81,383.22 402.06,293.97 402.06,293.97 L387.56,212 Z" id="Path" fill="#000000" opacity="0.15"></path>
                <path d="M388.56,764.83 C375.56,765.5 324.23,764.83 324.23,764.83 C324.23,764.83 310.89,754.5 309.89,754.5 C308.89,754.5 308.23,759.83 308.23,759.83 L287.23,753.83 L287.23,743.17 C287.23,743.17 286.56,712.82 292.89,711.5 C299.22,710.18 327.23,711.5 327.23,711.5 C328.23,711.17 347.23,729.17 352.56,732.5 C357.89,735.83 356.89,738.17 356.89,738.17 C356.89,738.17 369.56,748.83 379.56,749.5 C385.79,749.92 392.8,755.5 394.05,759.83 C394.81,762.44 393.46,764.58 388.56,764.83 Z" id="Path" fill="#BC8487"></path>
                <path d="M388.56,764.83 C375.56,765.5 324.23,764.83 324.23,764.83 C324.23,764.83 310.89,754.5 309.89,754.5 C308.89,754.5 308.23,759.83 308.23,759.83 L287.23,753.83 L287.23,743.38 L306.89,750.5 L322.56,759.83 L394.05,759.83 C394.81,762.44 393.46,764.58 388.56,764.83 Z" id="Path" fill="#000000" opacity="0.1"></path>
                <path d="M330.19,749.17 C330.19,749.17 346.19,733.84 356.89,738.17" id="Path" stroke="#000000" fill="#000000" opacity="0.1"></path>
                <path d="M228.89,692.83 C229.56,694.83 223.56,697.5 223.56,697.5 L223.56,723.83 C223.56,723.83 226.28,739.64 222.35,744.25 C221.752793,745.007022 220.853555,745.463952 219.89,745.5 C212.56,745.83 196.56,695.83 196.56,695.83 L195.56,666.94 L191.56,664.17 L185.89,627.5 L196.23,627.5 C196.23,627.5 197.32,626.83 199.07,625.93 C204.07,623.38 214.54,618.93 220.23,623.17 L239.56,666.72 C239.56,666.72 228.23,690.83 228.89,692.83 Z" id="Path" fill="#BC8487"></path>
                <path d="M222.35,744.25 C221.752793,745.007022 220.853555,745.463952 219.89,745.5 C212.56,745.83 196.56,695.83 196.56,695.83 L195.56,666.94 L191.56,664.17 L185.89,627.5 L196.23,627.5 C196.23,627.5 197.32,626.83 199.07,625.93 L201.56,663.5 L202.89,695.83 C202.89,695.83 215.45,731.03 222.35,744.25 Z" id="Path" fill="#000000" opacity="0.1"></path>
                <path d="M407.81,556.25 C404.56,561 383.31,572.5 383.31,572.5 C383.31,572.5 374.31,573 363.81,581 C358.38,585.14 339.51,593.35 322.56,600.32 C306.73,606.83 292.56,612.25 292.56,612.25 L276.24,631.25 L263.81,645.72 C263.81,645.72 256.31,642.72 255.56,648.22 C254.81,653.72 243.56,659.97 243.81,660.97 C244.06,661.97 239.56,664.47 239.56,666.72 C239.56,668.97 222.81,650.47 223.06,639.22 C223.31,627.97 214.56,620.22 214.56,620.22 C214.56,620.22 216.81,616.22 220.31,616.97 C223.81,617.72 226.81,616.22 227.81,614.97 C228.81,613.72 233.06,616.72 235.06,615.72 C237.06,614.72 245.06,594.97 245.06,594.97 L276.23,574.06 L338.23,532.5 L341.09,530.58 C341.09,530.58 349.34,534.36 345.99,503.39 C345.34,497.39 344.25,490.1 342.59,481.22 C332.34,426.47 369.09,420.22 369.09,420.22 L401.34,430.97 L409.09,442.97 L409.09,443.03 L410.84,516.97 C410.84,516.97 411.06,551.5 407.81,556.25 Z" id="Path" fill="#433A59"></path>
                <path d="M322.31,591.25 C322.31,591.25 322.41,594.8 322.56,600.32 C306.73,606.83 292.56,612.25 292.56,612.25 L276.24,631.25 C275.97,615.5 276.03,595.04 276.24,574.07 L338.24,532.51 C330.57,560.94 322.31,591.25 322.31,591.25 Z" id="Path" fill="#000000" opacity="0.1"></path>
                <path d="M409.06,443 L409.06,443.06 L360.56,444 C360.56,444 352.06,477.25 350.81,484.25 C350.5,485.97 348.62,493.32 345.96,503.42 C345.31,497.42 344.22,490.13 342.56,481.25 C332.31,426.5 369.06,420.25 369.06,420.25 L401.31,431 L409.06,443 Z" id="Path" fill="#000000" opacity="0.1"></path>
                <path d="M281.31,352.25 L275.06,472.25 C275.06,472.25 270.56,648.5 275.06,660 C279.56,671.5 281.31,689.5 281.31,689.5 C281.31,689.5 278.56,703.25 281.31,707.75 C284.06,712.25 292.81,717.25 292.56,719.75 C292.31,722.25 319.31,735.75 333.31,714.25 C333.31,714.25 324.81,702.25 326.56,697 C328.31,691.75 325.81,684 325.81,684 C325.81,684 321.06,669.25 321.06,661.72 C321.06,654.19 319.31,591.22 319.31,591.22 C319.31,591.22 346.56,491.22 347.81,484.22 C349.06,477.22 357.56,443.97 357.56,443.97 L409.06,442.97 C409.06,442.97 407.56,407.22 404.56,399.47 C401.56,391.72 386.81,334.97 386.81,334.97 L281.31,352.25 Z" id="Path" fill="#433A59"></path>
                <polygon id="Path" fill="#7B728F" points="195.36 469.89 190.89 471.17 190.71 475.59 324.73 477.32 324.73 475.58"></polygon>
                <path d="M353.44,101.87 C333.94,141.42 346.05,149.69 347.98,150.71 C343.85,148.79 290.17,123.57 297.23,117.17 C301.82,113 305.75,94.86 308.06,81.86 C309.43,74.1 310.23,68.17 310.23,68.17 L366.56,78.5 C361.1,87.3 356.76,95.05 353.44,101.87 Z" id="Path" fill="#FFC5D3"></path>
                <path d="M427.76,126.45 L426.6,128 L404.31,143.72 L399.59,135.96 C406.46,131.96 427.06,124.96 427.06,124.96 L427.76,126.45 Z" id="Path" fill="#000000" opacity="0.1"></path>
                <path d="M448.31,162.5 C446.31,169.5 412.56,162.5 412.56,162.5 L409.06,157 C409.06,157 408.71,156.3 408.12,155.16 C405.96,150.97 400.73,141.05 398.57,139.29 C395.82,137.04 428.07,126.04 428.07,126.04 L437.95,147.54 C440.385445,149.177336 442.632425,151.078885 444.65,153.21 C447.15,155.92 449.22,159.31 448.31,162.5 Z" id="Path" fill="#E5E8EF"></path>
                <path d="M392.31,165.72 C392.31,165.72 412.31,181.5 415.31,180.36 C418.31,179.22 466.81,211.97 466.81,211.97 C466.81,211.97 472.31,232.97 449.56,234.22 C449.56,234.22 401.31,232.22 399.31,225.22 C397.31,218.22 392.31,165.72 392.31,165.72 Z" id="Path" fill="#5F5570"></path>
                <path d="M337.81,134 L316.06,156.5 L346.56,350.5 L358.56,343.5 C358.56,343.5 389.56,357.25 392.06,344.5 C394.56,331.75 393.87,281.5 393.87,281.5 L389.81,190.72 C389.81,190.72 375.56,158.97 375.56,157.97 C375.56,156.97 355.01,141.47 355.01,141.47 L345.31,133.97 L337.81,134 Z" id="Path" fill="#000000" opacity="0.1"></path>
                <path d="M337.81,131 L316.06,153.5 L346.56,347.5 L358.56,340.5 C358.56,340.5 389.56,354.25 392.06,341.5 C394.56,328.75 393.87,278.5 393.87,278.5 L389.81,187.72 C389.81,187.72 375.56,155.97 375.56,154.97 C375.56,153.97 355.01,138.47 355.01,138.47 L345.31,130.97 L337.81,131 Z" id="Path" fill="#E5E8EF"></path>
                <path d="M339.06,134.25 L333.06,146.5 L339.06,152.83 C339.06,152.83 360.56,196.25 356.31,222 L360.81,306.75 L375.31,321 L386.81,307.72 L381.31,230.72 C381.31,230.72 366.56,167.22 351.06,147.47 L346.56,129.97 L339.06,134.25 Z" id="Path" fill="#000000" opacity="0.1"></path>
                <path d="M339.06,132.25 L333.06,144.5 L339.06,150.83 C339.06,150.83 360.56,194.25 356.31,220 L360.81,304.75 L375.31,319 L386.81,305.72 L381.31,228.72 C381.31,228.72 366.56,165.22 351.06,145.47 L346.56,127.97 L339.06,132.25 Z" id="Path" fill="#BC8487"></path>
                <path d="M366.56,78.5 C361.1,87.3 356.8,95.05 353.44,101.87 C349.90082,102.91363 346.229844,103.442386 342.54,103.44 C330.18,103.44 323.06,94.89 316.06,85.81 C314.46,83.75 309.2,84.23 308.06,81.81 C309.43,74.05 310.23,68.12 310.23,68.12 L366.56,78.5 Z" id="Path" fill="#000000" opacity="0.1"></path>
                <path d="M380.87,64.1 C380.868985,82.9589472 367.149706,99.0151411 348.521831,101.958293 C329.893955,104.901446 311.892849,93.8569843 306.077701,75.9169746 C300.262553,57.9769649 308.361365,38.47237 325.173583,29.9278265 C341.9858,21.383283 362.515591,26.3378445 373.58,41.61 C378.319029,48.1512612 380.870435,56.0224697 380.87,64.1 Z" id="Path" fill="#FFC5D3"></path>
                <path d="M330.31,149.5 L298.81,111.5 C298.81,111.5 295.9,110.33 305.73,100.04 C305.73,100.04 341.83,128.18 344.07,132.96 C346.31,137.74 330.31,149.5 330.31,149.5 Z" id="Path" fill="#000000" opacity="0.1"></path>
                <path d="M329.31,147.5 L297.81,109.5 C297.81,109.5 294.9,108.33 304.73,98.04 C304.73,98.04 340.83,126.18 343.07,130.96 C345.31,135.74 329.31,147.5 329.31,147.5 Z" id="Path" fill="#E5E8EF"></path>
                <path d="M409.06,389.35 C409.06,389.35 403.06,385.75 403.06,381.5 C403.06,377.25 400.06,317.25 400.06,317.25 C400.06,317.25 395.66,281.44 391.06,252.98 L391.06,252.98 C388.36,236.21 385.59,221.98 383.63,219.16 L383.55,219.04 C378.3,212.29 379.3,179.29 346.55,131.04 C346.99,131.34 358.28,139.26 366.55,143.24 C368.233297,144.085935 369.999292,144.756142 371.82,145.24 C379.32,146.99 403.82,156.49 403.07,171.74 C402.32,186.99 404.82,221.99 404.82,221.99 L404.82,293.72 L409.06,389.35 Z" id="Path" fill="#5F5570"></path>
                <path d="M448.31,162.5 C446.31,169.5 412.56,162.5 412.56,162.5 L409.06,157 C409.06,157 408.71,156.3 408.12,155.16 C408.099483,155.121715 408.082737,155.081526 408.07,155.04 C427.68,156.41 438.61,154.98 444.65,153.21 C447.15,155.92 449.22,159.31 448.31,162.5 Z" id="Path" fill="#000000" opacity="0.1"></path>
                <path d="M409.06,157 C409.06,157 419.56,186 418.06,193.25 C416.56,200.5 442.31,229 442.31,229 L466.81,212 C466.81,212 457.56,193.5 458.81,188 C460.06,182.5 452.31,170.75 452.31,170.75 L452.81,151.27 C452.81,151.27 448.31,159.72 409.06,157 Z" id="Path" fill="#5F5570"></path>
                <path d="M373.58,41.61 L354.58,42.33 C352.724342,42.3178344 350.875146,42.5498245 349.08,43.02 C342.29,45.11 339.16,52.33 338.91,58.82 C338.66,65.31 334.91,72.58 327.64,73.15 C326.916404,73.2728872 326.173446,73.1077854 325.57,72.69 C325.10884,72.1994796 324.802718,71.5837568 324.69,70.92 C323.647166,67.1383124 322.035415,63.5371613 319.91,60.24 C316.91,60.78 314.69,63.63 313.91,66.61 C313.13,69.59 313.34,72.73 313.35,75.82 C313.359052,79.7443631 312.980549,83.6600295 312.22,87.51 C303.783043,76.5575693 301.897965,61.9103672 307.286788,49.1785741 C312.675612,36.446781 324.503183,27.6035571 338.239298,26.0360394 C351.975414,24.4685217 365.491264,30.4196426 373.61,41.61 L373.58,41.61 Z" id="Path" fill="#000000" opacity="0.1"></path>
                <path d="M348.09,42.02 C349.885146,41.5498245 351.734342,41.3178344 353.59,41.33 L376.66,40.47 C380.04,40.34 383.81,40.04 386.08,37.53 C386.89483,36.5715673 387.494953,35.4497453 387.84,34.24 C389.041735,30.3296866 388.498695,26.0910665 386.35,22.61 C383.68,18.36 379,15.89 374.54,13.61 C370.389033,11.3923535 366.126734,9.38970726 361.77,7.61 C345.587111,1.46435313 327.669601,1.72185027 311.67,8.33 C310.089123,8.93677253 308.590727,9.7397248 307.21,10.72 C305.281551,12.3724046 303.639428,14.3321397 302.35,16.52 L294.76,27.96 C293.712782,29.3568937 292.905103,30.9181812 292.37,32.58 C290.94,38.01 295.37,43.44 294.91,49.03 C294.65,51.81 293.18,54.36 292.91,57.14 C292.55,60.73 294.19,64.14 295.8,67.41 L309.14,94.32 C311.294138,88.0449912 312.385804,81.4544403 312.37,74.82 C312.37,71.73 312.11,68.59 312.93,65.61 C313.75,62.63 315.93,59.78 318.93,59.24 C321.060698,62.5355853 322.67596,66.1370468 323.72,69.92 C323.830404,70.5845082 324.136844,71.2008714 324.6,71.69 C325.20301,72.108783 325.946377,72.2739757 326.67,72.15 C333.98,71.58 337.67,64.38 337.94,57.82 C338.21,51.26 341.3,44.11 348.09,42.02 Z" id="Path" fill="#8F7080"></path>
                <polygon id="Path" fill="#7B728F" points="190.89 471.17 200.23 468.5 341.06 476.17 325.56 478.17"></polygon>
                <polygon id="Path" fill="#000000" opacity="0.1" points="190.89 471.17 200.23 468.5 341.06 476.17 325.56 478.17"></polygon>
                <polygon id="Path" fill="#7B728F" points="344.89 611.17 326.31 609.44 319.79 608.84 319.79 505.5 321.51 481.51 321.89 476.17 341.06 476.17"></polygon>
                <polygon id="Path" fill="#000000" opacity="0.1" points="339.81 607.5 324.99 605.86 319.79 605.29 319.79 507.31 321.16 484.57 321.46 479.5 336.75 479.5"></polygon>
                <path d="M238.18,471.17 C238.18,471.17 247.43,450.88 251.31,450.25 C255.19,449.62 262.31,450.25 262.31,450.25 L261.68,456.13 C261.68,456.13 252.18,456.88 249.18,472.75 L238.18,471.17 Z" id="Path" fill="#7B728F"></path>
                <path d="M238.18,471.17 C238.18,471.17 247.43,450.88 251.31,450.25 C255.19,449.62 262.31,450.25 262.31,450.25 L261.68,456.13 C261.68,456.13 252.18,456.88 249.18,472.75 L238.18,471.17 Z" id="Path" fill="#000000" opacity="0.1"></path>
                <path d="M274.06,448.13 C274.06,448.13 298.93,460.5 295.68,475 L282.18,474.25 C282.18,474.25 275.68,452.63 270.56,451.5 C265.44,450.37 274.06,448.13 274.06,448.13 Z" id="Path" fill="#7B728F"></path>
                <path d="M366.56,252.25 L366.56,252.98 L366.06,336.25 C366.06,336.25 353.31,406.25 349.81,409 C346.31,411.75 269.56,404.25 269.56,404.25 L234.81,170 C234.56,130 262.81,131.25 262.81,131.25 C266.56,125.25 284.56,120.5 284.56,120.5 L294.56,110.75 L294.88,110.3 C295.544441,109.30934 296.401454,108.462529 297.4,107.81 L297.4,107.81 C299.46,106.62 300.77,108.19 301.52,109.74 C301.857596,110.467739 302.118988,111.228457 302.3,112.01 C342.81,141.72 366.56,252.25 366.56,252.25 Z" id="Path" fill="#5F5570"></path>
                <path d="M365.56,253.25 L365.56,253.98 C352.99,230.98 304.56,143.84 291.31,139.5 L296.41,136 C296.41,136 299.81,134 293.56,132 C293.56,132 283.81,133.25 283.56,121.5 L293.88,111.3 L296.4,108.81 L296.4,108.81 L300.52,110.74 C300.857596,111.467739 301.118988,112.228457 301.3,113.01 C341.81,142.72 365.56,253.25 365.56,253.25 Z" id="Path" fill="#000000" opacity="0.1"></path>
                <path d="M366.56,252.25 L366.56,252.98 C353.99,229.98 305.56,142.84 292.31,138.5 L297.41,135 C297.41,135 300.81,133 294.56,131 C294.56,131 284.81,132.25 284.56,120.5 L294.88,110.3 L297.4,107.81 L297.4,107.81 L301.52,109.74 C301.857596,110.467739 302.118988,111.228457 302.3,112.01 C342.81,141.72 366.56,252.25 366.56,252.25 Z" id="Path" fill="#433A59"></path>
                <path d="M384.64,220.12 L384.56,220 C379.31,213.25 380.31,180.25 347.56,132 C348,132.3 359.29,140.22 367.56,144.2 L365.25,151.82 L370.25,154.49 L384.64,220.12 Z" id="Path" fill="#000000" opacity="0.1"></path>
                <path d="M383.64,219.12 L383.56,219 C378.31,212.25 379.31,179.25 346.56,131 C347,131.3 358.29,139.22 366.56,143.2 L364.25,150.82 L369.25,153.49 L383.64,219.12 Z" id="Path" fill="#433A59"></path>
                <path d="M345.12,123.3 L343.07,131.96 C343.07,131.96 344.57,140.63 353.56,141.38 L355.01,137.25 C355.01,137.25 345.31,131.03 345.12,123.3 Z" id="Path" fill="#000000" opacity="0.1"></path>
                <path d="M345.12,122.3 L343.07,130.96 C343.07,130.96 344.57,139.63 353.56,140.38 L355.01,136.25 C355.01,136.25 345.31,130.03 345.12,122.3 Z" id="Path" fill="#E5E8EF"></path>
                <polygon id="Path" fill="#000000" opacity="0.1" points="332.19 477.57 326.31 609.44 319.79 608.84 319.79 505.5 321.51 481.51"></polygon>
                <polygon id="Path" fill="#7B728F" points="192.23 528.5 188.23 599.83 324.23 611.17 330.19 477.57"></polygon>
                <polygon id="Path" fill="#000000" opacity="0.1" points="189.23 536.17 191.89 473.17 331.19 479.57 324.56 546.17"></polygon>
                <polygon id="Path" fill="#7B728F" points="188.23 534.17 190.89 471.17 330.19 477.57 323.56 544.17"></polygon>
                <rect id="Rectangle" fill="#C3BBC8" x="246.81" y="534.25" width="16.75" height="19.5"></rect>
                <path d="M249.31,406.5 L246.81,413.25 C246.81,413.25 241.56,450.25 248.06,454.75 C254.56,459.25 273.81,459.5 274.81,457.25 C275.81,455 282.81,429.5 282.81,429.5 C282.81,429.5 289.06,448.25 292.31,446.75 C295.56,445.25 284.81,409.61 284.81,409.61 L249.31,406.5 Z" id="Path" fill="#FFC5D3"></path>
                <path d="M246.81,378.5 L246.81,414.25 C246.81,414.25 273.31,419.25 284.81,410.61 C284.81,410.61 274.06,376 278.06,367.25 C282.06,358.5 246.81,378.5 246.81,378.5 Z" id="Path" fill="#000000" opacity="0.1"></path>
                <path d="M246.81,377.5 L246.81,413.25 C246.81,413.25 273.31,418.25 284.81,409.61 C284.81,409.61 274.06,375 278.06,366.25 C282.06,357.5 246.81,377.5 246.81,377.5 Z" id="Path" fill="#E5E8EF"></path>
                <path d="M243.81,168.25 L236.81,172 C236.81,172 235.56,187 234.81,189 C234.06,191 234.81,211.25 234.81,211.25 L234.47,252.25 C234.47,252.25 233.39,274 234.47,281.75 C235.55,289.5 236.76,319 236.76,319 C236.76,319 243.52,347.75 241.02,358 C238.52,368.25 241.27,391.25 245.52,389.25 C249.77,387.25 289.02,379.5 291.02,378 C293.02,376.5 292.02,362.5 291.02,360.75 C290.02,359 284.02,335.25 284.52,329.75 C285.02,324.25 282.77,276 282.77,276 C282.77,276 286.52,224.5 288.02,212.5 C289.52,200.5 285.02,165.25 281.02,164.75 C277.02,164.25 265.31,137 243.81,168.25 Z" id="Path" fill="#000000" opacity="0.1"></path>
                <path d="M241.81,166.25 L234.81,170 C234.81,170 233.56,185 232.81,187 C232.06,189 232.81,209.25 232.81,209.25 L232.47,250.25 C232.47,250.25 231.39,272 232.47,279.75 C233.55,287.5 234.76,317 234.76,317 C234.76,317 241.52,345.75 239.02,356 C236.52,366.25 239.27,389.25 243.52,387.25 C247.77,385.25 287.02,377.5 289.02,376 C291.02,374.5 290.02,360.5 289.02,358.75 C288.02,357 282.02,333.25 282.52,327.75 C283.02,322.25 280.77,274 280.77,274 C280.77,274 284.52,222.5 286.02,210.5 C287.52,198.5 283.02,163.25 279.02,162.75 C275.02,162.25 263.31,135 241.81,166.25 Z" id="Path" fill="#5F5570"></path>
                <g id="Group" opacity="0.1" transform="translate(293.000000, 23.000000)" fill="#000000">
                    <path d="M24.42,32.49 C21.42,33.03 19.2,35.88 18.42,38.86 C17.64,41.84 17.85,44.98 17.86,48.07 C17.879209,54.7038915 16.7909206,61.2944581 14.64,67.57 L1.29,40.66 C1.03,40.13 0.76,39.58 0.5,39.03 C1.1177083,40.8818858 1.88351577,42.6810318 2.79,44.41 L16.14,71.32 C18.2909206,65.0444581 19.379209,58.4538915 19.36,51.82 C19.36,48.73 19.11,45.59 19.92,42.61 C20.73,39.63 22.92,36.78 25.92,36.24 C26.888413,37.7568101 27.7536995,39.3370437 28.51,40.97 C27.4941066,37.9885429 26.120769,35.1411338 24.42,32.49 L24.42,32.49 Z" id="Path"></path>
                    <path d="M93.59,0.04 C94.1767823,2.5002016 94.093911,5.07266638 93.35,7.49 C93.0014039,8.70035557 92.3978982,9.82212609 91.58,10.78 C89.31,13.29 85.58,13.59 82.16,13.72 L59.1,14.58 C57.2410451,14.5677677 55.3885354,14.7997517 53.59,15.27 C46.81,17.36 43.67,24.58 43.42,31.07 C43.17,37.56 39.42,44.83 32.15,45.4 C31.4264041,45.5228872 30.6834464,45.3577854 30.08,44.94 L30.08,44.94 C30.31,45.59 30.53,46.25 30.72,46.94 C30.8227896,47.6048915 31.1263503,48.2224804 31.59,48.71 C32.1934464,49.1277854 32.9364041,49.2928872 33.66,49.17 C40.98,48.6 44.66,41.4 44.93,34.84 C45.2,28.28 48.32,21.13 55.1,19.04 C56.8985354,18.5697517 58.7510451,18.3377677 60.61,18.35 L83.67,17.49 C87.05,17.36 90.82,17.06 93.09,14.55 C93.9078982,13.5921261 94.5114039,12.4703556 94.86,11.26 C96.0057927,7.50523646 95.5460602,3.44366255 93.59,0.04 L93.59,0.04 Z" id="Path"></path>
                </g>
                <path d="M349.04,433.19 C349.04,433.19 357.7,428.69 361.04,428.94 C364.38,429.19 394.37,467.33 394.37,467.33 L349.04,433.19 Z" id="Path" fill="#000000" opacity="0.1"></path>
                <path d="M260.21,175.07 C260.21,175.07 244.38,181.83 244.8,186.5 C245.22,191.17 260.21,175.07 260.21,175.07 Z" id="Path" fill="#000000" opacity="0.1"></path>
                <path d="M252.5,197.17 C252.5,197.17 235.89,218.41 239.56,219.12 C243.23,219.83 252.5,197.17 252.5,197.17 Z" id="Path" fill="#000000" opacity="0.1"></path>
                <path d="M308.06,229 C308.06,229 309.58,276.5 297.4,282.5 L308.06,229 Z" id="Path" fill="#000000" opacity="0.1"></path>
                <path d="M244.76,355.83 C244.76,355.83 256.48,349.17 259.17,350.5 C261.86,351.83 244.76,355.83 244.76,355.83 Z" id="Path" fill="#000000" opacity="0.1"></path>
                <path d="M246.81,365.04 C246.81,365.04 254.21,365.57 257.72,364.04 C261.23,362.51 246.81,365.04 246.81,365.04 Z" id="Path" fill="#000000" opacity="0.1"></path>
                <path d="M423.46,190.13 C423.46,190.13 432.64,216.5 437.93,216.5" id="Path" fill="#000000" opacity="0.1"></path>
                <path d="M292.92,695.17 C292.92,695.17 310.14,690.5 312.68,695.17 C315.22,699.84 292.92,695.17 292.92,695.17 Z" id="Path" fill="#000000" opacity="0.1"></path>
                <path d="M238.18,625.93 C238.18,625.93 233.89,632.5 239.56,634.5 C245.23,636.5 238.18,625.93 238.18,625.93 Z" id="Path" fill="#000000" opacity="0.1"></path>
                <path d="M352.56,534.25 C352.56,534.25 365.56,545.83 371.7,546.17 C377.84,546.51 352.56,534.25 352.56,534.25 Z" id="Path" fill="#000000" opacity="0.1"></path>
                <path d="M864.6,59.83 C864.6,59.83 780.41,54.72 790.33,113.72 C790.33,113.72 788.33,124.15 797.81,128.89 C797.81,128.89 797.96,124.51 806.45,126 C809.469246,126.501071 812.536584,126.648733 815.59,126.44 C819.71209,126.159738 823.631834,124.549028 826.76,121.85 L826.76,121.85 C826.76,121.85 850.43,112.08 859.63,73.39 C859.63,73.39 866.44,64.95 866.17,62.78 L851.96,68.85 C851.96,68.85 856.82,79.1 852.96,87.62 C852.96,87.62 852.5,69.22 849.77,69.62 C849.21,69.71 842.38,73.17 842.38,73.17 C842.38,73.17 850.74,91.03 844.43,104 C844.43,104 846.83,82 839.78,74.46 L829.78,80.3 C829.78,80.3 839.55,98.74 832.93,113.79 C832.93,113.79 834.63,90.71 827.68,81.72 L818.62,88.79 C818.62,88.79 827.79,106.97 822.2,119.45 C822.2,119.45 821.47,92.58 816.65,90.55 C816.65,90.55 808.73,97.55 807.52,100.41 C807.52,100.41 813.8,113.61 809.9,120.57 C809.9,120.57 807.51,102.67 805.55,102.57 C805.55,102.57 797.65,114.43 796.83,122.57 C796.83,122.57 797.17,110.47 803.64,101.44 C803.64,101.44 796,102.75 791.54,107.71 C791.54,107.71 792.77,99.32 805.54,98.59 C805.54,98.59 812.06,89.59 813.81,89.04 C813.81,89.04 801.06,87.98 793.33,91.4 C793.33,91.4 800.14,83.49 816.15,87.09 L825.15,79.79 C825.15,79.79 808.36,77.49 801.25,80.03 C801.25,80.03 809.44,73.03 827.56,78.13 L837.3,72.3 C837.3,72.3 822.99,69.22 814.47,70.3 C814.47,70.3 823.47,65.45 840.15,70.71 L847.15,67.58 C847.15,67.58 836.67,65.52 833.6,65.2 C830.53,64.88 830.36,64.02 830.36,64.02 C837.002806,62.9130778 843.822479,63.6712038 850.06,66.21 C850.06,66.21 864.86,60.72 864.6,59.83 Z" id="Path" fill="#FDE61D"></path>
                <path d="M697.49,48.52 C697.49,48.52 659.49,46.23 663.93,72.89 C663.93,72.89 663.04,77.6 667.31,79.74 C667.31,79.74 667.38,77.74 671.21,78.43 C672.576731,78.6647807 673.967002,78.7319435 675.35,78.63 C677.196835,78.4917917 678.950051,77.7624535 680.35,76.55 L680.35,76.55 C680.35,76.55 691.04,72.13 695.2,54.65 C695.2,54.65 698.28,50.84 698.2,49.86 L691.76,52.6 C691.76,52.6 693.95,57.23 692.23,61.08 C692.23,61.08 692.02,52.77 690.78,52.96 C690.53,52.96 687.45,54.57 687.45,54.57 C687.45,54.57 691.22,62.64 688.37,68.5 C688.37,68.5 689.46,58.56 686.27,55.15 L681.76,57.79 C681.76,57.79 686.17,66.12 683.18,72.92 C683.18,72.92 683.95,62.49 680.81,58.43 L676.72,61.63 C676.72,61.63 680.86,69.84 678.33,75.48 C678.33,75.48 678,63.34 675.83,62.42 C675.83,62.42 672.25,65.58 671.7,66.88 C671.7,66.88 674.54,72.88 672.78,75.99 C672.78,75.99 671.7,67.9 670.78,67.86 C670.78,67.86 667.21,73.22 666.84,76.86 C667.01312,73.4650763 668.075249,70.1752355 669.92,67.32 C667.859107,67.7079931 665.957275,68.6919395 664.45,70.15 C664.45,70.15 665.01,66.36 670.8,66.03 C670.8,66.03 673.75,61.96 674.54,61.72 C674.54,61.72 668.78,61.23 665.28,62.78 C665.28,62.78 668.36,59.21 675.59,60.78 L679.59,57.48 C679.59,57.48 672,56.48 668.79,57.59 C668.79,57.59 672.49,54.43 680.67,56.73 L685.08,54.1 C685.08,54.1 678.61,52.71 674.76,53.21 C674.76,53.21 678.82,51.02 686.37,53.39 L689.51,51.98 C689.51,51.98 684.78,51.05 683.39,50.9 C682,50.75 681.93,50.37 681.93,50.37 C684.932138,49.8769491 688.012135,50.2230162 690.83,51.37 C690.83,51.37 697.61,48.94 697.49,48.52 Z" id="Path" fill="#FDE61D"></path>
                <ellipse id="Oval" fill="#FDE61D" opacity="0.24" cx="846.6" cy="722.88" rx="26.93" ry="4.55"></ellipse>
                <ellipse id="Oval" fill="#FDE61D" opacity="0.24" cx="26.93" cy="655.15" rx="26.93" ry="4.55"></ellipse>
                <ellipse id="Oval" fill="#FDE61D" opacity="0.24" cx="827.86" cy="634.75" rx="26.93" ry="4.55"></ellipse>
                <ellipse id="Oval" fill="#FDE61D" opacity="0.24" cx="131.09" cy="679.56" rx="26.93" ry="4.55"></ellipse>
                <ellipse id="Oval" fill="#FDE61D" opacity="0.24" cx="707.82" cy="683.47" rx="26.93" ry="4.55"></ellipse>
                <ellipse id="Oval" fill="#1C1B19" cx="787.66" cy="771.64" rx="40.21" ry="6.8"></ellipse>
                <path d="M804.28,760.52 C806.112298,759.025429 807.447827,757.00993 808.11,754.74 C808.61,752.44 807.63,749.74 805.43,748.85 C802.97,747.91 800.34,749.61 798.35,751.33 C796.36,753.05 794.07,755.02 791.46,754.66 C794.192349,752.184329 795.425964,748.456915 794.71,744.84 C794.592829,744.103392 794.278366,743.412264 793.8,742.84 C792.44,741.38 789.96,742.01 788.33,743.16 C783.13,746.82 781.68,753.88 781.65,760.24 C781.13,757.94 781.57,755.55 781.55,753.24 C781.53,750.93 780.9,748.24 778.91,747.02 C777.682191,746.360285 776.303325,746.032804 774.91,746.07 C772.57,745.99 769.97,746.22 768.38,747.93 C766.38,750.05 766.91,753.62 768.63,755.93 C770.35,758.24 772.98,759.73 775.4,761.35 C777.338216,762.501225 778.989733,764.077518 780.23,765.96 C780.381653,766.218315 780.502479,766.493529 780.59,766.78 L795.25,766.78 C798.527863,765.108985 801.565265,763.003322 804.28,760.52 Z" id="Path" fill="#FDE61D"></path>
                <path d="M132.48,567.72 C132.48,567.72 137.98,574.9 129.95,585.72 C121.92,596.54 115.3,605.72 117.95,612.48 C117.95,612.48 130.07,592.34 139.95,592.06 C149.83,591.78 143.33,579.86 132.48,567.72 Z" id="Path" fill="#FDE61D"></path>
                <path d="M132.48,567.72 C132.961131,568.411327 133.338465,569.169364 133.6,569.97 C143.22,581.27 148.35,591.82 139.1,592.09 C130.49,592.33 120.16,607.73 117.68,611.62 C117.761568,611.921376 117.858359,612.218423 117.97,612.51 C117.97,612.51 130.09,592.37 139.97,592.09 C149.85,591.81 143.33,579.86 132.48,567.72 Z" id="Path" fill="#000000" opacity="0.1"></path>
                <path d="M142.69,576.9 C142.69,579.43 142.41,581.48 142.06,581.48 C141.71,581.48 141.43,579.48 141.43,576.9 C141.43,574.32 141.78,575.56 142.13,575.56 C142.48,575.56 142.69,574.37 142.69,576.9 Z" id="Path" fill="#FFD037"></path>
                <path d="M146.2,579.92 C143.98,581.13 142.04,581.86 141.88,581.56 C141.72,581.26 143.37,580.02 145.59,578.81 C147.81,577.6 146.94,578.48 147.1,578.81 C147.26,579.14 148.42,578.72 146.2,579.92 Z" id="Path" fill="#FFD037"></path>
                <path d="M103.47,567.72 C103.47,567.72 97.97,574.9 106,585.72 C114.03,596.54 120.65,605.72 118,612.48 C118,612.48 105.89,592.34 96,592.06 C86.11,591.78 92.62,579.86 103.47,567.72 Z" id="Path" fill="#FDE61D"></path>
                <path d="M103.47,567.72 C102.987671,568.412101 102.607128,569.16982 102.34,569.97 C92.72,581.27 87.6,591.82 96.84,592.09 C105.46,592.33 115.79,607.73 118.27,611.62 C118.189586,611.922913 118.089371,612.220219 117.97,612.51 C117.97,612.51 105.86,592.37 95.97,592.09 C86.08,591.81 92.62,579.86 103.47,567.72 Z" id="Path" fill="#000000" opacity="0.1"></path>
                <path d="M93.25,576.9 C93.25,579.43 93.54,581.48 93.89,581.48 C94.24,581.48 94.52,579.48 94.52,576.9 C94.52,574.32 94.17,575.56 93.82,575.56 C93.47,575.56 93.25,574.37 93.25,576.9 Z" id="Path" fill="#FFD037"></path>
                <path d="M89.76,579.92 C91.98,581.13 93.91,581.86 94.08,581.56 C94.25,581.26 92.58,580.02 90.36,578.81 C88.14,577.6 89.02,578.48 88.85,578.81 C88.68,579.14 87.53,578.72 89.76,579.92 Z" id="Path" fill="#FFD037"></path>
                <path d="M95,611.6 C95,611.6 110.36,611.13 115,607.83 C119.64,604.53 138.63,600.6 139.77,605.89 C140.91,611.18 162.86,632.18 145.52,632.32 C128.18,632.46 105.22,629.62 100.6,626.8 C95.98,623.98 95,611.6 95,611.6 Z" id="Path" fill="#1C1B19"></path>
                <path d="M145.82,630.48 C128.48,630.62 105.52,627.78 100.9,624.96 C97.39,622.82 95.98,615.13 95.51,611.58 L95,611.58 C95,611.58 96,623.97 100.59,626.78 C105.18,629.59 128.17,632.44 145.51,632.3 C150.51,632.3 152.24,630.48 152.15,627.84 C151.45,629.45 149.54,630.45 145.82,630.48 Z" id="Path" fill="#000000" opacity="0.2"></path>
            </g>
        </g>
    </g>
</svg>