<?xml version="1.0" encoding="UTF-8"?>
<svg width="1084px" height="832px" viewBox="0 0 1084 832" version="1.1" xmlns="http://www.w3.org/2000/svg" xmlns:xlink="http://www.w3.org/1999/xlink">
    <!-- Generator: Sketch 53.1 (72631) - https://sketchapp.com -->
    <title>Безналичные поездки в едином управляемом счету Copy</title>
    <desc>Created with Sketch.</desc>
    <defs>
        <linearGradient x1="49.9945465%" y1="100%" x2="49.9945465%" y2="0.00354275865%" id="linearGradient-1">
            <stop stop-color="#808080" stop-opacity="0.25" offset="0%"></stop>
            <stop stop-color="#808080" stop-opacity="0.12" offset="54%"></stop>
            <stop stop-color="#808080" stop-opacity="0.1" offset="100%"></stop>
        </linearGradient>
        <linearGradient x1="49.9909707%" y1="100.007273%" x2="49.9909707%" y2="0%" id="linearGradient-2">
            <stop stop-color="#808080" stop-opacity="0.25" offset="0%"></stop>
            <stop stop-color="#808080" stop-opacity="0.12" offset="54%"></stop>
            <stop stop-color="#808080" stop-opacity="0.1" offset="100%"></stop>
        </linearGradient>
    </defs>
    <g id="Page-1" stroke="none" stroke-width="1" fill="none" fill-rule="evenodd">
        <g id="Artboard" transform="translate(-3351.000000, -4983.000000)" fill-rule="nonzero">
            <g id="Безналичные-поездки-в-едином-управляемом-счету-Copy" transform="translate(3350.000000, 4983.000000)">
                <path d="M95.13,384.85 C80.13,389.75 66.13,401.61 62.35,418.06 C58.06,436.96 67.94,456.06 69.35,475.44 C73.96,539.05 -9.78,583.93 2.16,646.44 C6.91,671.25 26.09,689.54 45,704.59 C75.27,728.7 108.85,749.99 146,756.01 C202.44,765.14 261.42,738.28 316.29,755.26 C360.54,768.95 394.4,809.09 438.35,823.9 C471.81,835.18 507.84,830.73 542.63,826.17 C561.34,823.72 581,820.88 596.13,808.73 C624.3,786.11 626,741.45 644.84,709.44 C673.91,660.03 737.65,650.38 791.1,659.98 C844.55,669.58 896.42,693.25 950.57,691.25 C962.14,690.84 974.01,689.13 984.09,683 C996.36,675.54 1004.66,662.41 1011.99,649.41 C1057.67,568.41 1083.12,474.19 1084.93,379.34 C1085.24,362.95 1084.71,345.85 1077.58,331.34 C1068.58,313.03 1050.58,302.1 1032.58,294.72 C989.5,277.1 941.91,274.25 899.68,254.25 C858.95,234.98 825.95,201.17 790.49,172.25 C720.16,114.8 637.49,75.04 550.97,56.99 C530.6,52.74 509.46,49.7 489.22,54.61 C465.9,60.27 445.8,75.98 427.73,92.88 C379.64,137.88 341.11,193.36 296.81,242.66 C266.458925,276.413507 233.164271,307.399054 197.32,335.25 C180.89,348.02 163.49,363.18 145.22,372.62 C128.51,381.25 112.8,379.08 95.13,384.85 Z" id="Path" fill="#FDE61D" opacity="0.24"></path>
                <path d="M1015.55,417.25 C993.55,412.65 951.9,404.02 904.76,394.46 C834.97,380.31 816.76,433.87 816.76,433.87 C816.76,461.15 725.76,574.31 725.76,574.31 L698.62,513.51 C702.79105,514.153599 707.052819,513.866749 711.1,512.67 C726.64,508.03 734.32,490.5 736.81,474.49 C740.526201,450.376806 737.130981,425.703248 727.04,403.49 C722.41,393.35 716.41,383.81 712.69,373.31 C697,329.25 724.18,278.25 707.74,234.36 C700.95,216.25 687.41,201.56 678.05,184.64 C657.05,146.59 657.95,98.99 635.05,62.03 C613.57,27.38 571.24,6.84 530.69,11.42 C506.78,14.12 489.69,22.66 467.41,12.42 C448.6,3.8 426.02,-5.84 406.65,7.74 C390.13,19.32 387.32,42.13 378.3,60.16 C362.46,91.83 324.88,112.5 320.46,147.63 C319.37,156.29 320.46,165.27 317.93,173.63 C310.71,197.26 279.27,204.24 266.39,225.33 C253.78,245.97 266.52,277.18 289.98,283.13 C299.98,285.67 310.74,284.13 320.73,286.82 C330.1,289.32 339.19,298.08 337.57,307.23 L316.79,311.01 L257,317.65 L247.75,318.23 C247.75,318.23 247.75,318.39 247.75,318.68 L247.25,318.74 L247.74,319.14 C247.74,319.85 247.74,320.96 247.74,322.42 C230.91,329.01 203.64,346.6 193.34,392.74 C190.980327,403.270882 186.212261,413.111649 179.41,421.49 C164.08,440.39 138.64,477.3 140.06,512.73 C142.06,563.25 142.06,583.46 208.84,569.31 C225.71,565.74 244.06,558.42 262.07,549.48 C263.12,570.54 265.85,591.19 271.55,606.69 C289.76,656.2 251.32,831 251.32,831 L622.55,831 C622.55,831 591.19,727.94 560.85,675.4 C539.36,638.18 547.3,615.67 553.76,605.7 C559.36192,597.226942 563.546684,587.898195 566.15,578.08 C567.25,573.77 568.32,568.88 569.24,563.46 C576.07,569.05 583.36,574.07 591.61,577.07 C599.25,579.84 607.94,580.6 615.67,578.46 C631.49,597.8 649.16,619.01 668.07,641.05 C740.9,725.92 761.13,673.38 761.13,673.38 C761.13,673.38 834.97,532.94 845.13,490.5 C855.29,448.06 877.5,450.08 877.5,450.08 C938.38,465.47 992.34,443.13 1017.41,429.69 C1019.9073,428.364435 1021.29756,425.608417 1020.87947,422.812201 C1020.46139,420.015984 1018.32581,417.787143 1015.55,417.25 Z M264.43,442.64 C269.509255,436.850648 273.873919,430.471524 277.43,423.64 L277.62,423.64 C275.776456,430.70324 273.399634,437.616417 270.51,444.32 C264.84,445.41 261.42,445.98 261.42,445.98 L264.43,442.64 Z" id="Shape" fill="url(#linearGradient-1)"></path>
                <path d="M404,16.73 C387.67,28.19 384.89,50.73 376,68.61 C360.34,99.95 323.19,120.42 318.82,155.18 C317.74,163.75 318.82,172.64 316.32,180.9 C309.19,204.29 278.1,211.2 265.32,232.07 C252.85,252.49 265.45,283.38 288.64,289.27 C298.55,291.79 309.16,290.27 319.04,292.92 C328.92,295.57 338.49,305.25 335.22,314.92 C332.79,322.12 324.22,326.22 322.66,333.66 C321.3,340.06 325.66,346.16 329.88,351.14 C335.24,357.44 340.96,363.64 348.13,367.77 C367.85,379.13 392.45,372.31 415.19,371.56 C442.701181,370.743221 469.670743,379.316911 491.66,395.87 C497.95,400.64 503.87,406.15 507.77,413.02 C520.48,435.4 508.46,463.49 511.16,489.08 C514.22,518.16 535.94,541.5 557.87,560.83 C566.63,568.55 575.87,576.16 586.87,580.15 C597.87,584.14 611.02,583.92 620.27,576.8 C629.99,569.32 633.37,556.07 633.43,543.8 C633.49,531.53 630.91,519.32 631.53,507.07 C631.83,501.07 634.02,493.94 639.87,492.76 C642.8,492.17 645.77,493.36 648.44,494.7 C667.1,504.08 685,522.45 705,516.49 C720.37,511.9 728,494.55 730.42,478.7 C734.088,454.845364 730.731407,430.438829 720.76,408.46 C716.18,398.46 710.25,388.99 706.57,378.59 C691.11,334.9 717.96,284.41 701.72,241 C695.01,223.08 681.62,208.54 672.37,191.79 C651.57,154.13 652.5,107.02 629.85,70.44 C608.62,36.14 566.76,15.82 526.68,20.35 C503.04,23.02 486.15,31.48 464.12,21.35 C445.52,12.84 423.2,3.25 404,16.73 Z" id="Path" fill="#40243E"></path>
                <path d="M562.5,333.5 C562.5,333.5 627.5,313.5 653.5,429.5 L719.5,577.5 C719.5,577.5 809.5,465.5 809.5,438.5 C809.5,438.5 827.5,385.5 896.5,399.5 C943.11,408.96 984.24,417.5 1006.03,422.05 C1008.74434,422.614659 1010.81644,424.815498 1011.21666,427.558914 C1011.61689,430.302329 1010.2599,433.003418 1007.82,434.32 C983.04,447.62 929.69,469.73 869.5,454.5 C869.5,454.5 847.5,452.5 837.5,494.5 C827.5,536.5 754.5,675.5 754.5,675.5 C754.5,675.5 734.5,727.5 662.5,643.5 C590.5,559.5 536.5,487.5 536.5,487.5 L562.5,333.5 Z" id="Path" fill="#FFBCC8"></path>
                <path d="M562.5,347.5 L553.88,375.89 L545.36,403.97 L528.5,459.5 L448.5,474.5 L422.43,457.87 L390.5,437.5 L362.97,418.5 L322.5,390.5 L289.5,321.5 C289.5,321.5 298.6,319.89 326.97,314.73 L366.5,307.5 C393.8,302.5 404.12,282.18 407.27,261.5 C411.04,236.74 404.5,211.5 404.5,211.5 L505.5,211.5 C505.5,211.5 516.8,228.5 515.03,257.86 C514.474278,266.548064 512.954958,275.147487 510.5,283.5 C501.62,314.24 521.67,324.5 535.27,327.83 C538.947592,328.763182 542.710004,329.322685 546.5,329.5 L562.5,347.5 Z" id="Path" fill="#FFBCC8"></path>
                <path d="M515,257.86 C483.312755,281.303369 440.444866,282.75935 407.24,261.52 C411.01,236.76 404.47,211.52 404.47,211.52 L505.47,211.52 C505.47,211.52 516.8,228.45 515,257.86 Z" id="Path" fill="#000000" opacity="0.1"></path>
                <circle id="Oval" fill="#FFBCC8" cx="458.5" cy="178.5" r="95"></circle>
                <path d="M562.5,347.5 L553.88,375.89 L545.36,403.97 L528.5,459.5 L448.5,474.5 L422.43,457.87 L390.5,437.5 L362.97,418.5 L322.5,390.5 L289.5,321.5 C289.5,321.5 298.6,319.89 326.97,314.73 C346.97,370.38 372.27,391.1 395.1,397.82 C408.75,401.82 421.51,400.82 431.68,399.32 C444.752227,397.228217 458.11828,397.909637 470.91,401.32 C501.61,409.86 517.77,393.51 526.26,372.76 C532.54,357.41 534.62,339.64 535.26,327.76 C538.937592,328.693182 542.700004,329.252685 546.49,329.43 L562.5,347.5 Z" id="Path" fill="#000000" opacity="0.1"></path>
                <path d="M250.5,831.5 C250.5,831.5 288.5,658.5 270.5,609.5 C265.35,595.5 262.65,577.18 261.44,558.22 C258.44,510.95 264.5,459.5 264.5,459.5 C265.36,457.83 266.17,456.17 266.95,454.5 C268.95,450.233333 270.71,446.06 272.23,441.98 C293.66,384.32 267,345.93 253.48,331.25 C251.311688,328.841113 248.972272,326.591931 246.48,324.52 L322.98,316.02 C343.09,373.73 368.88,395.02 392.08,401.84 C405.73,405.84 418.49,404.84 428.66,403.34 C441.732227,401.248217 455.09828,401.929637 467.89,405.34 C498.59,413.88 514.75,397.53 523.24,376.78 C533.78,351.02 532.48,318.49 532.48,318.49 L576.48,331.49 C576.48,331.49 572.6,355.59 569.09,387.26 C568.26,394.69 567.45,402.53 566.72,410.58 C563.72,444.16 561.94,481.29 565.48,506.49 C569.076764,531.392334 567.796329,556.756488 561.71,581.17 C559.14066,590.887164 555.006594,600.121262 549.47,608.51 C543.08,618.37 535.23,640.66 556.47,677.51 C586.47,729.51 617.47,831.51 617.47,831.51 L250.5,831.5 Z" id="Path" fill="#FF808E"></path>
                <path d="M576,332 C576,332 612.33,389 564.66,438 C516.99,487 536,418 536,418 L548,338 L576,332 Z" id="Path" fill="#FF808E"></path>
                <path d="M253.48,331.25 C256.191376,330.392252 258.971679,329.769946 261.79,329.39 C274.79,335.59 281.99,352.8 285.9,370.77 C291.172761,395.394513 286.240708,421.104688 272.23,442.03 C293.66,384.32 267,345.93 253.48,331.25 Z" id="Path" fill="#000000" opacity="0.1"></path>
                <path d="M566.74,410.59 C545.39,412 517.5,409.5 517.5,409.5 C521.26,426.7 513.5,440.14 505.5,448.9 C499.283699,455.784963 489.992923,459.036358 480.84,457.53 C434.7,449.53 364.54,491.53 364.54,491.53 C364.54,491.53 314.36,532.06 261.44,558.25 C258.44,510.98 264.5,459.53 264.5,459.53 C265.36,457.86 266.17,456.2 266.95,454.53 C288.33,450.53 366.01,434.73 381.5,411.53 C383.8,408.08 387.5,404.85 392.1,401.85 C405.33,393.29 426.5,386.58 446.63,381.68 C471.683893,375.534265 497.630427,373.888694 523.26,376.82 C534.262917,378.080477 545.149764,380.20368 555.82,383.17 C560.48,384.46 564.98,385.85 569.11,387.3 C580.43,391.3 589.01,395.77 590.5,400.53 C592.51,406.93 581.1,409.65 566.74,410.59 Z" id="Path" fill="#000000" opacity="0.1"></path>
                <path d="M545.36,403.97 C529.97,403.71 516.5,402.5 516.5,402.5 C520.26,419.7 512.5,433.14 504.5,441.9 C498.283699,448.784963 488.992923,452.036358 479.84,450.53 C462.45,447.53 441.64,451.62 422.47,457.87 L390.5,437.5 L362.97,418.5 C370.97,414.21 377.16,409.5 380.5,404.5 C389.38,391.18 418.5,381.27 445.63,374.65 C481.233992,365.871243 518.486445,366.297969 553.88,375.89 L554.82,376.14 C572.21,380.99 587.47,387 589.5,393.5 C592.42,402.85 567,404.35 545.36,403.97 Z" id="Path" fill="#000000" opacity="0.1"></path>
                <path d="M260.79,324.37 C260.79,324.37 208.48,329.69 193.23,397.5 C190.872373,408.040945 186.115811,417.896268 179.33,426.3 C164.17,445.03 139.1,481.5 140.5,516.51 C142.5,566.51 142.5,586.51 208.5,572.51 C274.5,558.51 363.5,486.51 363.5,486.51 C363.5,486.51 433.66,444.58 479.8,452.51 C488.95259,454.012541 498.241579,450.761772 504.46,443.88 C512.46,435.12 520.27,421.68 516.46,404.48 C516.46,404.48 594.46,411.48 589.46,395.48 C587.46,388.98 572.17,382.97 554.78,378.13 C519.111108,368.296362 481.51556,367.779893 445.59,376.63 C418.41,383.26 389.34,393.17 380.46,406.48 C362.46,433.48 260.46,450.48 260.46,450.48 L263.46,447.11 C283.10458,424.924579 291.060023,394.735454 284.9,365.75 C281,347.78 273.83,330.57 260.79,324.37 Z" id="Path" fill="#FFBCC8"></path>
                <path d="M247,324 C247,324 244,445 289,427 C334,409 299,324 299,324 L279,322 L247,324 Z" id="Path" fill="#FF808E"></path>
                <path d="M381.67,180.13 C411.338836,176.836475 440.598019,170.547744 469,161.36 C476.3,159 484.23,155.86 487.64,149 C488.52,147.23 489.18,145.13 490.91,144.16 C492.38,143.33 494.2,143.59 495.85,143.97 C505.6,146.28 513.97,152.39 523.26,156.14 C532.55,159.89 544.38,160.77 551.52,153.73 C559.95,145.41 557.16,131.11 551.61,120.66 C531,81.78 482.72,64.03 438.8,67.25 C432.63,67.7 426.36,68.53 420.8,71.25 C409.04,76.9 402.6,89.47 396.23,100.86 C383.84,122.95 318.33,187.14 381.67,180.13 Z" id="Path" fill="#000000" opacity="0.1"></path>
                <path d="M381.67,177.13 C411.338836,173.836475 440.598019,167.547744 469,158.36 C476.3,156 484.23,152.86 487.64,146 C488.52,144.23 489.18,142.13 490.91,141.16 C492.38,140.33 494.2,140.59 495.85,140.97 C505.6,143.28 513.97,149.39 523.26,153.14 C532.55,156.89 544.38,157.77 551.52,150.73 C559.95,142.41 557.16,128.11 551.61,117.66 C531,78.78 482.72,61.03 438.8,64.25 C432.63,64.7 426.36,65.53 420.8,68.25 C409.04,73.9 402.6,86.47 396.23,97.86 C383.84,119.95 318.33,184.14 381.67,177.13 Z" id="Path" fill="#40243E"></path>
                <path d="M1026.24,283 L823.24,283 C818.131366,283 813.99,287.141366 813.99,292.25 L813.99,411.25 C813.99,416.358634 818.131366,420.5 823.24,420.5 L1026.24,420.5 C1031.34863,420.5 1035.49,416.358634 1035.49,411.25 L1035.49,292.25 C1035.49,289.796747 1034.51545,287.443974 1032.78074,285.709262 C1031.04603,283.974551 1028.69325,283 1026.24,283 Z" id="Path" fill="url(#linearGradient-2)"></path>
                <rect id="Rectangle" fill="#FDE61D" x="816.56" y="284.62" width="216.33" height="134.27" rx="11.91"></rect>
                <rect id="Rectangle" fill="#6C63FF" x="816.56" y="308.12" width="216.33" height="24.62"></rect>
                <rect id="Rectangle" fill="#1C1B19" x="816.56" y="308.12" width="216.33" height="24.62"></rect>
                <rect id="Rectangle" fill="#1C1B19" x="837.07" y="351.01" width="175.3" height="11.94"></rect>
                <circle id="Oval" fill="#6C63FF" cx="851.62" cy="392.78" r="17.16"></circle>
                <circle id="Oval" fill="#1C1B19" cx="851.62" cy="392.78" r="17.16"></circle>
                <path d="M254,451 C254,451 235,461.09 231.85,473.42 C228.7,485.75 225,488 225,488" id="Path" fill="#000000" opacity="0.05"></path>
                <path d="M720,577 C720,577 711,608 720,612" id="Path" fill="#000000" opacity="0.05"></path>
                <path d="M271,612 C271,612 349,629 407,594 L432,594 C432,594 507,632 543,621" id="Path" fill="#000000" opacity="0.05"></path>
                <rect id="Rectangle" fill="#8ED16F" transform="translate(850.901009, 583.933525) rotate(-66.420000) translate(-850.901009, -583.933525) " x="831.996009" y="547.093525" width="37.81" height="73.68"></rect>
                <ellipse id="Oval" fill="#8ED16F" transform="translate(850.696264, 584.378256) rotate(-66.420000) translate(-850.696264, -584.378256) " cx="850.696264" cy="584.378256" rx="7.76" ry="15.51"></ellipse>
                <ellipse id="Oval" fill="#000000" opacity="0.1" transform="translate(850.696264, 584.378256) rotate(-66.420000) translate(-850.696264, -584.378256) " cx="850.696264" cy="584.378256" rx="7.76" ry="15.51"></ellipse>
                <rect id="Rectangle" fill="#8ED16F" transform="translate(949.930505, 460.473858) rotate(-66.420000) translate(-949.930505, -460.473858) " x="931.025505" y="423.633858" width="37.81" height="73.68"></rect>
                <ellipse id="Oval" fill="#8ED16F" transform="translate(949.725760, 460.918589) rotate(-66.420000) translate(-949.725760, -460.918589) " cx="949.72576" cy="460.918589" rx="7.76" ry="15.51"></ellipse>
                <ellipse id="Oval" fill="#000000" opacity="0.1" transform="translate(949.725760, 460.918589) rotate(-66.420000) translate(-949.725760, -460.918589) " cx="949.72576" cy="460.918589" rx="7.76" ry="15.51"></ellipse>
                <rect id="Rectangle" fill="#8ED16F" transform="translate(1032.210319, 593.616300) rotate(-11.090000) translate(-1032.210319, -593.616300) " x="1013.30532" y="556.7763" width="37.81" height="73.68"></rect>
                <ellipse id="Oval" fill="#8ED16F" transform="translate(1031.741500, 593.705986) rotate(-11.090000) translate(-1031.741500, -593.705986) " cx="1031.7415" cy="593.705986" rx="7.76" ry="15.51"></ellipse>
                <ellipse id="Oval" fill="#000000" opacity="0.1" transform="translate(1031.741500, 593.705986) rotate(-11.090000) translate(-1031.741500, -593.705986) " cx="1031.7415" cy="593.705986" rx="7.76" ry="15.51"></ellipse>
                <rect id="Rectangle" fill="#8ED16F" transform="translate(936.391476, 753.561510) rotate(-66.420000) translate(-936.391476, -753.561510) " x="917.486476" y="716.72151" width="37.81" height="73.68"></rect>
                <ellipse id="Oval" fill="#8ED16F" transform="translate(936.205896, 754.010241) rotate(-66.420000) translate(-936.205896, -754.010241) " cx="936.205896" cy="754.010241" rx="7.76" ry="15.51"></ellipse>
                <ellipse id="Oval" fill="#000000" opacity="0.1" transform="translate(936.205896, 754.010241) rotate(-66.420000) translate(-936.205896, -754.010241) " cx="936.205896" cy="754.010241" rx="7.76" ry="15.51"></ellipse>
                <rect id="Rectangle" fill="#8ED16F" transform="translate(769.540325, 720.812985) rotate(-66.420000) translate(-769.540325, -720.812985) " x="750.635325" y="683.972985" width="37.81" height="73.68"></rect>
                <ellipse id="Oval" fill="#8ED16F" transform="translate(769.344745, 721.261716) rotate(-66.420000) translate(-769.344745, -721.261716) " cx="769.344745" cy="721.261716" rx="7.76" ry="15.51"></ellipse>
                <ellipse id="Oval" fill="#000000" opacity="0.1" transform="translate(769.344745, 721.261716) rotate(-66.420000) translate(-769.344745, -721.261716) " cx="769.344745" cy="721.261716" rx="7.76" ry="15.51"></ellipse>
            </g>
        </g>
    </g>
</svg>