<?xml version="1.0" encoding="UTF-8"?>
<svg width="1144px" height="876px" viewBox="0 0 1144 876" version="1.1" xmlns="http://www.w3.org/2000/svg" xmlns:xlink="http://www.w3.org/1999/xlink">
    <!-- Generator: Sketch 53.1 (72631) - https://sketchapp.com -->
    <title>Свободный график Copy 2</title>
    <desc>Created with Sketch.</desc>
    <defs>
        <linearGradient x1="50%" y1="100%" x2="50%" y2="0%" id="linearGradient-1">
            <stop stop-color="#808080" stop-opacity="0.25" offset="0%"></stop>
            <stop stop-color="#808080" stop-opacity="0.12" offset="54%"></stop>
            <stop stop-color="#808080" stop-opacity="0.1" offset="100%"></stop>
        </linearGradient>
        <linearGradient x1="50.0089747%" y1="99.9926529%" x2="50.0089747%" y2="0.00193977786%" id="linearGradient-2">
            <stop stop-color="#808080" stop-opacity="0.25" offset="0%"></stop>
            <stop stop-color="#808080" stop-opacity="0.12" offset="54%"></stop>
            <stop stop-color="#808080" stop-opacity="0.1" offset="100%"></stop>
        </linearGradient>
    </defs>
    <g id="Page-1" stroke="none" stroke-width="1" fill="none" fill-rule="evenodd">
        <g id="Artboard" transform="translate(-3335.000000, -2822.000000)">
            <g id="Свободный-график-Copy-2" transform="translate(3306.000000, 2809.000000)">
                <ellipse id="Oval" fill="#FDE61D" fill-rule="nonzero" opacity="0.24" cx="878.67" cy="842.19" rx="115.8" ry="28.95"></ellipse>
                <path d="M64.25,617.66 C51.15,622.15 35.25,631.31 37.93,645.87 C39.27,653.25 45.25,658.72 50.93,663.34 C75.1916427,683.022951 101.859117,699.538908 130.29,712.49 C143.86,718.65 158.29,724.3 168.54,735.66 C178.79,747.02 183.54,762.9 186.87,778.21 C194.684688,814.468524 196.616024,851.748045 192.59,888.62 C233.5,889.4 278.8,888.48 307.75,859.01 C325.08,841.36 334.37,815.18 354.75,801.52 C368.34,792.41 385.09,790.15 401.27,788.25 C477.85,779.296667 554.826667,773.876667 632.2,771.99 C664.62,771.2 697.75,770.92 728.02,759.62 C758.29,748.32 785.77,723.62 791.92,690.13 C792.87,684.97 793.49,679.28 797.02,675.68 C800.17,672.45 804.89,671.68 809.3,671.11 L1075.19,635.11 C1089.75,633.11 1104.82,630.98 1117.08,622.75 C1128.94,614.75 1136.94,601.97 1144.59,589.51 C1162.12,560.99 1180.31,526.51 1168.17,493.9 C1158.46,467.84 1132.36,452.83 1107.42,443.51 C1082.48,434.19 1055.63,427.64 1035.36,409.37 C1004.52,381.57 997.68,335.42 988.99,294.01 C981.126786,256.510306 970.086963,219.747697 955.99,184.12 C943.55,152.78 928.4,121.89 905.82,97.5 C883.24,73.11 852.17,55.82 820.55,57.06 C779.25,58.7 742.92,90.89 701.55,86.89 C666.61,83.54 638.18,55.54 606.72,38.12 C550.87,7.17 484.95,9.89 423.84,19.54 C359.04,29.75 293.84,47.62 241.34,87.81 C229.34,97.01 217.86,107.63 210.81,121.47 C200.01,142.7 200.94,168.57 195.53,192.16 C173.73,287.16 56.85,326.79 32.82,421.1 C24.28,454.58 30.6,490.89 46.27,521.83 C63.12,555.14 96.97,569.34 114.32,597.93 C102.72,608.52 79.61,612.39 64.25,617.66 Z" id="Path" fill="#FDE61D" fill-rule="nonzero" opacity="0.24"></path>
                <path d="M899.15,849.89 C899.15,849.89 888.67,777.69 920.15,730.17 C933.505891,710.324057 940.060852,686.679879 938.83,662.79 C938.162758,651.454135 936.455585,640.203531 933.73,629.18" id="Path" stroke="#1C1B19" stroke-width="2"></path>
                <path d="M953.47,599.09 C952.26,607.58 933.36,630 933.36,630 C933.36,630 921.55,603.17 922.73,594.68 C923.424963,589.106573 927.075103,584.342696 932.275777,582.2216 C937.476451,580.100504 943.417133,580.952762 947.811735,584.450409 C952.206338,587.948056 954.36996,593.545982 953.47,599.09 L953.47,599.09 Z" id="Path" fill="#FDE61D" fill-rule="nonzero"></path>
                <path d="M972.15,649.76 C966.51,656.22 938.46,664.76 938.46,664.76 C938.46,664.76 943.1,635.76 948.73,629.34 C952.375895,625.15642 957.976755,623.235694 963.42279,624.301342 C968.868824,625.36699 973.332651,629.257114 975.13279,634.506342 C976.932929,639.75557 975.795896,645.56642 972.15,649.75 L972.15,649.76 Z" id="Path" fill="#FDE61D" fill-rule="nonzero"></path>
                <path d="M959.55,729.96 C951.42,732.7 922.89,725.96 922.89,725.96 C922.89,725.96 941.51,703.3 949.64,700.57 C957.591972,698.35325 965.888542,702.745103 968.526189,710.567549 C971.163836,718.389995 967.220659,726.908962 959.55,729.96 Z" id="Path" fill="#FDE61D" fill-rule="nonzero"></path>
                <path d="M936.31,788.5 C928.76,792.57 899.5,790.7 899.5,790.7 C899.5,790.7 914.02,765.23 921.57,761.16 C929.119733,757.089661 938.539661,759.910267 942.61,767.46 C946.680339,775.009733 943.859733,784.429661 936.31,788.5 L936.31,788.5 Z" id="Path" fill="#FDE61D" fill-rule="nonzero"></path>
                <path d="M905.95,661.79 C911.19,668.58 938.69,678.79 938.69,678.79 C938.69,678.79 935.77,649.61 930.53,642.79 C925.283295,636.00242 915.52758,634.753295 908.74,640 C901.95242,645.246705 900.703295,655.00242 905.95,661.79 L905.95,661.79 Z" id="Path" fill="#FDE61D" fill-rule="nonzero"></path>
                <path d="M879.67,730.59 C886.67,735.5 915.98,737 915.98,737 C915.98,737 904.48,710 897.44,705.12 C892.892877,701.842058 886.932168,701.268905 881.843751,703.62034 C876.755334,705.971775 873.328966,710.882839 872.878626,716.470184 C872.428287,722.057529 875.023873,727.453962 879.67,730.59 L879.67,730.59 Z" id="Path" fill="#FDE61D" fill-rule="nonzero"></path>
                <path d="M863.3,800.97 C869.4,806.97 898.01,813.42 898.01,813.42 C898.01,813.42 891.23,784.89 885.12,778.89 C881.191019,774.897113 875.416174,773.329597 870.007531,774.787892 C864.598889,776.246187 860.394759,780.504266 859.005542,785.931061 C857.616326,791.357857 859.257343,797.112248 863.3,800.99 L863.3,800.97 Z" id="Path" fill="#FDE61D" fill-rule="nonzero"></path>
                <path d="M953.47,599.09 C952.26,607.58 933.36,630 933.36,630 C933.36,630 921.55,603.17 922.73,594.68 C923.424963,589.106573 927.075103,584.342696 932.275777,582.2216 C937.476451,580.100504 943.417133,580.952762 947.811735,584.450409 C952.206338,587.948056 954.36996,593.545982 953.47,599.09 L953.47,599.09 Z" id="Path" fill="#1C1B19" fill-rule="nonzero" opacity="0.05"></path>
                <path d="M972.15,649.76 C966.51,656.22 938.46,664.76 938.46,664.76 C938.46,664.76 943.1,635.76 948.73,629.34 C952.375895,625.15642 957.976755,623.235694 963.42279,624.301342 C968.868824,625.36699 973.332651,629.257114 975.13279,634.506342 C976.932929,639.75557 975.795896,645.56642 972.15,649.75 L972.15,649.76 Z" id="Path" fill="#1C1B19" fill-rule="nonzero" opacity="0.05"></path>
                <path d="M959.55,729.96 C951.42,732.7 922.89,725.96 922.89,725.96 C922.89,725.96 941.51,703.3 949.64,700.57 C957.591972,698.35325 965.888542,702.745103 968.526189,710.567549 C971.163836,718.389995 967.220659,726.908962 959.55,729.96 Z" id="Path" fill="#1C1B19" fill-rule="nonzero" opacity="0.05"></path>
                <path d="M936.31,788.5 C928.76,792.57 899.5,790.7 899.5,790.7 C899.5,790.7 914.02,765.23 921.57,761.16 C929.119733,757.089661 938.539661,759.910267 942.61,767.46 C946.680339,775.009733 943.859733,784.429661 936.31,788.5 L936.31,788.5 Z" id="Path" fill="#1C1B19" fill-rule="nonzero" opacity="0.05"></path>
                <path d="M905.95,661.79 C911.19,668.58 938.69,678.79 938.69,678.79 C938.69,678.79 935.77,649.61 930.53,642.79 C925.283295,636.00242 915.52758,634.753295 908.74,640 C901.95242,645.246705 900.703295,655.00242 905.95,661.79 L905.95,661.79 Z" id="Path" fill="#1C1B19" fill-rule="nonzero" opacity="0.05"></path>
                <path d="M879.67,730.59 C886.67,735.5 915.98,737 915.98,737 C915.98,737 904.48,710 897.44,705.12 C892.892877,701.842058 886.932168,701.268905 881.843751,703.62034 C876.755334,705.971775 873.328966,710.882839 872.878626,716.470184 C872.428287,722.057529 875.023873,727.453962 879.67,730.59 L879.67,730.59 Z" id="Path" fill="#1C1B19" fill-rule="nonzero" opacity="0.05"></path>
                <path d="M863.3,800.97 C869.4,806.97 898.01,813.42 898.01,813.42 C898.01,813.42 891.23,784.89 885.12,778.89 C881.191019,774.897113 875.416174,773.329597 870.007531,774.787892 C864.598889,776.246187 860.394759,780.504266 859.005542,785.931061 C857.616326,791.357857 859.257343,797.112248 863.3,800.99 L863.3,800.97 Z" id="Path" fill="#1C1B19" fill-rule="nonzero" opacity="0.05"></path>
                <path d="M900.01,847.6 C900.01,847.6 861.17,785.84 870.74,729.6 C874.914987,706.054611 871.339368,681.79023 860.55,660.45 C855.343559,650.356898 849.221182,640.763276 842.26,631.79" id="Path" stroke="#1C1B19" stroke-width="2"></path>
                <path d="M848.06,596.32 C850.38,604.58 842.19,632.73 842.19,632.73 C842.19,632.73 820.49,613.01 818.19,604.73 C816.682339,599.388879 818.138657,593.649153 822.010373,589.67292 C825.882088,585.696687 831.580996,584.088032 836.960373,585.45292 C842.339749,586.817808 846.582339,590.948879 848.09,596.29 L848.06,596.32 Z" id="Path" fill="#FDE61D" fill-rule="nonzero"></path>
                <path d="M885.66,635.08 C883.13,643.27 860.95,662.45 860.95,662.45 C860.95,662.45 853.45,634.11 855.95,625.91 C858.482226,617.714094 867.179094,613.122774 875.375,615.655 C883.570906,618.187226 888.162226,626.884094 885.63,635.08 L885.66,635.08 Z" id="Path" fill="#FDE61D" fill-rule="nonzero"></path>
                <path d="M906.62,713.52 C900.3,719.31 871.47,724.67 871.47,724.67 C871.47,724.67 879.31,696.42 885.63,690.67 C891.95366,684.871011 901.78101,685.296341 907.579999,691.620001 C913.378989,697.943661 912.95366,707.77101 906.63,713.57 L906.62,713.52 Z" id="Path" fill="#FDE61D" fill-rule="nonzero"></path>
                <path d="M909.12,776.44 C903.87,783.22 876.36,793.37 876.36,793.37 C876.36,793.37 879.36,764.2 884.56,757.37 C887.90265,752.833327 893.440513,750.463309 899.030238,751.177228 C904.619963,751.891148 909.384375,755.576971 911.479475,760.808153 C913.574575,766.039335 912.671587,771.994964 909.12,776.37 L909.12,776.44 Z" id="Path" fill="#FDE61D" fill-rule="nonzero"></path>
                <path d="M830.02,672.89 C837.56,676.98 866.82,675.15 866.82,675.15 C866.82,675.15 852.34,649.66 844.82,645.58 C839.941538,642.936235 834.023222,643.095923 829.294423,645.998912 C824.565624,648.901901 821.74476,654.107158 821.894423,659.653912 C822.044086,665.200666 825.141538,670.246235 830.02,672.89 L830.02,672.89 Z" id="Path" fill="#FDE61D" fill-rule="nonzero"></path>
                <path d="M833.87,746.45 C842.29,748.09 869.67,737.6 869.67,737.6 C869.67,737.6 848.22,717.6 839.8,715.97 C834.295416,714.764724 828.569842,716.635741 824.839185,720.85893 C821.108527,725.08212 819.958196,730.994788 821.833389,736.308618 C823.708583,741.622447 828.31505,745.503602 833.87,746.45 Z" id="Path" fill="#FDE61D" fill-rule="nonzero"></path>
                <path d="M847.42,817.43 C855.42,820.43 884.2,814.74 884.2,814.74 C884.2,814.74 866.44,791.42 858.42,788.38 C850.555674,785.866168 842.099159,789.945221 839.171017,797.664869 C836.242875,805.384516 839.866841,814.045821 847.42,817.38 L847.42,817.43 Z" id="Path" fill="#FDE61D" fill-rule="nonzero"></path>
                <polygon id="Path" fill="url(#linearGradient-1)" fill-rule="nonzero" points="314.63 70.83 314.63 98.21 314.63 776.29 822.03 776.29 822.03 98.21 822.03 70.83"></polygon>
                <rect id="Rectangle" fill="#F6F7F9" fill-rule="nonzero" x="319.08" y="77.02" width="498.5" height="26.89"></rect>
                <g id="Group" opacity="0.2" transform="translate(319.000000, 77.000000)" fill="#1C1B19" fill-rule="nonzero">
                    <rect id="Rectangle" x="0.08" y="0.02" width="498.5" height="26.89"></rect>
                </g>
                <rect id="Rectangle" fill="#F6F7F9" fill-rule="nonzero" x="319.08" y="103.91" width="498.5" height="666.19"></rect>
                <circle id="Oval" fill="#F6F7F9" fill-rule="nonzero" cx="332.19" cy="90.47" r="4.56"></circle>
                <circle id="Oval" fill="#F6F7F9" fill-rule="nonzero" cx="344.55" cy="90.47" r="4.56"></circle>
                <circle id="Oval" fill="#F6F7F9" fill-rule="nonzero" cx="356.91" cy="90.47" r="4.56"></circle>
                <g id="Group" transform="translate(408.000000, 144.000000)" fill="#FDE61D" fill-rule="nonzero">
                    <rect id="Rectangle" x="0.05" y="0.98" width="320.55" height="12.55"></rect>
                </g>
                <rect id="Rectangle" fill="#1C1B19" fill-rule="nonzero" x="686.01" y="144.98" width="42.59" height="12.55"></rect>
                <g id="Group" transform="translate(366.000000, 216.000000)" fill="#FDE61D" fill-rule="nonzero">
                    <rect id="Rectangle" x="0.61" y="0.47" width="403.44" height="144.49"></rect>
                </g>
                <rect id="Rectangle" fill="#1C1B19" fill-rule="nonzero" x="479.83" y="269.13" width="232.71" height="12.55"></rect>
                <rect id="Rectangle" fill="#1C1B19" fill-rule="nonzero" x="479.83" y="295.75" width="120.73" height="12.55"></rect>
                <rect id="Rectangle" fill="#1C1B19" fill-rule="nonzero" x="686.01" y="333.77" width="42.59" height="12.55"></rect>
                <circle id="Oval" fill="#1C1B19" fill-rule="nonzero" cx="415.28" cy="288.71" r="22.81"></circle>
                <g id="Group" transform="translate(366.000000, 401.000000)" fill="#FDE61D" fill-rule="nonzero">
                    <rect id="Rectangle" x="0.61" y="0.46" width="403.44" height="144.49"></rect>
                </g>
                <rect id="Rectangle" fill="#1C1B19" fill-rule="nonzero" x="479.83" y="454.12" width="232.71" height="12.55"></rect>
                <rect id="Rectangle" fill="#1C1B19" fill-rule="nonzero" x="479.83" y="480.74" width="120.73" height="12.55"></rect>
                <rect id="Rectangle" fill="#1C1B19" fill-rule="nonzero" x="686.01" y="518.76" width="42.59" height="12.55"></rect>
                <circle id="Oval" fill="#1C1B19" fill-rule="nonzero" cx="415.28" cy="473.7" r="22.81"></circle>
                <g id="Group" transform="translate(366.000000, 586.000000)" fill="#FDE61D" fill-rule="nonzero">
                    <rect id="Rectangle" x="0.61" y="0.45" width="403.44" height="144.49"></rect>
                </g>
                <rect id="Rectangle" fill="#1C1B19" fill-rule="nonzero" x="479.83" y="639.11" width="232.71" height="12.55"></rect>
                <rect id="Rectangle" fill="#1C1B19" fill-rule="nonzero" x="479.83" y="665.73" width="120.73" height="12.55"></rect>
                <rect id="Rectangle" fill="#1C1B19" fill-rule="nonzero" x="686.01" y="703.75" width="42.59" height="12.55"></rect>
                <circle id="Oval" fill="#1C1B19" fill-rule="nonzero" cx="415.28" cy="658.69" r="22.81"></circle>
                <path d="M192.55,467.4 C188.68,485.01 181.7,506.71 181.7,506.71 C188.6,514.76 218.7,516.2 218.7,516.2 L218.75,516.14 L219.22,516.14 C219.43,517.25 219.67,518.32 219.96,519.34 C219.906667,520.346667 219.856667,521.366667 219.81,522.4 C219.380785,523.603905 219.233674,524.890275 219.38,526.16 C219.439008,526.443557 219.512437,526.723921 219.6,527 C218.88,542.94 218.37,559.94 218.81,569.76 C218.812752,572.541635 219.097541,575.315823 219.66,578.04 C220.180738,580.11888 220.475777,582.247854 220.54,584.39 C221.03,598.76 217.54,622.9 217.54,622.9 C217.54,622.9 217.63,623.23 217.68,623.4 C217.62,623.81 217.58,624.05 217.58,624.05 C217.88342,625.022687 218.05495,626.03169 218.09,627.05 C218.35,639.17 211.4,665.54 211.4,665.54 C211.4,665.54 205.78,706.09 206.58,721.54 C206.606016,722.773847 206.696137,724.005508 206.85,725.23 C208.57,738.08 210.85,773.96 210.85,773.96 C211.248782,774.551706 211.686411,775.116281 212.16,775.65 C211.96,776.45 211.72,777.26 211.46,778.06 C208.769755,786.147279 207.633119,794.670354 208.11,803.18 C208.18,804.18 208.26,805.27 208.36,806.37 C209.51,819.61 241.54,811.37 243.65,809.83 C244.37,809.3 243.86,804.5 242.87,798.41 L275.87,806.56 C275.87,806.56 299.27,810.02 310.4,806.56 C321.53,803.1 321.14,793.56 305.22,791.99 C294.07,790.91 285.22,780.53 280.85,774.4 C282.54,769.79 295.21,734.8 297.54,713.14 C299.047634,699.146816 301.516805,685.27402 304.93,671.62 L307.42,639.39 L311.84,620.39 L317.11,595.27 C323.06,576.85 324.88,546.06 324.88,546.06 L329.48,515.85 C330.120883,512.566715 330.478862,509.234493 330.55,505.89 C334.863507,506.774325 339.120939,507.912979 343.3,509.3 C350.5,503.7 340.3,449.74 340.3,449.74 C340.3,449.74 335.39,415.66 331.23,384.59 C340.76,383.16 351.09,385.4 351.09,385.4 L411.52,386.73 C412.775207,385.083706 413.860729,383.314709 414.76,381.45 L417.35,381.45 C417.67098,381.003195 417.923744,380.511149 418.1,379.99 L419.17,380.19 C423.098094,381.097914 426.960249,382.270592 430.73,383.7 C430.73,383.7 449.79,386 446.91,366.01 C444.77,351.11 427.81,356.52 419.33,360.22 L418.26,360.71 C418.18,360.15 418.13,359.83 418.13,359.83 L415.4,360.33 C415.23088,359.913901 415.040633,359.506704 414.83,359.11 C414.83,359.11 385.19,357.96 361.16,354.36 C344.07,351.8 331.16,342.03 325.09,336.61 C320.88,315.24 308.65,308.75 308.65,308.75 C301.86,308.41 295.74,305.42 291.98,303.11 C290.620819,302.298638 289.317866,301.396594 288.08,300.41 L287.42,300.79 L287.34,300.72 C291.41,296.94 295.63,293.47 299.34,290.56 L301.01,289.27 C312.854347,288.110286 323.421712,281.334435 329.418151,271.054542 C335.41459,260.774649 336.110887,248.240833 331.29,237.36 C331.13,237 330.94,236.64 330.77,236.29 C334.594036,235.866975 337.629285,232.877213 338.11,229.06 C338.48,224.87 335.59,220.41 337.48,216.65 C337.827171,216.092157 338.128172,215.506876 338.38,214.9 C338.536716,214.32732 338.584209,213.730254 338.52,213.14 C338.237681,209.556767 336.413218,206.272734 333.52,204.14 C329.23,201.03 325.42,202.61 320.73,202.34 C315.31,202.03 309.94,200.72 304.6,199.84 C298.47,198.84 292.19,198.16 286.07,199.23 C279.95,200.3 273.96,203.3 270.41,208.4 C268.89,210.58 267.86,213.07 266.41,215.32 C264.78,217.92 262.67,220.17 260.8,222.59 C257.65,226.66 255.1,231.54 255.35,236.68 C255.49,239.59 256.52,242.39 256.72,245.3 C256.72951,248.011444 256.52891,250.71955 256.12,253.4 C255.810544,256.85366 256.009326,260.334034 256.71,263.73 C256.850738,264.793402 257.256502,265.804373 257.89,266.67 C258.603772,267.434859 259.497582,268.008961 260.49,268.34 C261.527937,268.749513 262.59403,269.083712 263.68,269.34 C262.464874,272.167008 260.967271,274.864034 259.21,277.39 L257.59,275.71 L253.21,282.55 L253.04,282.09 C252.83,282.52 252.59,282.93 252.34,283.34 L251.89,282.09 C249.95,285.98 246.32,289.23 242.08,291.91 C230.62,299.11 214.63,302.09 214.63,302.09 C188.87,305.83 193.63,332.44 193.63,332.44 C193.63,332.44 182.7,379.92 179.63,409.27 C176.56,438.62 187.97,457.32 187.97,457.32 L192.55,467.4 Z M315.4,380.62 C316.4,383.89 317.28,386.99 318.03,389.7 L317.55,389.89 C317,387.38 316.25,384.16 315.43,380.62 L315.4,380.62 Z M287.06,300.95 L286.92,301.04 L287.05,300.91 L287.06,300.95 Z M242.63,797.08 C241.37,789.55 239.49,780.46 238.33,775.03 C239.15,772.36 240.24,768.28 241.52,762.21 C244.4,748.6 246.12,700.44 246.12,700.44 L252.84,659.98 C258.98,644.44 260.32,625.98 260.32,625.98 C262.79,619.46 268.5,579.55 269.41,573.14 C269.15,577.57 268.53,588.79 268.2,601.25 C268.2,601.36 268.2,601.48 268.2,601.59 C267.95,611 267.88,621.09 268.2,629.46 L268.2,629.46 C268.29,631.81 268.41,634.04 268.57,636.1 C268.62,636.63 268.65,637.18 268.67,637.72 C269.39,659.42 259.67,686.72 259.67,686.72 C259.67,686.72 255.34,706.96 255.98,718.27 C255.972443,720.301244 256.26218,722.32266 256.84,724.27 C257.126427,725.170705 257.291219,726.105645 257.33,727.05 C257.51,737.87 251.12,760.58 249.49,766.15 C245.93,773.49 243.28,792.2 242.63,797.08 Z" id="Shape" fill="url(#linearGradient-2)" fill-rule="nonzero"></path>
                <path d="M278.28,767.55 C278.28,767.55 289.5,787.89 305.28,789.41 C321.06,790.93 321.44,800.41 310.41,803.86 C299.38,807.31 276.19,803.86 276.19,803.86 L243.11,795.69 C243.11,795.69 247.11,762.99 252.42,761.28 C257.73,759.57 278.28,767.55 278.28,767.55 Z" id="Path" fill="#4C4C78" fill-rule="nonzero"></path>
                <path d="M237.97,767.89 C237.97,767.89 246.34,805.53 244.25,807.06 C242.16,808.59 210.41,816.75 209.25,803.63 C209.15,802.54 209.07,801.48 209.01,800.47 C208.528146,792.034583 209.654827,783.58448 212.33,775.57 C213.243667,773.115111 213.681466,770.508681 213.62,767.89 C213.07,762.61 237.97,767.89 237.97,767.89 Z" id="Path" fill="#4C4C78" fill-rule="nonzero"></path>
                <path d="M248.34,291.36 C248.34,291.36 274,354.36 269.44,334.16 C266.44,320.74 285.95,302.93 299.44,292.46 C306.31,287.12 311.63,283.69 311.63,283.69 C311.63,283.69 263.43,227.51 266.85,251.75 C267.786135,258.387805 266.876202,265.155214 264.22,271.31 C260.705105,279.227322 255.241842,286.125208 248.34,291.36 L248.34,291.36 Z" id="Path" fill="#FFB9B9" fill-rule="nonzero"></path>
                <path d="M412.32,380.89 C414.281664,380.618011 416.278014,380.743845 418.19,381.26 C422.08233,382.154648 425.908124,383.317422 429.64,384.74 C429.64,384.74 448.54,387.02 445.64,367.21 C443.52,352.43 426.72,357.79 418.31,361.47 C415.45,362.72 413.55,363.78 413.55,363.78 L412.32,380.89 Z" id="Path" fill="#FFB9B9" fill-rule="nonzero"></path>
                <path d="M412.32,380.89 C414.281664,380.618011 416.278014,380.743845 418.19,381.26 C420.24,376.07 418.68,363.78 418.35,361.47 C415.49,362.72 413.59,363.78 413.59,363.78 L412.32,380.89 Z" id="Path" fill="#000000" fill-rule="nonzero" opacity="0.1"></path>
                <path d="M412.22,362.02 L417.16,361.11 C417.16,361.11 419.7,378.11 416.39,382.55 L410.7,382.55 L412.22,362.02 Z" id="Path" fill="#CBCDDA" fill-rule="nonzero"></path>
                <path d="M313.07,393.01 C313.07,393.01 328.19,384.01 329.99,395.38 C331.79,406.75 334.18,426.28 334.18,426.28 L338.36,451.09 L343.78,500.81 L343.02,509.27 C343.02,509.27 326.95,503.89 323.15,505.75 C319.35,507.61 316.3,484.89 316.3,484.89 L310.03,461.31 L309.03,411.31 L313.07,393.01 Z" id="Path" fill="#4C4C78" fill-rule="nonzero"></path>
                <path d="M313.07,393.01 C313.07,393.01 328.19,384.01 329.99,395.38 C331.79,406.75 334.18,426.28 334.18,426.28 L338.36,451.09 L343.78,500.81 L343.02,509.27 C343.02,509.27 326.95,503.89 323.15,505.75 C319.35,507.61 316.3,484.89 316.3,484.89 L310.03,461.31 L309.03,411.31 L313.07,393.01 Z" id="Path" fill="#000000" fill-rule="nonzero" opacity="0.1"></path>
                <path d="M321.2,334.45 C321.2,334.45 336.89,352.13 360.7,355.7 C384.51,359.27 413.89,360.4 413.89,360.4 C413.89,360.4 421.3,373.66 410.61,387.78 L350.72,386.46 C350.72,386.46 337.46,383.58 327.19,386.46 L321.2,334.45 Z" id="Path" fill="#4C4C78" fill-rule="nonzero"></path>
                <path d="M321.2,334.45 C321.2,334.45 336.89,352.13 360.7,355.7 C384.51,359.27 413.89,360.4 413.89,360.4 C413.89,360.4 421.3,373.66 410.61,387.78 L350.72,386.46 C350.72,386.46 337.46,383.58 327.19,386.46 L321.2,334.45 Z" id="Path" fill="#000000" fill-rule="nonzero" opacity="0.05"></path>
                <g id="Group" transform="translate(0.550000, 0.890000)"></g>
                <path d="M266.78,270.76 C272.63,283.27 282.78,292.5 297.54,292.5 C298.19,292.5 298.82,292.5 299.46,292.5 C306.33,287.16 311.65,283.73 311.65,283.73 C311.65,283.73 263.45,227.55 266.87,251.79 C267.92,259.16 269.13,265.19 266.78,270.76 Z" id="Path" fill="#000000" fill-rule="nonzero" opacity="0.1"></path>
                <path d="M260.8,254.62 C260.794478,274.910941 277.239058,291.364475 297.529999,291.369997 C317.82094,291.37552 334.274474,274.93094 334.279997,254.639999 C334.28552,234.349058 317.840941,217.895524 297.55,217.89 C287.799437,217.866045 278.441041,221.727467 271.544455,228.6203 C264.647869,235.513133 260.781352,244.869426 260.8,254.62 L260.8,254.62 Z" id="Path" fill="#FFB9B9" fill-rule="nonzero"></path>
                <path d="M238.35,479.13 C238.35,479.13 320.29,486.36 323.35,475.9 C326.41,465.44 314.99,437.12 314.99,437.12 L318.65,397.57 L318.79,396.05 C318.79,396.05 308.55,353.27 308.89,349.89 C309.24,346.82 292.36,310.89 288.89,303.58 L288.26,302.26 L287.61,302.64 L287.33,302.81 L283.33,305.15 L267.46,301.41 L248.36,291.41 L246.55,400.81 L238.35,479.13 Z" id="Path" fill="#CBCDDA" fill-rule="nonzero"></path>
                <path d="M280.94,303.55 C280.94,303.55 286.55,302.03 288.74,307.64 C289.584645,310.036896 290.58683,312.375329 291.74,314.64 L293.93,327.64 L297.93,348.17 L300.87,439.17 L299.55,455.37 L292.23,442.37 L290.9,357.37 L290.9,346.77 C290.468156,337.623555 288.402229,328.628307 284.8,320.21 L283.8,317.82 L277.43,309.65 L280.94,303.55 Z" id="Path" fill="#000000" fill-rule="nonzero" opacity="0.1"></path>
                <path d="M282.08,302.41 C282.08,302.41 287.69,300.89 289.88,306.5 C290.724645,308.896896 291.72683,311.235329 292.88,313.5 L295.07,326.5 L299.07,347.03 L302.02,438.03 L300.68,454.19 L293.36,441.19 L292.03,356.19 L292.03,345.59 C291.601542,336.444141 289.538999,327.448879 285.94,319.03 L284.94,316.64 L278.55,308.5 L282.08,302.41 Z" id="Path" fill="#4C4C78" fill-rule="nonzero"></path>
                <path d="M258.13,278.89 C258.13,278.89 277.52,299.43 284.36,301.89 C284.36,301.89 280.94,317.48 277.52,320.52 C277.52,320.52 257.17,299.77 253.52,298.09 L250.52,290.7 L258.13,278.89 Z" id="Path" fill="#000000" fill-rule="nonzero" opacity="0.1"></path>
                <path d="M258.13,277.79 C258.13,277.79 277.52,298.33 284.36,300.79 C284.36,300.79 280.94,316.38 277.52,319.42 C277.52,319.42 257.17,298.67 253.52,296.99 L250.52,289.6 L258.13,277.79 Z" id="Path" fill="#CBCDDA" fill-rule="nonzero"></path>
                <path d="M287.13,302.24 L287.33,302.77 L293.55,319.43 L304.65,350.89 C304.65,350.89 304.76,351.21 304.95,351.81 C306.79,357.53 316.69,388.58 318.64,397.61 L318.78,396.09 C318.78,396.09 308.55,353.27 308.89,349.89 C309.24,346.82 292.36,310.89 288.89,303.58 C288.34,303.2 287.89,302.88 287.61,302.64 L287.13,302.24 Z" id="Path" fill="#000000" fill-rule="nonzero" opacity="0.1"></path>
                <path d="M288.26,302.22 L294.68,319.43 L305.79,350.89 C305.79,350.89 305.9,351.21 306.09,351.81 C308.04,357.91 319.15,392.71 320.09,399.08 C321.09,406.08 335.09,443.86 335.09,443.86 L343.09,509.31 C350.22,503.75 340.09,450.31 340.09,450.31 C340.09,450.31 328.68,371.03 325.98,344.66 C323.28,318.29 308.65,310.49 308.65,310.49 C301.92,310.15 295.86,307.19 292.13,304.9 C290.781774,304.09382 289.488897,303.198495 288.26,302.22 Z" id="Path" fill="#4C4C78" fill-rule="nonzero"></path>
                <path d="M207.75,723.25 C209.46,735.99 211.75,771.55 211.75,771.55 C219.75,783.55 237.42,777.06 237.42,777.06 C237.42,777.06 239.31,773.44 242.16,759.94 C245.01,746.44 246.73,698.72 246.73,698.72 L253.39,658.61 C259.47,643.21 260.8,624.96 260.8,624.96 C263.46,617.96 269.93,571.72 269.93,571.72 C269.93,571.72 267.26,613.17 268.93,635.03 C270.6,656.89 260.19,686.37 260.19,686.37 C260.19,686.37 254.29,713.94 257.34,722.49 C260.39,731.04 249.73,766.41 249.73,766.41 C250.68,776.68 280.91,772.49 280.91,772.49 C280.91,772.49 295.17,734.28 297.64,711.27 C299.13546,697.397985 301.584589,683.645442 304.97,670.11 L307.43,638.17 L311.81,619.35 L317.04,594.45 C322.93,576.19 324.74,545.68 324.74,545.68 L329.3,515.74 C332.3,500.93 328.43,483.57 325.83,474.45 C324.71,470.52 323.83,468.11 323.83,468.11 C321.21,469.97 306.21,472.11 298.45,473.92 C294.190017,474.894737 289.808943,475.231743 285.45,474.92 C265.839731,473.370909 246.439016,469.822489 227.55,464.33 L225.55,463.73 L225.15,467.15 L224.21,475.31 L222.55,489.78 C222.55,489.78 217.41,566.97 220.45,577.43 C223.49,587.89 218.36,623.02 218.36,623.02 C221.21,631.36 212.28,665.26 212.28,665.26 C212.28,665.26 206.04,710.52 207.75,723.25 Z" id="Path" fill="#000000" fill-rule="nonzero" opacity="0.1"></path>
                <path d="M207.75,722.11 C209.46,734.85 211.75,770.41 211.75,770.41 C219.75,782.41 237.42,775.92 237.42,775.92 C237.42,775.92 239.31,772.3 242.16,758.8 C245.01,745.3 246.73,697.58 246.73,697.58 L253.39,657.47 C259.47,642.07 260.8,623.82 260.8,623.82 C263.46,616.82 269.93,570.58 269.93,570.58 C269.93,570.58 267.26,612.03 268.93,633.89 C270.6,655.75 260.19,685.23 260.19,685.23 C260.19,685.23 254.29,712.8 257.34,721.35 C260.39,729.9 249.73,765.27 249.73,765.27 C250.68,775.54 280.91,771.35 280.91,771.35 C280.91,771.35 295.17,733.14 297.64,710.13 C299.13546,696.257985 301.584589,682.505442 304.97,668.97 L307.43,637.03 L311.81,618.21 L317.04,593.31 C322.93,575.05 324.74,544.54 324.74,544.54 L329.3,514.59 C332.3,499.79 328.43,482.43 325.83,473.31 C324.71,469.38 323.83,466.97 323.83,466.97 C321.21,468.83 306.21,470.97 298.45,472.78 C294.190017,473.754737 289.808943,474.091743 285.45,473.78 C265.839731,472.230909 246.439016,468.682489 227.55,463.19 L225.55,462.59 L225.15,466.01 L224.21,474.17 L222.55,488.64 C222.55,488.64 217.41,565.83 220.45,576.29 C223.49,586.75 218.39,621.89 218.39,621.89 C221.24,630.23 212.31,664.13 212.31,664.13 C212.31,664.13 206.04,709.38 207.75,722.11 Z" id="Path" fill="#1C1B19" fill-rule="nonzero"></path>
                <path d="M260.8,254.62 C260.797887,261.031066 262.477072,267.330595 265.67,272.89 C271.39,273.89 277.48,272.79 281.81,269 C284.74,266.42 286.63,262.89 289.15,259.9 C290.778736,258.0546 292.532905,256.32382 294.4,254.72 C295.613165,253.50794 297.010434,252.495426 298.54,251.72 C300.105482,250.918811 301.955743,250.896607 303.54,251.66 C305.54,252.79 306.26,255.3 307.4,257.31 C308.281816,259.027136 309.788623,260.340671 311.61,260.98 C313.471284,261.564995 315.496764,260.872281 316.61,259.27 C317.85,257.13 316.94,253.79 319.03,252.49 C319.579146,252.218994 320.147319,251.988383 320.73,251.8 C323.42,250.58 323.73,246.97 323.95,244.03 C324.07,242.58 324.38,240.94 325.6,240.16 C326.82,239.38 328.41,239.77 329.86,239.81 C330.289374,239.81925 330.7185,239.782371 331.14,239.7 C324.106932,223.828087 306.924106,215.045165 289.940226,218.640928 C272.956346,222.23669 260.80726,237.229652 260.81,254.59 L260.8,254.62 Z" id="Path" fill="#000000" fill-rule="nonzero" opacity="0.1"></path>
                <path d="M333.34,206.89 C336.203459,208.988769 338.010652,212.230763 338.29,215.77 C338.357639,216.356307 338.313527,216.950122 338.16,217.52 C337.907414,218.12151 337.609906,218.703153 337.27,219.26 C335.39,222.98 338.27,227.4 337.89,231.56 C337.390907,235.615505 333.97567,238.680681 329.89,238.74 C328.44,238.74 326.89,238.31 325.63,239.09 C324.37,239.87 324.1,241.51 323.98,242.96 C323.75,245.91 323.45,249.52 320.76,250.73 C320.178719,250.926129 319.610847,251.159958 319.06,251.43 C316.97,252.73 317.89,256.08 316.64,258.2 C315.531568,259.808706 313.503531,260.506351 311.64,259.92 C309.820704,259.277101 308.315069,257.964587 307.43,256.25 C306.28,254.25 305.59,251.73 303.57,250.6 C301.986265,249.838121 300.138182,249.856602 298.57,250.65 C297.040784,251.426 295.643601,252.438452 294.43,253.65 C292.565311,255.256432 290.811315,256.987041 289.18,258.83 C286.66,261.83 284.77,265.35 281.83,267.93 C276.31,272.78 267.83,273.26 261.03,270.5 C260.048442,270.168357 259.162766,269.601936 258.45,268.85 C257.808543,267.979331 257.395932,266.961557 257.25,265.89 C256.559226,262.523152 256.36049,259.073906 256.66,255.65 C257.066989,253.002909 257.267593,250.328185 257.26,247.65 C257.07,244.77 256.04,241.99 255.9,239.11 C255.65,234.02 258.18,229.18 261.3,225.11 C263.16,222.71 265.25,220.48 266.86,217.91 C268.26,215.68 269.28,213.21 270.79,211.05 C274.31,206.05 280.25,203.05 286.31,201.96 C292.37,200.87 298.6,201.56 304.68,202.56 C309.97,203.44 315.29,204.73 320.68,205.04 C325.31,205.32 329.09,203.75 333.34,206.89 Z" id="Path" fill="#472727" fill-rule="nonzero"></path>
                <path d="M288.26,302.22 L294.68,319.43 L305.79,350.89 C305.79,350.89 305.9,351.21 306.09,351.81 L306.09,351.81 L292.09,304.9 C290.75549,304.09232 289.476015,303.197022 288.26,302.22 L288.26,302.22 Z" id="Path" fill="#000000" fill-rule="nonzero" opacity="0.1"></path>
                <path d="M218.87,499.1 C218.87,499.1 218.2,519.91 223.81,525.1 L238.73,496.96 L226.19,490.89 L218.87,499.1 Z" id="Path" fill="#FFB9B9" fill-rule="nonzero"></path>
                <path d="M184.03,506.7 C190.88,514.7 220.67,516.11 220.67,516.11 L250.2,469.63 C250.2,469.63 257.2,464.78 270.29,442.96 C283.38,421.14 282.98,404.32 282.29,391.77 C281.6,379.22 273.29,343.14 273.29,343.14 C272.02,335.02 253.63,284.14 253.63,284.14 C251.7,288 248.11,291.21 243.9,293.87 C232.55,300.98 216.68,303.89 216.68,303.89 C191.15,307.6 195.86,333.98 195.86,333.98 C195.86,333.98 195.55,436.55 197.15,448.81 C198.75,461.07 184.03,506.7 184.03,506.7 Z" id="Path" fill="#000000" fill-rule="nonzero" opacity="0.1"></path>
                <polygon id="Path" fill="#CBCDDA" fill-rule="nonzero" points="218.49 503.09 219.34 510.69 229.71 506.89 237.31 495.39 231.61 490.92"></polygon>
                <path d="M218.85,473.62 L224.27,474.17 L276.55,479.39 C284.937883,480.232514 293.404552,479.817944 301.67,478.16 L325.9,473.31 C324.78,469.38 323.9,466.97 323.9,466.97 C321.28,468.83 306.28,470.97 298.52,472.78 C294.260017,473.754737 289.878943,474.091743 285.52,473.78 C265.886153,472.235636 246.461745,468.687172 227.55,463.19 L225.19,466.01 L218.85,473.62 Z" id="Path" fill="#000000" fill-rule="nonzero" opacity="0.1"></path>
                <g id="Group" opacity="0.1" transform="translate(207.000000, 462.000000)" fill="#000000" fill-rule="nonzero">
                    <path d="M116.3,5.26 C116.475083,5.17256023 116.64533,5.07575333 116.81,4.97 L116.86,5.11 L116.3,5.26 Z" id="Path"></path>
                    <path d="M5.26,202.12 C5.26,202.12 14.2,168.22 11.34,159.88 C11.34,159.88 16.48,124.75 13.43,114.29 C10.38,103.83 15.53,26.64 15.53,26.64 L17.22,12.17 L18.22,4.01 L18.62,0.59 C18.62,0.59 19.3,0.81 20.62,1.19 L21.83,1.55 L21.55,2.89 L20.6,11.05 L18.91,25.52 C18.91,25.52 13.78,102.7 16.81,113.17 C19.84,123.64 14.73,158.76 14.73,158.76 C17.58,167.1 8.65,201 8.65,201 C8.65,201 2.37,246.26 4.08,259 C5.79,271.74 8.08,307.29 8.08,307.29 C13.91,316.05 24.92,314.95 30.42,313.72 C30.36,313.87 30.32,313.95 30.32,313.95 C30.32,313.95 12.64,320.41 4.65,308.44 C4.65,308.44 2.37,272.88 0.65,260.14 C-1.07,247.4 5.26,202.12 5.26,202.12 Z" id="Path"></path>
                    <path d="M50.32,259.35 C47.32,250.8 53.18,223.23 53.18,223.23 C53.18,223.23 63.62,193.76 61.91,171.89 C61.2,162.78 61.25,150.28 61.55,138.79 C63.98,123.99 66.29,107.44 66.29,107.44 C66.29,107.44 63.62,148.88 65.34,170.75 C67.06,192.62 56.6,222.09 56.6,222.09 C56.6,222.09 50.7,249.66 53.75,258.21 C56.8,266.76 46.14,302.13 46.14,302.13 C46.9,310.36 66.44,309.31 74.14,308.56 L73.85,309.35 C73.85,309.35 43.62,313.54 42.68,303.27 C42.72,303.27 53.36,267.89 50.32,259.35 Z" id="Path"></path>
                </g>
                <path d="M182.89,506.7 C189.74,514.7 219.53,516.11 219.53,516.11 L249.05,469.63 C249.05,469.63 256.05,464.78 269.15,442.96 C282.25,421.14 281.84,404.32 281.15,391.77 C280.46,379.22 272.15,343.14 272.15,343.14 C270.88,335.02 252.49,284.14 252.49,284.14 C250.56,288 246.97,291.21 242.76,293.87 C231.4,300.98 215.55,303.89 215.55,303.89 C190.02,307.6 194.73,333.98 194.73,333.98 C194.73,333.98 194.45,436.51 196.02,448.77 C197.59,461.03 182.89,506.7 182.89,506.7 Z" id="Path" fill="#4C4C78" fill-rule="nonzero"></path>
                <path d="M247.05,309.35 L253.47,311.77 L249.19,314.77 L281.11,391.77 C280.37,379.22 272.11,343.14 272.11,343.14 C270.84,335.02 252.45,284.14 252.45,284.14 C250.52,288 246.93,291.21 242.72,293.87 L247.05,309.35 Z" id="Path" fill="#000000" fill-rule="nonzero" opacity="0.1"></path>
                <polygon id="Path" fill="#000000" fill-rule="nonzero" opacity="0.1" points="239.36 446.52 206.7 438.11 202.42 451.37 235.79 459.5"></polygon>
                <path d="M220.67,314.77 C220.67,314.77 235.5,328.77 229.94,359.83 C224.38,390.89 215.4,424.71 215.4,424.71 L239.55,491.59 C239.55,491.59 222.72,509.13 214.45,511.26 L190.35,457.79 C190.35,457.79 179.09,439.25 182.08,410.17 C185.07,381.09 195.91,334.02 195.91,334.02 C195.91,334.02 195.86,305.36 220.67,314.77 Z" id="Path" fill="#000000" fill-rule="nonzero" opacity="0.1"></path>
                <path d="M219.55,314.77 C219.55,314.77 234.38,328.77 228.82,359.83 C223.26,390.89 214.28,424.71 214.28,424.71 L238.35,491.59 C238.35,491.59 221.55,509.13 213.26,511.26 L189.16,457.79 C189.16,457.79 177.9,439.25 180.89,410.17 C183.88,381.09 194.72,334.02 194.72,334.02 C194.72,334.02 194.72,305.36 219.55,314.77 Z" id="Path" fill="#4C4C78" fill-rule="nonzero"></path>
                <path d="M237.55,493.01 C237.55,493.01 218.73,519.01 220.16,526.01 C221.59,533.01 227.1,529.24 227.1,529.24 L234.55,519.06 L241.21,500.06 C241.21,500.06 240.55,491.89 237.55,493.01 Z" id="Path" fill="#000000" fill-rule="nonzero" opacity="0.1"></path>
                <path d="M239.88,493.01 C239.88,493.01 221.05,519.01 222.48,526.01 C223.91,533.01 229.42,529.24 229.42,529.24 L236.83,519.07 L243.49,500.07 C243.49,500.07 242.84,491.89 239.88,493.01 Z" id="Path" fill="#000000" fill-rule="nonzero" opacity="0.1"></path>
                <path d="M238.73,493.01 C238.73,493.01 219.91,519.01 221.34,526.01 C222.77,533.01 228.28,529.24 228.28,529.24 L235.69,519.07 L242.35,500.07 C242.35,500.07 241.7,491.89 238.73,493.01 Z" id="Path" fill="#474463" fill-rule="nonzero"></path>
            </g>
        </g>
    </g>
</svg>