<?xml version="1.0" encoding="UTF-8"?>
<svg width="126px" height="38px" viewBox="0 0 126 38" version="1.1" xmlns="http://www.w3.org/2000/svg" xmlns:xlink="http://www.w3.org/1999/xlink">
    <!-- Generator: Sketch 53.1 (72631) - https://sketchapp.com -->
    <title>ic_playstore</title>
    <desc>Created with Sketch.</desc>
    <defs>
        <rect id="path-1" x="0" y="0" width="126" height="37.9305704" rx="3.80453199"></rect>
        <linearGradient x1="50%" y1="0%" x2="50%" y2="38.9125982%" id="linearGradient-2">
            <stop stop-color="#FBDA09" offset="0%"></stop>
            <stop stop-color="#FFBC00" offset="100%"></stop>
        </linearGradient>
        <path d="M9.64696117,2.20702383 C10.3008529,1.05192302 11.359968,1.05003598 12.014947,2.20702383 L22.7288928,21.1326772 C23.3828035,22.287778 22.8384834,23.2241722 21.5217032,23.2241722 L0.140550503,23.2241722 C-1.18007263,23.2241722 -1.72163347,22.289665 -1.0666735,21.1326772 L9.64696117,2.20702383 Z" id="path-3"></path>
        <linearGradient x1="37.9822366%" y1="58.4755255%" x2="54.6404155%" y2="39.0830098%" id="linearGradient-5">
            <stop stop-color="#01E2FF" offset="0%"></stop>
            <stop stop-color="#01C4FF" offset="100%"></stop>
        </linearGradient>
        <linearGradient x1="20.2810876%" y1="31.7505775%" x2="83.820166%" y2="70.5221688%" id="linearGradient-6">
            <stop stop-color="#28D781" offset="0%"></stop>
            <stop stop-color="#02F076" offset="100%"></stop>
        </linearGradient>
        <linearGradient x1="74.4881466%" y1="34.5932435%" x2="10.1079427%" y2="69.4814666%" id="linearGradient-7">
            <stop stop-color="#F2414E" offset="0%"></stop>
            <stop stop-color="#E02554" offset="100%"></stop>
        </linearGradient>
    </defs>
    <g id="Page-1" stroke="none" stroke-width="1" fill="none" fill-rule="evenodd">
        <g id="ic_playstore">
            <g id="background" stroke-linejoin="square">
                <rect stroke="#A6A6A6" stroke-width="0.760906398" fill="#000000" fill-rule="evenodd" x="0.380453199" y="0.380453199" width="125.239094" height="37.169664" rx="3.80453199"></rect>
                <rect stroke="#8F8F8F" stroke-width="0.5" x="0.25" y="0.25" width="125.5" height="37.4305704" rx="3.80453199"></rect>
            </g>
            <g id="get-it-on" transform="translate(38.638870, 6.390909)" fill="#FFFFFF">
                <path d="M28.131809,6.21818182 C26.4470991,6.21818182 25.0813719,4.8261944 25.0813719,3.10909091 C25.0813719,1.39198741 26.4470991,0 28.131809,0 C29.8165189,0 31.1822461,1.39198741 31.1822461,3.10909091 C31.1822461,4.8261944 29.8165189,6.21818182 28.131809,6.21818182 Z M28.131809,5.26818182 C29.3017464,5.26818182 30.2501681,4.30152389 30.2501681,3.10909091 C30.2501681,1.91665793 29.3017464,0.95 28.131809,0.95 C26.9618716,0.95 26.0134499,1.91665793 26.0134499,3.10909091 C26.0134499,4.30152389 26.9618716,5.26818182 28.131809,5.26818182 Z" id="o"></path>
                <path d="M7.45662408,3.45454545 L7.45662408,5.35454545 L9.91392065,5.35454545 L9.91392065,6.04545455 L7.45662408,6.04545455 L6.52454607,6.04545455 L6.52454607,0.345454545 L6.52454607,0.259090909 L9.91392065,0.259090909 L9.91392065,0.95 L7.45662408,0.95 L7.45662408,2.76363636 L9.65971755,2.76363636 L9.65971755,3.45454545 L7.45662408,3.45454545 Z" id="e"></path>
                <path d="M13.2185609,0.95 L13.2185609,6.04545455 L12.2864829,6.04545455 L12.2864829,0.95 L10.8459987,0.95 L10.8459987,0.259090909 L14.6590451,0.259090909 L14.6590451,0.95 L13.2185609,0.95 Z" id="t"></path>
                <path d="M21.5225286,0.95 L21.5225286,6.04545455 L20.5904506,6.04545455 L20.5904506,0.95 L19.1499664,0.95 L19.1499664,0.259090909 L22.9630128,0.259090909 L22.9630128,0.95 L21.5225286,0.95 Z" id="t"></path>
                <rect id="i" x="17.3705447" y="0.259090909" width="1" height="5.78636364"></rect>
                <path d="M32.8769334,0.259090909 L33.0464022,0.259090909 L35.5884331,4.49301552 L35.5884331,0.259090909 L36.5205111,0.259090909 L36.5205111,6.04545455 L35.5884331,6.04545455 L32.8769334,1.52926829 L32.8769334,6.04545455 L31.9448554,6.04545455 L31.9448554,0.259090909 L32.8769334,0.259090909 Z" id="n"></path>
                <g id="g" transform="translate(0.000000, 0.086364)">
                    <polygon id="Rectangle-1" points="3.03207195 2.77832779 5.58406584 2.77832779 5.55879857 3.60153603 3.03207195 3.60153603"></polygon>
                    <path d="M5.08187429,0.841400208 L4.49790662,1.43595279 C4.13366846,1.05679282 3.61634165,0.848933492 3.01943832,0.848933492 C1.82630926,0.848933492 0.859087052,1.83368744 0.859087052,3.048443 C0.859087052,4.26319855 1.82630926,5.2479525 3.01943832,5.2479525 C4.21256737,5.2479525 5.05967136,4.54568312 5.05789476,3.048443 C5.05991271,2.95591453 5.05779636,2.86584608 5.05172697,2.77832779 L5.79718081,2.77832779 C5.79726539,2.7885068 5.79730775,2.7987065 5.79730775,2.80892678 C6.07771518,4.90523379 4.67543126,6.1123111 2.99417105,6.09688599 C1.34053763,6.09447191 0,4.73205157 0,3.048443 C0,1.36483442 1.34053604,0 2.99417105,0 C3.85853407,0 4.58515761,0.307459831 5.08187429,0.841400208 Z" id="Oval-1"></path>
                </g>
            </g>
            <g id="googleplay" transform="translate(38.215198, 16.581818)" fill="#FFFFFF">
                <g id="big-P" transform="translate(52.874243, 0.431818)">
                    <path d="M0.423671822,3.03537244e-07 L5.22750813,0 C5.22750813,0 7.99294427,0.479554332 7.99294406,3.71620988 C7.99294384,6.95286544 5.22750813,7.43241977 5.22750813,7.43241977 L0.423671822,7.43242007 L0.423671822,3.03537244e-07 Z M1.35574983,1.79782428 L1.35574983,5.78636364 L4.61682862,5.78636364 C4.61682862,5.78636364 6.10087424,5.78636364 6.10087424,3.79209396 C6.10087424,1.79782428 4.61682862,1.79782428 4.61682862,1.79782428 L1.35574983,1.79782428 Z" id="Combined-Shape"></path>
                    <rect id="Rectangle-6" x="0" y="0" width="1.69468729" height="12.0909091"></rect>
                </g>
                <rect id="y" x="61.8560861" y="0.431818182" width="1.69468729" height="12.0909091"></rect>
                <path d="M69.8319639,11.6582388 C69.3651873,12.050769 68.6189286,12.4202051 67.4402869,12.4952326 C64.7400825,12.6671166 64.7386756,10.1557394 64.7386756,9.98638583 C64.7386756,9.8170323 64.6054921,7.76897417 66.7534337,7.44342374 C68.2743878,7.212902 69.3396536,7.59699553 69.8319639,7.84087253 L69.8319639,7.48562038 C69.7112359,7.01512615 69.336587,6.15062589 68.2134052,6.15062589 C66.6703204,6.15062589 66.3295551,7.00093661 66.3295551,7.00093661 L64.91795,6.15062589 C64.91795,6.15062589 65.7078587,4.49090909 68.0780288,4.49090909 C71.0251054,4.49090909 71.5268271,6.56271917 71.5268271,7.26050193 C71.5268271,7.26389841 71.5267682,7.26727292 71.5266512,7.2706256 L71.5266512,12.5188477 L69.8319639,12.5188477 L69.8319639,11.6582388 Z M69.710903,9.06843484 C69.710903,9.06843484 66.4460648,8.17152661 66.3325754,10.0409113 C66.2190859,11.910296 69.4647266,11.0126709 69.7547183,9.68748668 C69.7547183,9.26608441 69.710903,9.06843484 69.710903,9.06843484 Z" id="a"></path>
                <path d="M74.7066165,12.0639999 L71.6852724,4.75 L73.3799597,4.75 L75.5539601,10.0127701 L77.7106801,4.79183239 L79.4053674,4.79183239 L74.8204438,15.8909091 L73.1257566,15.8909091 L74.7066165,12.0639999 Z" id="y"></path>
                <path d="M49.0802917,7.57630667 L43.7205072,9.83398107 C43.7205072,9.83398107 44.0666618,11.0826972 45.6781195,11.0910667 C46.9399509,11.0976202 47.652262,9.95112751 47.652262,9.95112751 L49.0121113,10.8897654 C49.0121113,10.8897654 47.9147875,12.6985966 45.6674084,12.6985966 C42.9056894,12.6985966 41.6893073,10.2372644 41.6893073,8.63879405 C41.6893073,7.09870912 42.6548018,4.49090909 45.4960304,4.49090909 C48.337259,4.49090909 49.0802917,7.57630667 49.0802917,7.57630667 Z M47.041007,6.93674048 C47.041007,6.93674048 46.3666717,5.89102842 45.3324798,6.08388083 C43.1448358,6.49182488 43.4201322,8.44304375 43.4201322,8.44304375 L47.041007,6.93674048 Z" id="e"></path>
                <rect id="i" x="39.1472764" y="0.431818182" width="1.79287733" height="12.065508"></rect>
                <path d="M36.278162,4.75313179 L37.9355024,4.76772472 L37.9355024,12.3806904 C37.9355024,14.3257823 36.7992993,16.3790133 34.1244022,16.3790133 C31.449505,16.3790133 30.5856117,13.9634505 30.5856117,13.9634505 L32.1077242,13.3110018 C32.1077242,13.3110018 32.5719587,14.7997115 34.2034997,14.7997096 C36.0614677,14.7997073 36.278368,13.076866 36.278368,12.4871325 L36.278368,11.6609493 C36.278368,11.6609493 35.6354946,12.6864629 34.0387132,12.6864652 C32.3074763,12.6864676 30.2501681,11.1746633 30.2501681,8.59733671 C30.2501681,6.02001013 32.1873881,4.54580824 34.058745,4.49218376 C35.5576847,4.44923104 36.278162,5.50608857 36.278162,5.50608857 L36.278162,4.75313179 Z M34.1802236,11.1394198 C35.3888242,11.1394198 36.3685886,10.0110205 36.3685886,8.61906928 C36.3685886,7.2271181 35.3888242,6.09871872 34.1802236,6.09871872 C32.971623,6.09871872 31.9918586,7.2271181 31.9918586,8.61906928 C31.9918586,10.0110205 32.971623,11.1394198 34.1802236,11.1394198 Z" id="g"></path>
                <path d="M25.4717682,12.6954545 C23.2438659,12.6954545 21.4377942,10.8588045 21.4377942,8.59318182 C21.4377942,6.32755915 23.2438659,4.49090909 25.4717682,4.49090909 C27.6996705,4.49090909 29.5057422,6.32755915 29.5057422,8.59318182 C29.5057422,10.8588045 27.6996705,12.6954545 25.4717682,12.6954545 Z M25.4454024,11.0867201 C26.6976873,11.0867201 27.7128649,9.97032501 27.7128649,8.59318182 C27.7128649,7.21603863 26.6976873,6.09964349 25.4454024,6.09964349 C24.1931174,6.09964349 23.1779399,7.21603863 23.1779399,8.59318182 C23.1779399,9.97032501 24.1931174,11.0867201 25.4454024,11.0867201 Z" id="o"></path>
                <path d="M16.7441287,12.6954545 C14.5162263,12.6954545 12.7101547,10.8588045 12.7101547,8.59318182 C12.7101547,6.32755915 14.5162263,4.49090909 16.7441287,4.49090909 C18.972031,4.49090909 20.7781026,6.32755915 20.7781026,8.59318182 C20.7781026,10.8588045 18.972031,12.6954545 16.7441287,12.6954545 Z M16.7177628,11.0867201 C17.9700478,11.0867201 18.9852253,9.97032501 18.9852253,8.59318182 C18.9852253,7.21603863 17.9700478,6.09964349 16.7177628,6.09964349 C15.4654779,6.09964349 14.4503003,7.21603863 14.4503003,8.59318182 C14.4503003,9.97032501 15.4654779,11.0867201 16.7177628,11.0867201 Z" id="o"></path>
                <g id="big-g">
                    <polygon id="Rectangle-1" points="6.32780233 5.79144385 11.6537026 5.79144385 11.6009709 7.50742721 6.32780233 7.50742721"></polygon>
                    <path d="M10.6056507,1.75390466 L9.38693556,2.99325371 C8.62678635,2.20289207 7.54714779,1.76960784 6.30143648,1.76960784 C3.81142802,1.76960784 1.79287733,3.82233438 1.79287733,6.35450089 C1.79287733,8.8866674 3.81142802,10.9393939 6.30143648,10.9393939 C8.79144495,10.9393939 10.5593141,9.47550847 10.5556065,6.35450089 C10.5598178,6.16162466 10.5554011,5.97387635 10.5427346,5.79144385 L12.0984643,5.79144385 C12.0986408,5.81266206 12.0987292,5.83392341 12.0987292,5.85522766 C12.6839273,10.2249944 9.75742175,12.7411555 6.2487048,12.7090018 C2.79764376,12.7039696 0,9.86399483 0,6.35450089 C0,2.84500696 2.79764043,0 6.2487048,0 C8.05259284,0 9.56902457,0.640902182 10.6056507,1.75390466 Z" id="Oval-1"></path>
                </g>
            </g>
            <g id="logo_play" transform="translate(9.236046, 6.640404)">
                <mask id="mask-4" fill="white">
                    <use xlink:href="#path-3"></use>
                </mask>
                <use id="Mask" fill="url(#linearGradient-2)" transform="translate(10.830543, 12.282081) rotate(-270.000000) translate(-10.830543, -12.282081) " xlink:href="#path-3"></use>
                <polygon id="blue" fill="url(#linearGradient-5)" mask="url(#mask-4)" points="-2.44249065e-15 0.0874431815 11.8447494 12.0864054 -0.152992603 24.5596254"></polygon>
                <polygon id="green" fill="url(#linearGradient-6)" mask="url(#mask-4)" points="-2.43572069 -2.38271613 11.8433437 12.0899151 16.0886759 7.96206568"></polygon>
                <polygon id="red" fill="url(#linearGradient-7)" mask="url(#mask-4)" points="11.8452888 12.0871539 18.3444669 18.763981 -1.07120974 25.4408081"></polygon>
            </g>
        </g>
    </g>
</svg>