<?xml version="1.0" encoding="UTF-8"?>
<svg width="974px" height="715px" viewBox="0 0 974 715" version="1.1" xmlns="http://www.w3.org/2000/svg" xmlns:xlink="http://www.w3.org/1999/xlink">
    <!-- Generator: Sketch 53.1 (72631) - https://sketchapp.com -->
    <title>Хороший доход Copy</title>
    <desc>Created with Sketch.</desc>
    <defs>
        <linearGradient x1="50%" y1="100%" x2="50%" y2="1.60072707e-14%" id="linearGradient-1">
            <stop stop-color="#808080" stop-opacity="0.25" offset="0%"></stop>
            <stop stop-color="#808080" stop-opacity="0.12" offset="54%"></stop>
            <stop stop-color="#808080" stop-opacity="0.1" offset="100%"></stop>
        </linearGradient>
        <linearGradient x1="50.0156877%" y1="99.993948%" x2="50.0156877%" y2="0.00749273884%" id="linearGradient-2">
            <stop stop-color="#808080" stop-opacity="0.25" offset="0%"></stop>
            <stop stop-color="#808080" stop-opacity="0.12" offset="54%"></stop>
            <stop stop-color="#808080" stop-opacity="0.1" offset="100%"></stop>
        </linearGradient>
    </defs>
    <g id="Page-1" stroke="none" stroke-width="1" fill="none" fill-rule="evenodd">
        <g id="Artboard" transform="translate(-1005.000000, -2896.000000)">
            <g id="Хороший-доход-Copy" transform="translate(1005.000000, 2895.000000)">
                <path d="M128.9,363 C116.09,366.87 104.1,376.24 100.9,389.24 C97.24,404.18 105.68,419.24 106.9,434.58 C110.84,484.84 39.34,520.3 49.54,569.67 C53.59,589.3 69.96,603.74 86.09,615.67 C111.93,634.72 140.6,651.55 172.35,656.3 C220.54,663.52 270.89,642.3 317.73,655.71 C355.51,666.53 384.42,698.24 421.94,709.94 C450.5,718.85 481.27,715.34 510.94,711.73 C526.94,709.79 543.7,707.55 556.61,697.95 C580.61,680.08 582.12,644.79 598.19,619.5 C623.01,580.5 677.43,572.84 723.06,580.42 C768.69,588 813,606.66 859.23,605.14 C869.11,604.81 879.23,603.47 887.85,598.62 C898.33,592.73 905.41,582.35 911.67,572.08 C950.794977,507.647829 972.271104,434.052347 973.94,358.69 C974.21,345.74 973.75,332.23 967.66,320.8 C959.96,306.34 944.57,297.69 929.25,291.87 C892.46,277.87 851.82,275.58 815.77,259.79 C781,244.56 752.84,217.85 722.56,194.96 C662.218113,149.432388 592.277255,118.284098 518.07,103.89 C500.68,100.53 482.63,98.13 465.35,102.01 C445.44,106.48 428.28,118.89 412.85,132.25 C371.8,167.79 338.9,211.64 301.07,250.59 C274.973227,277.451171 246.556275,301.956274 216.15,323.82 C202.15,333.91 187.27,345.89 171.67,353.35 C157.39,360.17 144,358.45 128.9,363 Z" id="Path" fill="#FDE61D" fill-rule="nonzero" opacity="0.24"></path>
                <path d="M311.88,47.14 C311.88,47.14 273.23,98.47 300.88,158.3 C328.53,218.13 252.69,314.26 252.69,314.26" id="Path" stroke="#535461" stroke-width="2"></path>
                <path d="M329.21,27.93 C326.14,41.14 311.45,49.01 311.45,49.01 C311.45,49.01 301.75,35.46 304.82,22.25 C307.89,9.04 315.82,-0.4 322.58,1.17 C329.34,2.74 332.28,14.72 329.21,27.93 Z" id="Path" fill="#8ED16F" fill-rule="nonzero"></path>
                <ellipse id="Oval" fill="#8ED16F" fill-rule="nonzero" transform="translate(316.528277, 24.973104) rotate(-76.900000) translate(-316.528277, -24.973104) " cx="316.528277" cy="24.9731036" rx="7.71" ry="2.89"></ellipse>
                <ellipse id="Oval" fill="#000000" fill-rule="nonzero" opacity="0.3" transform="translate(316.528277, 24.973104) rotate(-76.900000) translate(-316.528277, -24.973104) " cx="316.528277" cy="24.9731036" rx="7.71" ry="2.89"></ellipse>
                <path d="M322.53,86.62 C309.77,91.22 295.18,83.16 295.18,83.16 C295.18,83.16 301.28,67.65 314.05,63.06 C326.82,58.47 339.05,60.06 341.4,66.52 C343.75,72.98 335.29,82.02 322.53,86.62 Z" id="Path" fill="#8ED16F" fill-rule="nonzero"></path>
                <ellipse id="Oval" fill="#8ED16F" fill-rule="nonzero" transform="translate(317.963000, 73.718600) rotate(-19.885165) translate(-317.963000, -73.718600) " cx="317.963" cy="73.7186" rx="7.70691538" ry="2.88884377"></ellipse>
                <ellipse id="Oval" fill="#000000" fill-rule="nonzero" opacity="0.3" transform="translate(317.963000, 73.718600) rotate(-19.885165) translate(-317.963000, -73.718600) " cx="317.963" cy="73.7186" rx="7.70691538" ry="2.88884377"></ellipse>
                <path d="M319.56,133.39 C306.8,137.99 292.21,129.93 292.21,129.93 C292.21,129.93 298.31,114.42 311.08,109.83 C323.85,105.24 336.08,106.83 338.43,113.29 C340.78,119.75 332.32,128.8 319.56,133.39 Z" id="Path" fill="#8ED16F" fill-rule="nonzero"></path>
                <ellipse id="Oval" fill="#8ED16F" fill-rule="nonzero" transform="translate(315.145404, 121.192875) rotate(-19.800000) translate(-315.145404, -121.192875) " cx="315.145404" cy="121.192875" rx="7.71" ry="2.89"></ellipse>
                <ellipse id="Oval" fill="#000000" fill-rule="nonzero" opacity="0.3" transform="translate(315.145404, 121.192875) rotate(-19.800000) translate(-315.145404, -121.192875) " cx="315.145404" cy="121.192875" rx="7.71" ry="2.89"></ellipse>
                <path d="M334.47,188.26 C321.71,192.86 307.12,184.8 307.12,184.8 C307.12,184.8 313.22,169.29 325.99,164.7 C338.76,160.11 350.99,161.7 353.34,168.16 C355.69,174.62 347.23,183.69 334.47,188.26 Z" id="Path" fill="#8ED16F" fill-rule="nonzero"></path>
                <ellipse id="Oval" fill="#8ED16F" fill-rule="nonzero" transform="translate(330.057261, 176.087238) rotate(-19.800000) translate(-330.057261, -176.087238) " cx="330.057261" cy="176.087238" rx="7.71" ry="2.89"></ellipse>
                <ellipse id="Oval" fill="#000000" fill-rule="nonzero" opacity="0.3" transform="translate(330.057261, 176.087238) rotate(-19.800000) translate(-330.057261, -176.087238) " cx="330.057261" cy="176.087238" rx="7.71" ry="2.89"></ellipse>
                <path d="M324.77,238.44 C312.01,243.04 297.42,234.98 297.42,234.98 C297.42,234.98 303.52,219.47 316.29,214.88 C329.06,210.29 341.29,211.88 343.64,218.34 C345.99,224.8 337.54,233.85 324.77,238.44 Z" id="Path" fill="#8ED16F" fill-rule="nonzero"></path>
                <ellipse id="Oval" fill="#8ED16F" fill-rule="nonzero" transform="translate(320.380800, 225.417200) rotate(-19.885165) translate(-320.380800, -225.417200) " cx="320.3808" cy="225.4172" rx="7.70691538" ry="2.88884377"></ellipse>
                <ellipse id="Oval" fill="#000000" fill-rule="nonzero" opacity="0.3" transform="translate(320.380800, 225.417200) rotate(-19.885165) translate(-320.380800, -225.417200) " cx="320.3808" cy="225.4172" rx="7.70691538" ry="2.88884377"></ellipse>
                <path d="M264.92,99.91 C274.34,109.67 290.99,108.91 290.99,108.91 C290.99,108.91 292.36,92.3 282.94,82.54 C273.52,72.78 261.85,68.76 256.87,73.54 C251.89,78.32 255.5,90.15 264.92,99.91 Z" id="Path" fill="#8ED16F" fill-rule="nonzero"></path>
                <ellipse id="Oval" fill="#8ED16F" fill-rule="nonzero" transform="translate(274.288450, 90.899306) rotate(-43.990000) translate(-274.288450, -90.899306) " cx="274.28845" cy="90.8993061" rx="2.89" ry="7.71"></ellipse>
                <ellipse id="Oval" fill="#000000" fill-rule="nonzero" opacity="0.3" transform="translate(274.288450, 90.899306) rotate(-43.990000) translate(-274.288450, -90.899306) " cx="274.28845" cy="90.8993061" rx="2.89" ry="7.71"></ellipse>
                <path d="M259.51,254.9 C268.93,264.66 285.58,263.9 285.58,263.9 C285.58,263.9 286.95,247.29 277.53,237.53 C268.11,227.77 256.44,223.75 251.46,228.53 C246.48,233.31 250.09,245.14 259.51,254.9 Z" id="Path" fill="#8ED16F" fill-rule="nonzero"></path>
                <ellipse id="Oval" fill="#8ED16F" fill-rule="nonzero" transform="translate(268.864611, 245.902939) rotate(-43.990000) translate(-268.864611, -245.902939) " cx="268.864611" cy="245.902939" rx="2.89" ry="7.71"></ellipse>
                <ellipse id="Oval" fill="#000000" fill-rule="nonzero" opacity="0.3" transform="translate(268.864611, 245.902939) rotate(-43.990000) translate(-268.864611, -245.902939) " cx="268.864611" cy="245.902939" rx="2.89" ry="7.71"></ellipse>
                <path d="M272,154.69 C284.14,160.75 299.57,154.45 299.57,154.45 C299.57,154.45 295.32,138.34 283.19,132.28 C271.06,126.22 258.71,126.28 255.62,132.52 C252.53,138.76 259.86,148.63 272,154.69 Z" id="Path" fill="#8ED16F" fill-rule="nonzero"></path>
                <ellipse id="Oval" fill="#8ED16F" fill-rule="nonzero" transform="translate(277.790182, 143.041130) rotate(-63.480000) translate(-277.790182, -143.041130) " cx="277.790182" cy="143.04113" rx="2.89" ry="7.71"></ellipse>
                <ellipse id="Oval" fill="#000000" fill-rule="nonzero" opacity="0.3" transform="translate(277.790182, 143.041130) rotate(-63.480000) translate(-277.790182, -143.041130) " cx="277.790182" cy="143.04113" rx="2.89" ry="7.71"></ellipse>
                <path d="M277.09,209.26 C289.23,215.32 304.66,209.02 304.66,209.02 C304.66,209.02 300.41,192.91 288.28,186.85 C276.15,180.79 263.8,180.85 260.71,187.09 C257.62,193.33 265,203.26 277.09,209.26 Z" id="Path" fill="#8ED16F" fill-rule="nonzero"></path>
                <ellipse id="Oval" fill="#8ED16F" fill-rule="nonzero" transform="translate(282.884397, 197.618285) rotate(-63.480000) translate(-282.884397, -197.618285) " cx="282.884397" cy="197.618285" rx="2.89" ry="7.71"></ellipse>
                <ellipse id="Oval" fill="#000000" fill-rule="nonzero" opacity="0.3" transform="translate(282.884397, 197.618285) rotate(-63.480000) translate(-282.884397, -197.618285) " cx="282.884397" cy="197.618285" rx="2.89" ry="7.71"></ellipse>
                <path d="M125.73,157.47 C125.73,157.47 196.32,228.06 156.47,332.81 C116.62,437.56 224.78,611.75 224.78,611.75 C224.78,611.75 223.62,611.58 221.47,611.2 C76.47,585.61 4.47,419.79 85.07,296.61 C115,250.81 139.65,197.09 125.73,157.47 Z" id="Path" fill="#8ED16F" fill-rule="nonzero"></path>
                <path d="M0,442.98 C0,442.98 80.55,430.15 87.89,502.34 C95.23,574.53 242.78,584.54 242.78,584.54 C242.78,584.54 241.78,585.2 240.01,586.38 C118.18,666.38 1.72,637.32 19.27,531.13 C25.81,491.64 25.27,451.99 0,442.98 Z" id="Path" fill="#8ED16F" fill-rule="nonzero"></path>
                <g id="Group" opacity="0.3" transform="translate(0.000000, 442.000000)" fill="#FFFFFF" fill-rule="nonzero">
                    <path d="M0,0.98 C0,0.98 80.55,-11.85 87.89,60.34 C95.23,132.53 242.78,142.54 242.78,142.54 C242.78,142.54 241.78,143.2 240.01,144.38 C118.18,224.38 1.72,195.32 19.27,89.13 C25.81,49.64 25.27,9.99 0,0.98 Z" id="Path"></path>
                </g>
                <ellipse id="Oval" fill="#8ED16F" fill-rule="nonzero" cx="105.34" cy="384.3" rx="22.15" ry="57.79"></ellipse>
                <ellipse id="Oval" fill="#000000" fill-rule="nonzero" opacity="0.3" cx="105.34" cy="384.3" rx="22.15" ry="57.79"></ellipse>
                <ellipse id="Oval" fill="#8ED16F" fill-rule="nonzero" transform="translate(79.818932, 570.684416) rotate(-45.000000) translate(-79.818932, -570.684416) " cx="79.8189325" cy="570.684416" rx="14.93" ry="33.23"></ellipse>
                <ellipse id="Oval" fill="#000000" fill-rule="nonzero" opacity="0.3" transform="translate(79.818932, 570.684416) rotate(-45.000000) translate(-79.818932, -570.684416) " cx="79.8189325" cy="570.684416" rx="14.93" ry="33.23"></ellipse>
                <path d="M723.89,266.46 L199.55,266.46 C186.355917,266.46 175.66,277.155917 175.66,290.35 L175.66,597.68 C175.66,610.874083 186.355917,621.57 199.55,621.57 L723.89,621.57 C737.084083,621.57 747.78,610.874083 747.78,597.68 L747.78,290.35 C747.78,277.155917 737.084083,266.46 723.89,266.46 L723.89,266.46 Z" id="Path" fill="url(#linearGradient-1)" fill-rule="nonzero"></path>
                <rect id="Rectangle" fill="#FDE61D" fill-rule="nonzero" x="182.39" y="270.64" width="558.65" height="346.75" rx="24.81"></rect>
                <rect id="Rectangle" fill="#1C1B19" fill-rule="nonzero" x="182.39" y="331.32" width="558.65" height="63.57"></rect>
                <rect id="Rectangle" fill="#1C1B19" fill-rule="nonzero" x="235.37" y="442.09" width="452.7" height="30.82"></rect>
                <circle id="Oval" fill="#1C1B19" fill-rule="nonzero" cx="272.93" cy="549.97" r="44.31"></circle>
                <path d="M709.28,185.14 C709.995232,187.401528 711.514311,189.322612 713.55,190.54 C722.74,196.61 742.72,195.32 745.12,195.32 C745.63,195.32 746.3,196.23 747.04,197.76 C750.57,205.04 756.04,226.38 756.41,231.18 C756.9,236.99 762.3,264.18 771.14,274.31 C771.41,274.62 771.68,274.91 771.94,275.18 C780.61,283.89 790.78,274.31 790.78,274.31 L792.24,269.24 C791.83,271.24 791.37,273.57 790.91,276.18 C790.68,277.49 790.45,278.88 790.23,280.31 C788.912516,288.367789 788.220451,296.515438 788.16,304.68 C788.137704,307.644499 788.26453,310.608243 788.54,313.56 C788.62,314.38 788.71,315.19 788.82,315.98 C789.271441,319.575515 789.491893,323.196275 789.48,326.82 C789.4,348.34 783.91,375.11 783.91,375.11 L784.12,375.04 C783.99,375.71 783.91,376.04 783.91,376.04 L784.23,375.94 C784.076667,376.933333 783.93,377.95 783.79,378.99 C781.93,392.49 780.86,409.29 780.35,418.99 C780.086186,424.106662 780.313896,429.236833 781.03,434.31 L790.79,503.02 L790.79,535.02 C790.757154,539.868999 791.348683,544.702053 792.55,549.4 C795.73,561.49 793.11,603.69 791.64,623.71 C791.23,629.17 790.91,632.99 790.82,634.09 L790.82,634.42 L791.1,634.31 C791.1,634.54 791.1,634.66 791.1,634.66 C791.516529,634.481665 791.952997,634.354082 792.4,634.28 C788.53,640.28 781.52,650.2 776.13,651.87 C772.953419,652.837641 770.128044,654.710799 768,657.26 L767.86,657.45 L767.66,657.73 C766.993695,658.621718 766.588593,659.681215 766.49,660.79 C766.412142,660.599231 766.351891,660.401742 766.31,660.2 C765.9,662.43 767.24,664.47 771.45,665.46 C773.904383,665.928419 776.402287,666.129592 778.9,666.06 C793.5,666.06 819.41,661.57 822.27,656.74 L822.27,640.08 L822.74,640.23 L822.74,640.38 L824.53,640.97 L829.44,624.49 C835.33,620.13 830.44,542.1 829.44,524.17 C828.54,507.83 838.65,442.83 840.44,431.38 L840.2,431.09 L840.47,429.42 C840.830138,429.681393 841.16494,429.976019 841.47,430.3 C842.057471,430.997876 842.570266,431.755338 843,432.56 C843.845304,433.991117 844.571099,435.489532 845.17,437.04 C855.05,461.68 859.5,532.14 859.5,538.46 L859.5,604.72 C859.479555,611.258717 860.388648,617.767147 862.2,624.05 C863.107352,627.356682 863.808699,630.716468 864.3,634.11 C864.51,635.44 864.69,636.76 864.86,638.02 C865.03,639.28 865.2,640.72 865.33,641.9 C865.33,642.21 865.4,642.51 865.43,642.79 C865.46,643.07 865.43,643.06 865.43,643.2 C865.7,645.81 865.84,647.52 865.84,647.52 C865.877007,647.37681 865.945314,647.243611 866.04,647.13 L866.09,647.76 C866.16038,647.521342 866.295348,647.306777 866.48,647.14 C866.886621,646.741031 867.328412,646.379565 867.8,646.06 L867.8,654.48 L867.56,654.3 L867.56,655.75 C877.74,663.43 894.31,665.75 907.03,665.66 C915.28,665.66 921.96,664.66 924.28,663.5 C927.6,661.87 925.78,658.07 922.76,655.16 C920.42,652.9 917.37,651.16 915.44,651.38 C912.22,651.73 901.21,639.26 895.44,632.43 L896.09,632.14 L897.01,631.74 L897.01,521.26 C897.01,521.26 898.49,477.64 902.9,434.5 C904.992575,412.753828 902.418544,390.811491 895.35,370.14 L895.21,369.73 L896.55,369.94 C897.97,370.16 898.73,370.29 898.73,370.29 C898.73,370.29 898.73,369.95 898.64,369.29 L898.73,369.29 C898.73,369.29 897.01,350.58 896.99,327.08 C896.99,300.44 899.24,267.96 908.55,249.58 C913.91,239 915.7,230.58 915.55,223.94 C915.783801,218.097337 914.101753,212.33834 910.76,207.54 C909.358351,205.608459 907.45205,204.100024 905.25,203.18 L905.06,203.07 L904.96,203.07 C903.35186,202.419306 901.634768,202.079959 899.9,202.07 L879.79,202.07 C877.462415,202.07192 875.174289,201.468875 873.15,200.32 L865.28,195.86 C862.66,190.13 862.28,183.03 862.84,176.37 C862.84,175.84 862.94,175.31 862.99,174.79 L863.56,174.19 C864,173.72 864.41,173.19 864.81,172.74 C864.800909,173.134649 864.770867,173.528537 864.72,173.92 C864.62,174.55 864.45,174.92 864.18,175 C868.48,174.44 873.28,173.59 875.92,170.27 C876.03,170.14 876.13,170 876.23,169.86 C877.010134,168.597109 877.65694,167.256579 878.16,165.86 C878.529852,164.905835 879.024128,164.004707 879.63,163.18 C880.29,162.32 881.15,161.62 881.86,160.8 L881.98,160.66 C884.51,157.66 884.65,153.36 884.68,149.44 C884.73,139.92 884.45,129.44 878.08,122.3 C872.79,116.36 864.35,114.11 856.34,113.85 C848.33,113.59 840.34,115.03 832.34,115.07 C826.9,115.07 820.34,114.98 817.34,119.48 C815.87,121.69 815.69,124.58 814.09,126.7 C813.17,127.92 811.76,128.97 811.68,130.49 C811.669847,131.191356 811.849521,131.882408 812.2,132.49 L812.2,132.56 C814.14,136.38 818.26,138.76 822.56,139.51 C821.833248,140.384927 821.165125,141.306937 820.56,142.27 C817.934712,146.466793 816.548156,151.31974 816.56,156.27 C816.56,156.85 816.56,157.42 816.62,157.99 C817.066332,164.71363 820.063932,171.012883 825,175.6 C824.92,176.16 824.84,176.72 824.75,177.27 L824.93,177.43 C825.496667,177.943333 826.086667,178.43 826.7,178.89 L826.92,179.06 C826.92,179.41 826.92,179.76 826.92,180.06 C826.92,180.64 826.92,181.23 826.86,181.8 C826.8,182.37 826.86,182.72 826.8,183.18 L826.67,183.07 L816.9,174.91 L801.19,160.37 C801.19,160.37 761.91,131.78 759.94,145.37 C759.701996,147.783612 760.368366,150.199651 761.81,152.15 C769.02,163.15 793.81,172.51 793.81,172.51 C793.81,172.51 808.59,188.14 818.48,204.99 C818.13,205.18 817.78,205.36 817.41,205.53 C808.61,209.62 795.77,207.89 795.77,207.89 C780.94,210.2 779.6,226.45 779.68,233.02 C779.68,233.33 779.68,233.63 779.68,233.9 C779.68,234.17 779.68,234.23 779.68,234.38 L760,188.17 L759.94,188.03 C758.635114,184.972563 755.859621,182.792895 752.58,182.25 C739.42,180.04 706.53,175.43 709.28,185.14 Z M791.67,634.14 C791.957052,634.071725 792.247439,634.018321 792.54,633.98 L792.45,634.12 L791.67,634.14 Z" id="Shape" fill="url(#linearGradient-2)" fill-rule="nonzero"></path>
                <path d="M890,624.69 C890,624.69 908.64,648.12 912.95,647.64 C917.26,647.16 927.29,656.72 921.56,659.64 C915.83,662.56 882.84,664.42 866.56,651.99 L866.56,633.26 L890,624.69 Z" id="Path" fill="#ACA9C9" fill-rule="nonzero"></path>
                <path d="M795.81,626.12 C795.81,626.12 784.81,645.72 777.17,648.12 C769.53,650.52 762.83,659.12 772.87,661.51 C782.91,663.9 818.77,658.64 822.11,652.9 L822.11,627.55 L795.81,626.12 Z" id="Path" fill="#ACA9C9" fill-rule="nonzero"></path>
                <path d="M782,433.57 L791.5,501.35 L791.5,532.86 C791.470921,537.64041 792.048876,542.405172 793.22,547.04 C796.32,558.97 793.77,600.59 792.33,620.34 C791.86,626.78 791.5,630.9 791.5,630.9 C797.71,628.03 824.01,637.11 824.01,637.11 L826.67,628.06 L828.79,620.86 C834.53,616.56 829.79,539.59 828.79,521.86 C828.14,509.75 833.54,470.49 837,446.96 C838,440.31 838.81,434.96 839.3,431.74 C839.61,429.74 839.78,428.63 839.78,428.63 C840.833788,429.4893 841.710105,430.545637 842.36,431.74 C843.182904,433.153215 843.8886,434.631497 844.47,436.16 C854.09,460.47 858.47,529.97 858.47,536.16 L858.47,601.52 C858.450217,607.968402 859.335517,614.387672 861.1,620.59 C862.28423,625.113797 863.149687,629.715089 863.69,634.36 C864.37,639.55 864.69,643.73 864.69,643.73 C865.17,640.86 894.81,627.95 894.81,627.95 L894.81,518.95 C894.81,518.95 896.24,475.95 900.55,433.37 C902.402276,414.001548 900.535448,394.457558 895.05,375.79 C893.86,371.72 892.67,368.27 891.64,365.54 C889.89,360.89 888.64,358.32 888.64,358.32 L791,358.32 C789.36,358.63 788,361.93 786.77,366.94 C785.97,370.3 785.27,374.42 784.66,378.94 C782.85,392.25 781.81,408.82 781.31,418.4 C781.057614,423.467104 781.288658,428.54673 782,433.57 Z" id="Path" fill="#618FD8" fill-rule="nonzero"></path>
                <g id="Group" opacity="0.1" transform="translate(791.000000, 358.000000)" fill="#000000" fill-rule="nonzero">
                    <path d="M102.09,270.26 L102.09,161.26 C102.09,161.26 103.52,118.26 107.83,75.68 C112.14,33.1 95.83,0.62 95.83,0.62 L97.74,0.62 C97.74,0.62 113.99,33.13 109.74,75.68 C105.49,118.23 104,161.26 104,161.26 L104,270.26 C104,270.26 74.36,283.17 73.88,286.04 C73.88,286.04 73.88,285.4 73.73,284.3 C80.19,279.81 102.09,270.26 102.09,270.26 Z" id="Path"></path>
                    <path d="M3.37,272.6 C2.46779035,272.618576 1.57653627,272.801571 0.74,273.14 L0.74,272.66 C1.61381561,272.572337 2.49309575,272.552278 3.37,272.6 L3.37,272.6 Z" id="Path"></path>
                    <path d="M36.12,263.1 C41.86,258.8 37.12,181.83 36.12,164.1 C35.12,146.37 47.12,70.88 47.12,70.88 C47.748092,71.3652648 48.3036962,71.9377055 48.77,72.58 C47.01,83.86 37.17,147.99 38.04,164.1 C39.04,181.79 43.78,258.76 38.04,263.1 L33.26,279.35 L31.52,278.77 L36.12,263.1 Z" id="Path"></path>
                </g>
                <path d="M801.54,240.31 L791.54,275.69 C791.54,275.69 781.02,285.69 772.42,275.69 C763.82,265.69 758.52,238.88 758,233.14 C757.48,227.4 749.87,197.76 747,197.76 C744.13,197.76 715.45,199.67 712.1,187.76 C709.42,178.18 741.44,182.76 754.26,184.91 C757.468636,185.456286 760.174249,187.607191 761.43,190.61 L781.09,237.56 C781.09,237.56 791.5,225.49 801.54,240.31 Z" id="Path" fill="#F7C4A7" fill-rule="nonzero"></path>
                <path d="M866.08,158.08 C866.08,158.08 853.65,192.98 869.43,205.41 C885.21,217.84 813,221.19 813,221.19 L822.8,211.87 C822.8,211.87 829.73,184.38 824.95,161.43 L866.08,158.08 Z" id="Path" fill="#F7C4A7" fill-rule="nonzero"></path>
                <path d="M850.78,205.41 C850.78,205.41 863.45,202.3 863.45,198.96 L874.68,205.41 L902.89,205.41 C902.89,205.41 923.45,216.88 906.24,251.31 C889.03,285.74 896.68,370.31 896.68,370.31 C896.68,370.31 835.49,359.31 784.81,376.05 C784.81,376.05 792.46,338.28 789.59,316.77 C786.72,295.26 794.37,265.14 794.37,265.14 L798.67,246.97 C798.67,246.97 798.43,229.97 780.74,238.6 C780.74,238.6 778.11,213.98 796.28,211.11 C796.28,211.11 817.28,213.98 823.53,203.46 C823.53,203.5 837.4,211.63 850.78,205.41 Z" id="Path" fill="#000000" fill-rule="nonzero" opacity="0.1"></path>
                <path d="M850.78,204.46 C850.78,204.46 863.45,201.35 863.45,198.01 L871.68,202.74 C873.646583,203.866657 875.873548,204.459595 878.14,204.46 L897.87,204.46 C902.053786,204.447975 905.987665,206.450271 908.44,209.84 C912.97,216.21 917.03,228.77 906.24,250.36 C889.03,284.78 896.68,369.36 896.68,369.36 C896.68,369.36 835.49,358.36 784.81,375.1 C784.81,375.1 792.46,337.33 789.59,315.82 C786.72,294.31 794.37,264.26 794.37,264.26 L798.67,246.09 C798.67,246.09 798.43,229.09 780.74,237.72 C780.74,237.72 778.18,213.78 795.53,210.36 C796.012159,210.252766 796.507761,210.219052 797,210.26 C800.71,210.65 818,211.9 823.54,202.53 C823.53,202.54 837.4,210.67 850.78,204.46 Z" id="Path" fill="#E14B5A" fill-rule="nonzero"></path>
                <path d="M899.07,247.96 C899.07,247.96 883.77,257.52 858.91,247.96 C858.91,247.96 831.66,237.96 823.05,218.32 C814.44,198.68 866.55,221.67 866.55,221.67 C866.55,221.67 877.55,221.67 880.89,219.28 C884.23,216.89 907.67,237.44 899.07,247.96 Z" id="Path" fill="#000000" fill-rule="nonzero" opacity="0.1"></path>
                <path d="M899.07,246.05 C899.07,246.05 883.77,255.61 858.91,246.05 C858.91,246.05 831.66,236.05 823.05,216.41 C814.44,196.77 794.37,175.26 794.37,175.26 C794.37,175.26 759.47,161.87 761.37,148.49 C763.27,135.11 801.53,163.31 801.53,163.31 L816.83,177.65 L866.55,219.72 C866.55,219.72 877.55,219.72 880.89,217.33 C884.23,214.94 907.67,235.53 899.07,246.05 Z" id="Path" fill="#F7C4A7" fill-rule="nonzero"></path>
                <path d="M824.49,162.86 L865.6,159.51 C863.486535,165.830316 862.048512,172.356728 861.31,178.98 C851.367135,189.28979 834.998093,189.734601 824.51,179.98 C825.557657,174.320794 825.550877,168.516743 824.49,162.86 L824.49,162.86 Z" id="Path" fill="#000000" fill-rule="nonzero" opacity="0.1"></path>
                <circle id="Oval" fill="#F7C4A7" fill-rule="nonzero" cx="842.9" cy="159.28" r="26.29"></circle>
                <path d="M857.33,164.99 C855.79,162.45 858.92,159.14 857.89,156.36 C856.94,153.8 853.16,153.36 851.89,150.97 C850.89,149.04 851.89,146.67 851.49,144.54 C850.92,141.79 847.96,140.08 845.15,139.94 C842.34,139.8 839.63,140.85 836.96,141.75 C832.61,143.22 828.03,144.35 823.47,143.83 C818.91,143.31 814.36,140.83 812.33,136.76 C811.997983,136.167148 811.822464,135.499488 811.82,134.82 C811.9,133.32 813.28,132.29 814.17,131.09 C815.73,129 815.91,126.15 817.33,123.97 C820.23,119.53 826.6,119.64 831.9,119.62 C839.7,119.62 847.46,118.16 855.26,118.42 C863.06,118.68 871.26,120.89 876.43,126.75 C882.63,133.8 882.91,144.12 882.86,153.52 C882.86,157.39 882.7,161.6 880.23,164.59 C879.51,165.46 878.63,166.18 877.94,167.07 C876.44,169.07 876.04,171.63 874.63,173.66 C872.13,177.27 867.25,178.15 862.9,178.73 C864.18,178.56 863.12,169.99 862.9,169.2 C862.06,165.26 861.15,165.34 857.33,164.99 Z" id="Path" fill="#000000" fill-rule="nonzero" opacity="0.1"></path>
                <path d="M857.33,164.04 C855.79,161.5 858.92,158.19 857.89,155.41 C856.94,152.85 853.16,152.41 851.89,150.02 C850.89,148.09 851.89,145.72 851.49,143.59 C850.92,140.84 847.96,139.13 845.15,138.99 C842.34,138.85 839.63,139.9 836.96,140.8 C832.61,142.27 828.03,143.4 823.47,142.88 C818.91,142.36 814.36,139.88 812.33,135.81 C811.997983,135.217148 811.822464,134.549488 811.82,133.87 C811.9,132.37 813.28,131.34 814.17,130.14 C815.73,128.05 815.91,125.2 817.33,123.02 C820.23,118.58 826.6,118.69 831.9,118.67 C839.7,118.67 847.46,117.21 855.26,117.47 C863.06,117.73 871.26,119.94 876.43,125.8 C882.63,132.85 882.91,143.17 882.86,152.57 C882.86,156.44 882.7,160.65 880.23,163.64 C879.51,164.51 878.63,165.23 877.94,166.12 C876.44,168.12 876.04,170.68 874.63,172.71 C872.13,176.32 867.25,177.2 862.9,177.78 C864.18,177.61 863.12,169.04 862.9,168.25 C862.06,164.26 861.15,164.38 857.33,164.04 Z" id="Path" fill="#281C1C" fill-rule="nonzero"></path>
                <path d="M898.83,249.16 C898.83,249.16 885.92,215.69 875.88,214.74 C865.84,213.79 895,214.74 895,214.74 L904.56,231.95 L898.83,249.16 Z" id="Path" fill="#000000" fill-rule="nonzero" opacity="0.1"></path>
                <path d="M899.79,249.16 C899.79,249.16 886.88,215.69 876.84,214.74 C866.8,213.79 895.96,214.74 895.96,214.74 L905.52,231.95 L899.79,249.16 Z" id="Path" fill="#E14B5A" fill-rule="nonzero"></path>
                <path d="M863.65,634.44 C864.33,639.63 864.65,643.81 864.65,643.81 C865.13,640.94 894.77,628.03 894.77,628.03 L894.77,620.26 C894.014906,620.231815 893.258787,620.268617 892.51,620.37 C886.76,621.14 881.43,623.93 876.51,626.91 C872.354375,629.637382 868.062113,632.150658 863.65,634.44 L863.65,634.44 Z" id="Path" fill="#618FD8" fill-rule="nonzero"></path>
                <path d="M863.65,634.44 C864.33,639.63 864.65,643.81 864.65,643.81 C865.13,640.94 894.77,628.03 894.77,628.03 L894.77,620.26 C894.014906,620.231815 893.258787,620.268617 892.51,620.37 C886.76,621.14 881.43,623.93 876.51,626.91 C872.354375,629.637382 868.062113,632.150658 863.65,634.44 L863.65,634.44 Z" id="Path" fill="#000000" fill-rule="nonzero" opacity="0.3"></path>
                <path d="M791.5,630.9 C797.71,628.03 824.01,637.11 824.01,637.11 L826.67,628.06 C822.08,627.13 817.52,625.97 813.04,624.59 C810.948378,623.984602 808.903085,623.229314 806.92,622.33 C805.595814,621.622442 804.233762,620.988153 802.84,620.43 C799.41,619.25 795.84,619.75 792.32,620.34 C791.86,626.78 791.5,630.9 791.5,630.9 Z" id="Path" fill="#618FD8" fill-rule="nonzero"></path>
                <path d="M791.5,630.9 C797.71,628.03 824.01,637.11 824.01,637.11 L826.67,628.06 C822.08,627.13 817.52,625.97 813.04,624.59 C810.948378,623.984602 808.903085,623.229314 806.92,622.33 C805.595814,621.622442 804.233762,620.988153 802.84,620.43 C799.41,619.25 795.84,619.75 792.32,620.34 C791.86,626.78 791.5,630.9 791.5,630.9 Z" id="Path" fill="#000000" fill-rule="nonzero" opacity="0.3"></path>
                <path d="M921.3,658.15 C922.110213,657.803183 922.71528,657.102191 922.94,656.25 C923.308605,657.614485 922.606345,659.040415 921.3,659.58 C915.56,662.45 882.58,664.36 866.3,651.93 L866.3,650.5 C882.58,662.93 915.56,661.02 921.3,658.15 Z" id="Path" fill="#FFFFFF" fill-rule="nonzero" opacity="0.4"></path>
                <path d="M772.62,660.06 C782.62,662.45 818.52,657.19 821.86,651.45 L821.86,652.88 C818.51,658.62 782.66,663.88 772.62,661.49 C768.52,660.49 767.21,658.49 767.62,656.3 C767.94,657.92 769.44,659.26 772.62,660.06 Z" id="Path" fill="#FFFFFF" fill-rule="nonzero" opacity="0.4"></path>
                <path d="M830.94,311.79 C830.94,311.79 820.42,308.44 817.55,311.79 C814.68,315.14 790.15,322.99 790.15,322.99" id="Path" fill="#000000" fill-rule="nonzero" opacity="0.1"></path>
                <rect id="Rectangle" fill="#8ED16F" fill-rule="nonzero" transform="translate(737.485000, 179.890000) rotate(-180.000000) translate(-737.485000, -179.890000) " x="711.91" y="179.35" width="51.15" height="1.08"></rect>
                <rect id="Rectangle" fill="#8ED16F" fill-rule="nonzero" transform="translate(737.485000, 180.970000) rotate(-180.000000) translate(-737.485000, -180.970000) " x="711.91" y="180.43" width="51.15" height="1.08"></rect>
                <rect id="Rectangle" fill="#000000" fill-rule="nonzero" opacity="0.1" transform="translate(737.485000, 180.970000) rotate(-180.000000) translate(-737.485000, -180.970000) " x="711.91" y="180.43" width="51.15" height="1.08"></rect>
                <rect id="Rectangle" fill="#8ED16F" fill-rule="nonzero" transform="translate(737.485000, 182.050000) rotate(-180.000000) translate(-737.485000, -182.050000) " x="711.91" y="181.51" width="51.15" height="1.08"></rect>
                <rect id="Rectangle" fill="#8ED16F" fill-rule="nonzero" transform="translate(737.485000, 183.120000) rotate(-180.000000) translate(-737.485000, -183.120000) " x="711.91" y="182.58" width="51.15" height="1.08"></rect>
                <rect id="Rectangle" fill="#000000" fill-rule="nonzero" opacity="0.1" transform="translate(737.485000, 183.120000) rotate(-180.000000) translate(-737.485000, -183.120000) " x="711.91" y="182.58" width="51.15" height="1.08"></rect>
                <rect id="Rectangle" fill="#8ED16F" fill-rule="nonzero" transform="translate(737.485000, 184.200000) rotate(-180.000000) translate(-737.485000, -184.200000) " x="711.91" y="183.66" width="51.15" height="1.08"></rect>
                <rect id="Rectangle" fill="#8ED16F" fill-rule="nonzero" transform="translate(737.485000, 185.270000) rotate(-180.000000) translate(-737.485000, -185.270000) " x="711.91" y="184.73" width="51.15" height="1.08"></rect>
                <rect id="Rectangle" fill="#000000" fill-rule="nonzero" opacity="0.1" transform="translate(737.485000, 185.270000) rotate(-180.000000) translate(-737.485000, -185.270000) " x="711.91" y="184.73" width="51.15" height="1.08"></rect>
                <rect id="Rectangle" fill="#8ED16F" fill-rule="nonzero" transform="translate(737.485000, 186.350000) rotate(-180.000000) translate(-737.485000, -186.350000) " x="711.91" y="185.81" width="51.15" height="1.08"></rect>
                <rect id="Rectangle" fill="#8ED16F" fill-rule="nonzero" transform="translate(737.485000, 187.420000) rotate(-180.000000) translate(-737.485000, -187.420000) " x="711.91" y="186.88" width="51.15" height="1.08"></rect>
                <rect id="Rectangle" fill="#000000" fill-rule="nonzero" opacity="0.1" transform="translate(737.485000, 187.420000) rotate(-180.000000) translate(-737.485000, -187.420000) " x="711.91" y="186.88" width="51.15" height="1.08"></rect>
                <rect id="Rectangle" fill="#8ED16F" fill-rule="nonzero" transform="translate(737.485000, 171.290000) rotate(-180.000000) translate(-737.485000, -171.290000) " x="711.91" y="170.75" width="51.15" height="1.08"></rect>
                <rect id="Rectangle" fill="#8ED16F" fill-rule="nonzero" transform="translate(768.098217, 162.198898) rotate(-140.250000) translate(-768.098217, -162.198898) " x="742.523217" y="161.658898" width="51.15" height="1.08"></rect>
                <rect id="Rectangle" fill="#8ED16F" fill-rule="nonzero" transform="translate(732.244140, 144.990949) rotate(-140.250000) translate(-732.244140, -144.990949) " x="706.66914" y="144.450949" width="51.15" height="1.08"></rect>
                <rect id="Rectangle" fill="#8ED16F" fill-rule="nonzero" transform="translate(737.485000, 172.360000) rotate(-180.000000) translate(-737.485000, -172.360000) " x="711.91" y="171.82" width="51.15" height="1.08"></rect>
                <rect id="Rectangle" fill="#000000" fill-rule="nonzero" opacity="0.1" transform="translate(737.485000, 172.360000) rotate(-180.000000) translate(-737.485000, -172.360000) " x="711.91" y="171.82" width="51.15" height="1.08"></rect>
                <rect id="Rectangle" fill="#8ED16F" fill-rule="nonzero" transform="translate(737.485000, 173.450000) rotate(-180.000000) translate(-737.485000, -173.450000) " x="711.91" y="172.91" width="51.15" height="1.08"></rect>
                <rect id="Rectangle" fill="#8ED16F" fill-rule="nonzero" transform="translate(737.485000, 174.520000) rotate(-180.000000) translate(-737.485000, -174.520000) " x="711.91" y="173.98" width="51.15" height="1.08"></rect>
                <rect id="Rectangle" fill="#000000" fill-rule="nonzero" opacity="0.1" transform="translate(737.485000, 174.520000) rotate(-180.000000) translate(-737.485000, -174.520000) " x="711.91" y="173.98" width="51.15" height="1.08"></rect>
                <rect id="Rectangle" fill="#8ED16F" fill-rule="nonzero" transform="translate(737.485000, 175.590000) rotate(-180.000000) translate(-737.485000, -175.590000) " x="711.91" y="175.05" width="51.15" height="1.08"></rect>
                <rect id="Rectangle" fill="#8ED16F" fill-rule="nonzero" transform="translate(737.485000, 176.670000) rotate(-180.000000) translate(-737.485000, -176.670000) " x="711.91" y="176.13" width="51.15" height="1.08"></rect>
                <rect id="Rectangle" fill="#000000" fill-rule="nonzero" opacity="0.1" transform="translate(737.485000, 176.670000) rotate(-180.000000) translate(-737.485000, -176.670000) " x="711.91" y="176.13" width="51.15" height="1.08"></rect>
                <rect id="Rectangle" fill="#8ED16F" fill-rule="nonzero" transform="translate(737.485000, 177.740000) rotate(-180.000000) translate(-737.485000, -177.740000) " x="711.91" y="177.2" width="51.15" height="1.08"></rect>
                <rect id="Rectangle" fill="#8ED16F" fill-rule="nonzero" transform="translate(737.485000, 178.820000) rotate(-180.000000) translate(-737.485000, -178.820000) " x="711.91" y="178.28" width="51.15" height="1.08"></rect>
                <rect id="Rectangle" fill="#000000" fill-rule="nonzero" opacity="0.1" transform="translate(737.485000, 178.820000) rotate(-180.000000) translate(-737.485000, -178.820000) " x="711.91" y="178.28" width="51.15" height="1.08"></rect>
                <rect id="Rectangle" fill="#8ED16F" fill-rule="nonzero" transform="translate(717.906431, 205.134755) rotate(-169.480000) translate(-717.906431, -205.134755) " x="708.586431" y="186.969755" width="18.64" height="36.33"></rect>
                <ellipse id="Oval" fill="#8ED16F" fill-rule="nonzero" transform="translate(718.161482, 205.248513) rotate(-79.480000) translate(-718.161482, -205.248513) " cx="718.161482" cy="205.248513" rx="7.65" ry="3.82"></ellipse>
                <ellipse id="Oval" fill="#000000" fill-rule="nonzero" opacity="0.1" transform="translate(718.161482, 205.248513) rotate(-79.480000) translate(-718.161482, -205.248513) " cx="718.161482" cy="205.248513" rx="7.65" ry="3.82"></ellipse>
                <rect id="Rectangle" fill="#8ED16F" fill-rule="nonzero" transform="translate(721.041996, 280.528502) rotate(-169.480000) translate(-721.041996, -280.528502) " x="711.721996" y="262.363502" width="18.64" height="36.33"></rect>
                <ellipse id="Oval" fill="#8ED16F" fill-rule="nonzero" transform="translate(721.287734, 280.634078) rotate(-79.480000) translate(-721.287734, -280.634078) " cx="721.287734" cy="280.634078" rx="7.65" ry="3.82"></ellipse>
                <ellipse id="Oval" fill="#000000" fill-rule="nonzero" opacity="0.1" transform="translate(721.287734, 280.634078) rotate(-79.480000) translate(-721.287734, -280.634078) " cx="721.287734" cy="280.634078" rx="7.65" ry="3.82"></ellipse>
                <rect id="Rectangle" fill="#8ED16F" fill-rule="nonzero" transform="translate(653.816608, 128.212723) rotate(-61.580000) translate(-653.816608, -128.212723) " x="644.496608" y="110.047723" width="18.64" height="36.33"></rect>
                <ellipse id="Oval" fill="#8ED16F" fill-rule="nonzero" transform="translate(656.928000, 128.916000) rotate(-61.389540) translate(-656.928000, -128.916000) " cx="656.928" cy="128.916" rx="3.82915702" ry="7.66833802"></ellipse>
                <ellipse id="Oval" fill="#000000" fill-rule="nonzero" opacity="0.1" transform="translate(656.928000, 128.916000) rotate(-61.389540) translate(-656.928000, -128.916000) " cx="656.928" cy="128.916" rx="3.82915702" ry="7.66833802"></ellipse>
                <rect id="Rectangle" fill="#8ED16F" fill-rule="nonzero" transform="translate(583.659003, 451.736453) rotate(-61.580000) translate(-583.659003, -451.736453) " x="574.339003" y="433.571453" width="18.64" height="36.33"></rect>
                <ellipse id="Oval" fill="#8ED16F" fill-rule="nonzero" transform="translate(583.555740, 451.955521) rotate(-61.580000) translate(-583.555740, -451.955521) " cx="583.55574" cy="451.955521" rx="3.82" ry="7.65"></ellipse>
                <ellipse id="Oval" fill="#000000" fill-rule="nonzero" opacity="0.1" transform="translate(583.555740, 451.955521) rotate(-61.580000) translate(-583.555740, -451.955521) " cx="583.55574" cy="451.955521" rx="3.82" ry="7.65"></ellipse>
                <rect id="Rectangle" fill="#8ED16F" fill-rule="nonzero" transform="translate(540.734244, 184.753756) rotate(-61.580000) translate(-540.734244, -184.753756) " x="531.414244" y="166.588756" width="18.64" height="36.33"></rect>
                <ellipse id="Oval" fill="#8ED16F" fill-rule="nonzero" transform="translate(540.622186, 184.958065) rotate(-61.580000) translate(-540.622186, -184.958065) " cx="540.622186" cy="184.958065" rx="3.82" ry="7.65"></ellipse>
                <ellipse id="Oval" fill="#000000" fill-rule="nonzero" opacity="0.1" transform="translate(540.622186, 184.958065) rotate(-61.580000) translate(-540.622186, -184.958065) " cx="540.622186" cy="184.958065" rx="3.82" ry="7.65"></ellipse>
                <rect id="Rectangle" fill="#8ED16F" fill-rule="nonzero" transform="translate(594.533404, 128.208446) rotate(-61.580000) translate(-594.533404, -128.208446) " x="585.213404" y="110.043446" width="18.64" height="36.33"></rect>
                <ellipse id="Oval" fill="#8ED16F" fill-rule="nonzero" transform="translate(594.421346, 128.412755) rotate(-61.580000) translate(-594.421346, -128.412755) " cx="594.421346" cy="128.412755" rx="3.82" ry="7.65"></ellipse>
                <ellipse id="Oval" fill="#000000" fill-rule="nonzero" opacity="0.1" transform="translate(594.421346, 128.412755) rotate(-61.580000) translate(-594.421346, -128.412755) " cx="594.421346" cy="128.412755" rx="3.82" ry="7.65"></ellipse>
                <rect id="Rectangle" fill="#8ED16F" fill-rule="nonzero" transform="translate(629.415794, 197.156522) rotate(-6.240000) translate(-629.415794, -197.156522) " x="620.095794" y="178.991522" width="18.64" height="36.33"></rect>
                <ellipse id="Oval" fill="#8ED16F" fill-rule="nonzero" transform="translate(629.171021, 197.187401) rotate(-6.240000) translate(-629.171021, -197.187401) " cx="629.171021" cy="197.187401" rx="3.82" ry="7.65"></ellipse>
                <ellipse id="Oval" fill="#000000" fill-rule="nonzero" opacity="0.1" transform="translate(629.171021, 197.187401) rotate(-6.240000) translate(-629.171021, -197.187401) " cx="629.171021" cy="197.187401" rx="3.82" ry="7.65"></ellipse>
                <rect id="Rectangle" fill="#8ED16F" fill-rule="nonzero" transform="translate(756.457121, 394.914337) rotate(-6.240000) translate(-756.457121, -394.914337) " x="747.137121" y="376.749337" width="18.64" height="36.33"></rect>
                <ellipse id="Oval" fill="#8ED16F" fill-rule="nonzero" transform="translate(756.221260, 394.945275) rotate(-6.240000) translate(-756.221260, -394.945275) " cx="756.22126" cy="394.945275" rx="3.82" ry="7.65"></ellipse>
                <ellipse id="Oval" fill="#000000" fill-rule="nonzero" opacity="0.1" transform="translate(756.221260, 394.945275) rotate(-6.240000) translate(-756.221260, -394.945275) " cx="756.22126" cy="394.945275" rx="3.82" ry="7.65"></ellipse>
                <rect id="Rectangle" fill="#8ED16F" fill-rule="nonzero" transform="translate(575.689829, 271.645472) rotate(-61.580000) translate(-575.689829, -271.645472) " x="566.369829" y="253.480472" width="18.64" height="36.33"></rect>
                <ellipse id="Oval" fill="#8ED16F" fill-rule="nonzero" transform="translate(575.571806, 271.863336) rotate(-61.580000) translate(-575.571806, -271.863336) " cx="575.571806" cy="271.863336" rx="3.82" ry="7.65"></ellipse>
                <ellipse id="Oval" fill="#000000" fill-rule="nonzero" opacity="0.1" transform="translate(575.571806, 271.863336) rotate(-61.580000) translate(-575.571806, -271.863336) " cx="575.571806" cy="271.863336" rx="3.82" ry="7.65"></ellipse>
                <rect id="Rectangle" fill="#8ED16F" fill-rule="nonzero" transform="translate(495.061012, 248.617450) rotate(-61.580000) translate(-495.061012, -248.617450) " x="485.741012" y="230.45245" width="18.64" height="36.33"></rect>
                <ellipse id="Oval" fill="#8ED16F" fill-rule="nonzero" transform="translate(497.598800, 249.892800) rotate(-61.389540) translate(-497.598800, -249.892800) " cx="497.5988" cy="249.8928" rx="3.82915702" ry="7.66833802"></ellipse>
                <ellipse id="Oval" fill="#000000" fill-rule="nonzero" opacity="0.1" transform="translate(497.598800, 249.892800) rotate(-61.389540) translate(-497.598800, -249.892800) " cx="497.5988" cy="249.8928" rx="3.82915702" ry="7.66833802"></ellipse>
                <rect id="Rectangle" fill="#8ED16F" fill-rule="nonzero" transform="translate(469.237830, 636.324228) rotate(-61.580000) translate(-469.237830, -636.324228) " x="459.91783" y="618.159228" width="18.64" height="36.33"></rect>
                <ellipse id="Oval" fill="#8ED16F" fill-rule="nonzero" transform="translate(469.124567, 636.533296) rotate(-61.580000) translate(-469.124567, -636.533296) " cx="469.124567" cy="636.533296" rx="3.82" ry="7.65"></ellipse>
                <ellipse id="Oval" fill="#000000" fill-rule="nonzero" opacity="0.1" transform="translate(469.124567, 636.533296) rotate(-61.580000) translate(-469.124567, -636.533296) " cx="469.124567" cy="636.533296" rx="3.82" ry="7.65"></ellipse>
                <rect id="Rectangle" fill="#8ED16F" fill-rule="nonzero" transform="translate(450.611109, 638.277948) rotate(-79.490000) translate(-450.611109, -638.277948) " x="441.291109" y="620.112948" width="18.64" height="36.33"></rect>
                <rect id="Rectangle" fill="#000000" fill-rule="nonzero" opacity="0.05" transform="translate(450.611109, 638.277948) rotate(-79.490000) translate(-450.611109, -638.277948) " x="441.291109" y="620.112948" width="18.64" height="36.33"></rect>
                <ellipse id="Oval" fill="#8ED16F" fill-rule="nonzero" transform="translate(450.574870, 638.510142) rotate(-79.490000) translate(-450.574870, -638.510142) " cx="450.57487" cy="638.510142" rx="3.82" ry="7.65"></ellipse>
                <ellipse id="Oval" fill="#000000" fill-rule="nonzero" opacity="0.1" transform="translate(450.574870, 638.510142) rotate(-79.490000) translate(-450.574870, -638.510142) " cx="450.57487" cy="638.510142" rx="3.82" ry="7.65"></ellipse>
                <rect id="Rectangle" fill="#8ED16F" fill-rule="nonzero" transform="translate(453.957794, 649.268805) rotate(-79.490000) translate(-453.957794, -649.268805) " x="444.637794" y="631.103805" width="18.64" height="36.33"></rect>
                <ellipse id="Oval" fill="#8ED16F" fill-rule="nonzero" transform="translate(453.911555, 649.500999) rotate(-79.490000) translate(-453.911555, -649.500999) " cx="453.911555" cy="649.500999" rx="3.82" ry="7.65"></ellipse>
                <ellipse id="Oval" fill="#000000" fill-rule="nonzero" opacity="0.1" transform="translate(453.911555, 649.500999) rotate(-79.490000) translate(-453.911555, -649.500999) " cx="453.911555" cy="649.500999" rx="3.82" ry="7.65"></ellipse>
                <rect id="Rectangle" fill="#8ED16F" fill-rule="nonzero" transform="translate(506.926894, 683.442412) rotate(-61.580000) translate(-506.926894, -683.442412) " x="497.606894" y="665.277412" width="18.64" height="36.33"></rect>
                <ellipse id="Oval" fill="#8ED16F" fill-rule="nonzero" transform="translate(506.823630, 683.651480) rotate(-61.580000) translate(-506.823630, -683.651480) " cx="506.82363" cy="683.65148" rx="3.82" ry="7.65"></ellipse>
                <ellipse id="Oval" fill="#000000" fill-rule="nonzero" opacity="0.1" transform="translate(506.823630, 683.651480) rotate(-61.580000) translate(-506.823630, -683.651480) " cx="506.82363" cy="683.65148" rx="3.82" ry="7.65"></ellipse>
                <rect id="Rectangle" fill="#8ED16F" fill-rule="nonzero" transform="translate(488.307497, 685.383637) rotate(-79.490000) translate(-488.307497, -685.383637) " x="478.987497" y="667.218637" width="18.64" height="36.33"></rect>
                <rect id="Rectangle" fill="#000000" fill-rule="nonzero" opacity="0.05" transform="translate(488.307497, 685.383637) rotate(-79.490000) translate(-488.307497, -685.383637) " x="478.987497" y="667.218637" width="18.64" height="36.33"></rect>
                <ellipse id="Oval" fill="#8ED16F" fill-rule="nonzero" transform="translate(488.261258, 685.615832) rotate(-79.490000) translate(-488.261258, -685.615832) " cx="488.261258" cy="685.615832" rx="3.82" ry="7.65"></ellipse>
                <ellipse id="Oval" fill="#000000" fill-rule="nonzero" opacity="0.1" transform="translate(488.261258, 685.615832) rotate(-79.490000) translate(-488.261258, -685.615832) " cx="488.261258" cy="685.615832" rx="3.82" ry="7.65"></ellipse>
                <rect id="Rectangle" fill="#8ED16F" fill-rule="nonzero" transform="translate(491.652191, 696.386151) rotate(-79.490000) translate(-491.652191, -696.386151) " x="482.332191" y="678.221151" width="18.64" height="36.33"></rect>
                <ellipse id="Oval" fill="#8ED16F" fill-rule="nonzero" transform="translate(491.615952, 696.618345) rotate(-79.490000) translate(-491.615952, -696.618345) " cx="491.615952" cy="696.618345" rx="3.82" ry="7.65"></ellipse>
                <ellipse id="Oval" fill="#000000" fill-rule="nonzero" opacity="0.1" transform="translate(491.615952, 696.618345) rotate(-79.490000) translate(-491.615952, -696.618345) " cx="491.615952" cy="696.618345" rx="3.82" ry="7.65"></ellipse>
                <rect id="Rectangle" fill="#8ED16F" fill-rule="nonzero" transform="translate(563.474957, 653.077200) rotate(-61.580000) translate(-563.474957, -653.077200) " x="554.154957" y="634.9122" width="18.64" height="36.33"></rect>
                <ellipse id="Oval" fill="#8ED16F" fill-rule="nonzero" transform="translate(563.352899, 653.281509) rotate(-61.580000) translate(-563.352899, -653.281509) " cx="563.352899" cy="653.281509" rx="3.82" ry="7.65"></ellipse>
                <ellipse id="Oval" fill="#000000" fill-rule="nonzero" opacity="0.1" transform="translate(563.352899, 653.281509) rotate(-61.580000) translate(-563.352899, -653.281509) " cx="563.352899" cy="653.281509" rx="3.82" ry="7.65"></ellipse>
                <rect id="Rectangle" fill="#8ED16F" fill-rule="nonzero" transform="translate(544.850144, 655.024323) rotate(-79.490000) translate(-544.850144, -655.024323) " x="535.530144" y="636.859323" width="18.64" height="36.33"></rect>
                <rect id="Rectangle" fill="#000000" fill-rule="nonzero" opacity="0.05" transform="translate(544.850144, 655.024323) rotate(-79.490000) translate(-544.850144, -655.024323) " x="535.530144" y="636.859323" width="18.64" height="36.33"></rect>
                <ellipse id="Oval" fill="#8ED16F" fill-rule="nonzero" transform="translate(544.803905, 655.256518) rotate(-79.490000) translate(-544.803905, -655.256518) " cx="544.803905" cy="655.256518" rx="3.82" ry="7.65"></ellipse>
                <ellipse id="Oval" fill="#000000" fill-rule="nonzero" opacity="0.1" transform="translate(544.803905, 655.256518) rotate(-79.490000) translate(-544.803905, -655.256518) " cx="544.803905" cy="655.256518" rx="3.82" ry="7.65"></ellipse>
                <rect id="Rectangle" fill="#8ED16F" fill-rule="nonzero" transform="translate(548.195005, 666.025013) rotate(-79.490000) translate(-548.195005, -666.025013) " x="538.875005" y="647.860013" width="18.64" height="36.33"></rect>
                <ellipse id="Oval" fill="#8ED16F" fill-rule="nonzero" transform="translate(548.158599, 666.259031) rotate(-79.490000) translate(-548.158599, -666.259031) " cx="548.158599" cy="666.259031" rx="3.82" ry="7.65"></ellipse>
                <ellipse id="Oval" fill="#000000" fill-rule="nonzero" opacity="0.1" transform="translate(548.158599, 666.259031) rotate(-79.490000) translate(-548.158599, -666.259031) " cx="548.158599" cy="666.259031" rx="3.82" ry="7.65"></ellipse>
            </g>
        </g>
    </g>
</svg>