<?xml version="1.0" encoding="UTF-8"?>
<svg width="1010px" height="840px" viewBox="0 0 1010 840" version="1.1" xmlns="http://www.w3.org/2000/svg" xmlns:xlink="http://www.w3.org/1999/xlink">
    <!-- Generator: Sketch 53.1 (72631) - https://sketchapp.com -->
    <title>Нет офиса, нет босса Copy</title>
    <desc>Created with Sketch.</desc>
    <defs>
        <linearGradient x1="-0.028064714%" y1="49.9946923%" x2="100.009953%" y2="49.9946923%" id="linearGradient-1">
            <stop stop-color="#808080" stop-opacity="0.25" offset="0%"></stop>
            <stop stop-color="#808080" stop-opacity="0.12" offset="54%"></stop>
            <stop stop-color="#808080" stop-opacity="0.1" offset="100%"></stop>
        </linearGradient>
    </defs>
    <g id="Page-1" stroke="none" stroke-width="1" fill="none" fill-rule="evenodd">
        <g id="Artboard" transform="translate(-5788.000000, -2834.000000)" fill-rule="nonzero">
            <g id="Нет-офиса,-нет-босса-Copy" transform="translate(5787.000000, 2833.000000)">
                <path d="M587.55,112.4 C522.83,110.15 461.19,89.26 402.33,66.4 C343.47,43.54 285.17,18.21 222,6.1 C181.37,-1.69 134.9,-2.79 102.17,18.99 C70.66,39.99 60.48,76.14 55.01,109.72 C50.89,134.98 48.47,161.57 59.75,185.21 C67.59,201.63 81.49,215.43 91.11,231.16 C124.58,285.88 100.92,353.36 64.66,406.79 C47.66,431.86 27.91,455.79 14.78,482.45 C1.65,509.11 -4.42,539.7 7.07,566.92 C18.45,593.92 45.58,614.16 74.97,628.41 C134.66,657.36 204.97,665.64 273.58,670.33 C425.41,680.72 578.04,676.22 730.27,671.72 C786.61,670.05 843.19,668.36 898.61,659.65 C929.39,654.81 961.16,647.14 983.51,628.6 C1011.87,605.07 1018.9,565.23 999.89,535.72 C968.01,486.23 879.89,473.94 857.58,420.83 C845.32,391.59 857.91,359.03 875.74,331.91 C913.98,273.75 978.07,222.72 981.44,156.24 C983.76,110.58 952.95,64.85 905.31,43.24 C855.38,20.6 786.13,23.44 749.31,60.93 C711.36,99.53 644.7,114.38 587.55,112.4 Z" id="Path" fill="#FDE61D" opacity="0.24"></path>
                <ellipse id="Oval" fill="#FDE61D" opacity="0.24" cx="484.49" cy="781.99" rx="303.97" ry="41.12"></ellipse>
                <path d="M334.01,659.57 C334.01,659.57 355.01,656.21 367.61,671.05 C367.61,671.05 358.37,678.33 338.49,668.25 L334.01,659.57 Z" id="Path" fill="#FDE61D"></path>
                <path d="M331.77,659.24 C331.77,659.24 318.37,675.82 324.94,694.09 C324.94,694.09 335.86,689.72 337.05,667.46 L331.77,659.24 Z" id="Path" fill="#FDE61D"></path>
                <path d="M319.77,632.13 C319.77,632.13 328.17,616.73 361.77,638.29 C361.77,638.29 357.29,648.65 342.45,647.81 C327.61,646.97 323.64,640.25 319.77,632.13 Z" id="Path" fill="#FDE61D"></path>
                <path d="M317.56,631.02 C317.56,631.02 300.13,629.02 298.44,668.92 C298.44,668.92 309.49,671.22 317.34,658.59 C325.19,645.96 321.94,638.9 317.56,631.02 Z" id="Path" fill="#FDE61D"></path>
                <path d="M307.4,599.2 C307.4,599.2 317.2,572.03 352.77,591.35 C352.77,591.35 344.65,616.28 311.04,608.44 L307.4,599.2 Z" id="Path" fill="#FDE61D"></path>
                <path d="M296.48,558.59 C296.48,558.59 314.96,531.15 347.73,556.59 C347.73,556.59 336.25,582.35 299.28,568.35 L296.48,558.59 Z" id="Path" fill="#FDE61D"></path>
                <path d="M292.56,519.95 C292.56,519.95 314.12,494.75 346.56,519.95 C346.56,519.95 326.11,542.07 292.56,526.39 L292.56,519.95 Z" id="Path" fill="#FDE61D"></path>
                <path d="M289.2,482.43 C289.2,482.43 311.04,456.1 342.13,481.03 C342.13,481.03 317.48,504.27 289.2,488.59 L289.2,482.43 Z" id="Path" fill="#FDE61D"></path>
                <path d="M291.16,449.1 C291.16,449.1 314.16,415.22 343.25,438.18 C343.25,438.18 318.6,467.31 291.16,455.54 L291.16,449.1 Z" id="Path" fill="#FDE61D"></path>
                <path d="M296.48,410.18 C296.48,410.18 320.84,376.58 349.13,402.34 C349.13,402.34 320.28,431.46 296.48,416.34 L296.48,410.18 Z" id="Path" fill="#FDE61D"></path>
                <path d="M304.61,375.39 C304.61,375.39 333.44,343.82 358.61,356.39 C358.61,356.39 328.55,389.92 303.35,383.76 L304.61,375.39 Z" id="Path" fill="#FDE61D"></path>
                <path d="M314.68,342.42 C314.68,342.42 348.01,303.77 367.33,316.65 C367.33,316.65 342.81,346.65 312.33,349.7 L314.68,342.42 Z" id="Path" fill="#FDE61D"></path>
                <path d="M329.23,304.16 C329.23,304.16 358.37,272.58 379.65,280.42 C379.65,280.42 354.73,313.19 325.32,314.03 L329.23,304.16 Z" id="Path" fill="#FDE61D"></path>
                <path d="M342.41,268.38 C342.41,268.38 374.61,238.14 388.61,243.46 C388.61,243.46 365.37,277.06 341.01,275.1 L342.41,268.38 Z" id="Path" fill="#FDE61D"></path>
                <path d="M355.29,235.34 C355.29,235.34 383.01,199.22 398.13,202.02 C398.13,202.02 381.33,234.22 355.29,239.02 L355.29,235.34 Z" id="Path" fill="#FDE61D"></path>
                <path d="M369.26,190.82 C369.26,190.82 393.77,163.12 407,163.189868 C407,163.189868 387.66,200.19 368.26,199.85 L369.26,190.82 Z" id="Path" fill="#FDE61D"></path>
                <path d="M377.55,161.13 L401.21,103.45 C401.21,103.45 402.4,155.59 374.53,171.83 L377.55,161.13 Z" id="Path" fill="#FDE61D"></path>
                <path d="M387.15,97.52 C387.15,97.52 391.07,49.36 388.55,45.44 C388.55,45.44 405.48,85.44 386.99,118.8 L387.15,97.52 Z" id="Path" fill="#FDE61D"></path>
                <path d="M306.49,598.55 C306.49,598.55 281.94,583.34 266.06,620.55 C266.06,620.55 287.9,635.05 309.37,608.04 L306.49,598.55 Z" id="Path" fill="#FDE61D"></path>
                <path d="M295.7,557.04 C295.7,557.04 265.6,543.31 250.99,582.16 C250.99,582.16 274.25,598.16 298.44,566.86 L295.7,557.04 Z" id="Path" fill="#FDE61D"></path>
                <path d="M291.16,522.26 C291.16,522.26 269.6,497.06 237.16,522.26 C237.16,522.26 257.6,544.38 291.16,528.7 L291.16,522.26 Z" id="Path" fill="#FDE61D"></path>
                <path d="M288.47,482.43 C288.47,482.43 266.62,456.1 235.54,481.03 C235.54,481.03 260.18,504.27 288.47,488.59 L288.47,482.43 Z" id="Path" fill="#FDE61D"></path>
                <path d="M291.16,450.06 C291.16,450.06 275.84,412.11 242.54,428.43 C242.54,428.43 260.54,462.09 289.81,456.36 L291.16,450.06 Z" id="Path" fill="#FDE61D"></path>
                <path d="M298.41,409.99 C298.41,409.99 283.19,371.38 249.41,389.28 C249.41,389.28 270.09,424.67 296.91,415.96 L298.41,409.99 Z" id="Path" fill="#FDE61D"></path>
                <path d="M307.85,375.59 C307.85,375.59 301.85,333.25 273.9,329.46 C273.9,329.46 279.83,374.1 304.12,383.21 L307.85,375.59 Z" id="Path" fill="#FDE61D"></path>
                <path d="M315.4,342.49 C315.4,342.49 313.05,291.49 289.9,289.72 C289.9,289.72 290.68,328.42 312.79,349.72 L315.4,342.49 Z" id="Path" fill="#FDE61D"></path>
                <path d="M331.64,302.7 C331.64,302.7 324.73,260.3 302.64,255.11 C302.64,255.11 305.38,296.18 329.45,313.11 L331.64,302.7 Z" id="Path" fill="#FDE61D"></path>
                <path d="M345.03,268.69 C345.03,268.69 344.79,224.51 331.29,218.02 C331.29,218.02 322.92,258.02 341.12,274.33 L345.03,268.69 Z" id="Path" fill="#FDE61D"></path>
                <path d="M356.32,234.82 C356.32,234.82 354.42,189.32 340.45,182.91 C340.45,182.91 335.66,218.91 354.22,237.79 L356.32,234.82 Z" id="Path" fill="#FDE61D"></path>
                <path d="M371.22,194.42 C371.22,194.42 371.13,157.42 361.15,148.74 C361.15,148.74 351.23,189.28 366.01,201.86 L371.22,194.42 Z" id="Path" fill="#FDE61D"></path>
                <path d="M376.37,159.31 L366.67,97.72 C366.67,97.72 353.47,148.19 376.83,170.42 L376.37,159.31 Z" id="Path" fill="#FDE61D"></path>
                <path d="M378.27,98.1 C378.27,98.1 353.34,56.71 353.86,52.1 C353.86,52.1 356.5,95.5 387.86,117.1 L378.27,98.1 Z" id="Path" fill="#FDE61D"></path>
                <path d="M381.19,85.88 C381.19,85.88 357.67,27.07 347.03,22.31 C347.03,22.31 380.63,39.39 383.15,84.2 L381.19,85.88 Z" id="Path" fill="#FDE61D"></path>
                <path d="M368.13,200.17 L366.52,199.68 C386.37,134.95 391.33,93.68 380.47,83.34 L381.63,82.12 C393.13,93.03 388.47,133.82 368.13,200.17 Z" id="Path" fill="#444053"></path>
                <path d="M313.47,351.69 L311.1,350.85 C313.2,344.92 315.47,338.9 317.85,332.96 C338.57,281.32 356.21,233.29 367.52,196.41 L369.59,195.41 C358.26,232.36 340.94,282.24 320.19,333.94 C317.82,339.82 315.56,345.82 313.47,351.69 Z" id="Path" fill="#444053"></path>
                <path d="M363.56,708.02 C363.24,707.66 331.06,671.44 308.64,609.58 C295.493277,573.37625 288.169043,535.317238 286.94,496.82 C285.4,448.69 295.5,394.95 312.8,346.14 L314.68,348.34 C275.85,457.9 291.28,551.79 311.74,608.34 C333.94,669.63 365.74,705.47 366.06,705.82 L363.56,708.02 Z" id="Path" fill="#1C1B19"></path>
                <rect id="Rectangle" fill="#3A3768" x="643.8" y="290.82" width="8.86" height="73.02" rx="2.29"></rect>
                <rect id="Rectangle" fill="#3A3768" x="349.37" y="233.61" width="4.97" height="24.04" rx="2.29"></rect>
                <rect id="Rectangle" fill="#3A3768" x="349.19" y="277.63" width="5.6" height="41.84" rx="2.29"></rect>
                <rect id="Rectangle" fill="#3A3768" x="349.28" y="334.11" width="5.33" height="42.2" rx="2.29"></rect>
                <rect id="Rectangle" fill="#1C1B19" x="352.18" y="154.17" width="296.4" height="602.39" rx="38.99"></rect>
                <path d="M606.77,169.82 L572.77,169.82 L572.77,173.91 C572.770001,179.051629 570.726812,183.982524 567.090194,187.617266 C563.453576,191.252009 558.521628,193.292653 553.38,193.29 L445.25,193.29 C440.108372,193.292653 435.176424,191.252009 431.539806,187.617266 C427.903188,183.982524 425.859999,179.051629 425.86,173.91 L425.86,169.82 L394.03,169.82 C381.029217,169.82 370.49,180.359217 370.49,193.36 L370.49,717.33 C370.49,723.573196 372.9701,729.560687 377.384706,733.975294 C381.799313,738.3899 387.786804,740.87 394.03,740.87 L606.77,740.87 C619.770783,740.87 630.31,730.330783 630.31,717.33 L630.31,193.4 C630.32062,187.149876 627.84521,181.152104 623.429452,176.728842 C619.013694,172.305581 613.020133,169.819991 606.77,169.82 Z" id="Path" fill="#FDE61D"></path>
                <rect id="Rectangle" fill="#E6E8EC" x="471.79" y="172.16" width="41.39" height="8.4" rx="3.87"></rect>
                <circle id="Oval" fill="#E6E8EC" cx="524.21" cy="176.36" r="4.77"></circle>
                <path d="M751.2,127.75 C751.2,127.75 667,122.67 676.92,181.67 C676.92,181.67 674.92,192.1 684.4,196.83 C684.4,196.83 684.55,192.46 693.04,193.95 C696.062613,194.451035 699.133258,194.598694 702.19,194.39 C706.313543,194.118927 710.237289,192.515035 713.37,189.82 L713.37,189.82 C713.37,189.82 737.04,180.04 746.24,141.36 C746.24,141.36 753.05,132.92 752.78,130.75 L738.57,136.82 C738.57,136.82 743.43,147.07 739.57,155.59 C739.57,155.59 739.11,137.19 736.38,137.59 C735.83,137.67 729,141.14 729,141.14 C729,141.14 737.35,158.99 731.05,171.97 C731.05,171.97 733.44,149.97 726.39,142.43 L716.39,148.27 C716.39,148.27 726.15,166.71 719.53,181.76 C719.53,181.76 721.23,158.68 714.28,149.69 L705.22,156.76 C705.22,156.76 714.39,174.93 708.8,187.41 C708.8,187.41 708.07,160.55 703.26,158.52 C703.26,158.52 695.33,165.52 694.12,168.38 C694.12,168.38 700.4,181.58 696.5,188.54 C696.5,188.54 694.11,170.64 692.15,170.54 C692.15,170.54 684.25,182.4 683.43,190.54 C683.43,190.54 683.77,178.45 690.24,169.42 C690.24,169.42 682.6,170.73 678.14,175.68 C678.14,175.68 679.37,167.3 692.19,166.56 C692.19,166.56 698.72,157.56 700.46,157.02 C700.46,157.02 687.72,155.95 679.99,159.38 C679.99,159.38 686.79,151.47 702.8,155.07 L711.75,147.76 C711.75,147.76 694.97,145.47 687.85,148 C687.85,148 696.04,141 714.16,146.1 L723.9,140.28 C723.9,140.28 709.59,137.2 701.07,138.28 C701.07,138.28 710.07,133.43 726.76,138.69 L733.76,135.56 C733.76,135.56 723.28,133.5 720.21,133.17 C717.14,132.84 716.98,132 716.98,132 C723.619506,130.892852 730.436032,131.651013 736.67,134.19 C736.67,134.19 751.45,128.68 751.2,127.75 Z" id="Path" fill="#FDE61D"></path>
                <path d="M664.83,101.51 C664.83,101.51 626.83,99.22 631.27,125.88 C631.27,125.88 630.38,130.59 634.65,132.73 C634.65,132.73 634.72,130.73 638.56,131.42 C639.923936,131.649547 641.310266,131.716682 642.69,131.62 C644.555295,131.496686 646.328944,130.766153 647.74,129.54 L647.74,129.54 C647.74,129.54 658.44,125.12 662.6,107.64 C662.6,107.64 665.67,103.83 665.55,102.85 L659.13,105.59 C659.13,105.59 661.32,110.22 659.6,114.07 C659.6,114.07 659.39,105.76 658.16,105.95 C657.91,105.95 654.82,107.56 654.82,107.56 C654.82,107.56 658.6,115.63 655.75,121.49 C655.75,121.49 656.83,111.55 653.64,108.14 L649.12,110.82 C649.12,110.82 653.53,119.15 650.54,125.95 C650.54,125.95 651.31,115.52 648.17,111.46 L644.08,114.66 C644.08,114.66 648.22,122.87 645.7,128.51 C645.7,128.51 645.36,116.37 643.19,115.45 C643.19,115.45 639.61,118.61 639.06,119.91 C639.06,119.91 641.9,125.91 640.14,129.02 C640.14,129.02 639.06,120.93 638.14,120.89 C638.14,120.89 634.57,126.25 634.2,129.89 C634.378662,126.496096 635.440341,123.207649 637.28,120.35 C635.219877,120.740226 633.318653,121.723858 631.81,123.18 C631.81,123.18 632.37,119.39 638.16,119.06 C638.16,119.06 641.16,114.99 641.9,114.74 C641.9,114.74 636.14,114.26 632.65,115.81 C632.65,115.81 635.72,112.24 642.95,113.86 L646.95,110.56 C646.95,110.56 639.36,109.56 636.15,110.67 C636.15,110.67 639.85,107.51 648.04,109.81 L652.44,107.18 C652.44,107.18 645.97,105.79 642.12,106.29 C642.12,106.29 646.19,104.1 653.73,106.47 L656.88,105.06 C656.88,105.06 652.14,104.13 650.75,103.98 C649.36,103.83 649.29,103.45 649.29,103.45 C652.291974,102.950612 655.373702,103.296873 658.19,104.45 C658.19,104.45 664.95,101.93 664.83,101.51 Z" id="Path" fill="#FDE61D"></path>
                <rect id="Rectangle" fill="#1C1B19" opacity="0.3" x="396.91" y="227.18" width="206.95" height="439.24"></rect>
                <path d="M597.52,789.04 C597.52,789.04 592.64,777.68 590.46,772.44 C589.23,769.44 587.15,768.94 585.56,769.01 L585.65,768.01 L586.04,763.28 L586.12,762.28 C589.89,761.49 593.12,760.87 593.12,760.87 L590.77,639.55 C590.77,639.55 589.77,638.27 587.35,630.55 C586.15,626.7 580.35,621.97 574.93,618.2 C574.08,617.61 573.25,617.05 572.43,616.51 C574.40352,614.856667 576.477485,613.327075 578.64,611.93 C581.72,610.14 582.74,599.93 582.74,599.93 L582.23,600.93 C582.74,599.93 582.23,573.86 582.23,573.86 L580.43,546.8 C580.43,546.8 579.15,514.63 569.15,506.2 C559.15,497.77 546.52,494.82 546.52,494.82 L539.52,493.02 L539.52,493.02 L526.62,489.71 C526.26,489.12 525.91,488.5 525.62,487.85 C525.49,487.6 525.37,487.34 525.25,487.08 C533.247235,481.418275 538.000559,472.228515 538,462.43 C538.002188,460.808731 537.871753,459.190001 537.61,457.59 C537.61,457.29 537.5,456.98 537.44,456.68 C538.499964,455.954304 539.502887,455.148623 540.44,454.27 C541.967622,453.052865 543.215807,451.521622 544.1,449.78 L544.1,449.78 C544.238731,449.438739 544.352366,449.087807 544.44,448.73 C544.44,448.63 544.44,448.53 544.5,448.42 C544.56,448.31 544.59,447.89 544.62,447.62 C544.62,447.52 544.62,447.42 544.62,447.32 C544.62,447.03 544.62,446.73 544.62,446.44 C544.62,446.37 544.62,446.3 544.62,446.22 C544.62,445.89 544.57,445.56 544.52,445.22 C544.524679,445.200274 544.524679,445.179726 544.52,445.16 L544.52,445.16 C544.336897,443.998906 544.035323,442.859624 543.62,441.76 C542.62,439.18 541.32,436.76 540.85,434.01 C540.27,430.76 540.94,427.21 539.39,424.29 C538.086946,422.054546 535.853535,420.51793 533.3,420.1 C530.76154,419.708508 528.164531,420.005506 525.78,420.96 C524.613805,421.514467 523.356876,421.853262 522.07,421.96 C521.134186,421.905702 520.215985,421.682081 519.36,421.3 C516.390971,420.135286 513.571134,418.621302 510.96,416.79 C509.080638,415.307386 507.072668,413.995512 504.96,412.87 C502.810788,411.74833 500.272809,411.645637 498.04,412.59 C494.34,414.47 493.64,419.71 490.2,422.02 C487.83,423.62 484.74,423.46 481.88,423.56 C479.02,423.66 475.78,424.37 474.37,426.85 C473.37,428.57 473.61,430.62 473.8,432.63 L473.86,433.31 C473.86,433.55 473.86,433.8 473.92,434.04 C474.077602,436.611357 473.692602,439.187113 472.79,441.6 C471.41,445.26 468.79,448.87 468.88,452.6 L468.88,452.6 C468.888207,453.193597 468.965392,453.784228 469.11,454.36 C469.188254,454.64808 469.281718,454.931811 469.39,455.21 L469.39,455.21 C469.940623,456.44605 470.558205,457.651171 471.24,458.82 L471.33,458.98 C471.4,459.12 471.47,459.26 471.53,459.4 C471.59,459.54 471.71,459.78 471.78,459.97 C471.85,460.16 471.86,460.16 471.89,460.25 C471.92,460.34 472.02,460.62 472.07,460.81 C472.234993,461.37455 472.305941,461.962407 472.28,462.55 C472.162541,463.307874 472.099048,464.073132 472.09,464.84 C472.097181,465.631061 472.65527,466.30993 473.43,466.47 C473.842528,466.459639 474.24409,466.335017 474.59,466.11 C475.487181,465.598586 476.340139,465.013223 477.14,464.36 C477.14,464.68 477.14,465 477.2,465.36 C477.896309,472.517373 481.11882,479.192828 486.29,484.19 C486.29,484.5 486.29,484.82 486.22,485.19 C486.15,485.56 486.17,485.91 486.15,486.28 L486.15,486.28 L474.95,489.8 C474.95,489.8 475.01,490 475.13,490.34 L473.95,490.81 L473.95,490.81 C468.14,493.16 461.67,496.08 458.05,498.73 C456.45,499.89 454.99,500.84 453.68,501.63 C448.923644,504.540834 445.277019,508.958319 443.32,514.18 L443.17,514.56 C442.17,516.85 437.27,532.43 437.27,532.43 C437.27,532.43 433.68,541.11 433.16,546.73 C433.16,546.73 427.26,565.36 428.8,577.62 C428.8,577.62 424.18,595.24 425.98,598.04 C425.98,598.04 424.14,605.62 432.22,613.25 C431.63,613.61 430.99,614 430.32,614.43 C424.06,618.37 415.03,624.76 413.49,629.69 C411.1,637.36 410.07,638.69 410.07,638.69 L407.65,759.82 C407.65,759.82 410.88,760.44 414.65,761.22 L414.73,762.22 L415.12,766.94 L415.21,767.94 C413.62,767.87 411.54,768.42 410.31,771.38 C408.12,776.61 403.31,787.96 403.31,787.96 C403.31,787.96 392.54,797.96 399.07,807.24 C399.357759,807.663726 399.693297,808.05295 400.07,808.4 C404.76,812.66 414.76,809.93 421.87,807.15 C425.483135,805.607989 428.59837,803.095033 430.87,799.89 C431.449292,799.13111 432.319428,798.64891 433.27,798.56 C434.900511,798.297045 436.438119,797.626277 437.74,796.61 C439.331151,795.448283 440.25061,793.579463 440.2,791.61 C440.195054,791.560122 440.195054,791.509878 440.2,791.46 L439.57,777.23 C439.57,777.23 438.8,767.29 436.35,767.93 L435.72,768.08 L435.55,767.08 L435.55,767.08 L435.22,765.15 L435.05,764.15 L436.41,764.15 C436.41,764.15 436.75,752.91 440.86,744.07 C444.97,735.23 447.67,663.82 447.67,663.82 C447.67,663.82 498.54,664.65 500.24,659.88 L500.24,659.88 C501.24,659.88 502.33,659.88 503.37,659.81 C505.08,664.58 553.09,664.81 553.09,664.81 C553.09,664.81 555.82,736.3 559.92,745.15 C560.785181,747.045596 561.503949,749.004655 562.07,751.01 L562.07,751.01 C563.360505,755.647243 564.135196,760.412766 564.38,765.22 L565.74,765.22 L565.56,766.22 L565.23,768.14 L565.06,769.14 L564.41,768.99 C561.98,768.36 561.21,778.3 561.21,778.3 L560.56,792.62 C560.456975,794.581858 561.352353,796.462902 562.94,797.62 C564.264187,798.658953 565.829189,799.346867 567.49,799.62 C568.441923,799.69665 569.315503,800.177119 569.89,800.94 C572.163928,804.142873 575.27849,806.655286 578.89,808.2 C586.57,811.2 597.61,814.13 601.71,808.3 C608.29,799 597.52,789.04 597.52,789.04 Z M468.22,610.7 L468.22,610.7 L468.34,610.7 L468.22,610.7 Z M548.57,569.82 C548.57,569.82 549.86,574.67 552.16,577.22 C554.46,579.77 553.32,595.61 553.32,595.61 C552.414986,595.66743 551.517554,595.811421 550.64,596.04 C548.87,585.51 547.24,573.82 548.57,569.82 Z" id="Shape" fill="url(#linearGradient-1)"></path>
                <polygon id="Path" fill="#8E6F7F" points="437.96 769.43 417.85 771.43 417.29 764.7 416.9 760.07 416.35 753.3 435.35 754.3 436.86 762.99 437.18 764.88 437.19 764.88"></polygon>
                <polygon id="Path" fill="#8E6F7F" points="584.41 754.31 583.86 761.07 583.48 765.7 582.91 772.43 562.79 770.43 563.59 765.88 563.9 764 565.41 755.31"></polygon>
                <path d="M563.1,656.92 L503.3,659.73 C500.58,659.863333 497.86,659.863333 495.14,659.73 L438.01,656.93 L438.01,611.67 L563.1,611.67 L563.1,656.92 Z" id="Path" fill="#5F5570"></path>
                <path d="M563.1,656.92 L503.3,659.73 C500.58,659.863333 497.86,659.863333 495.14,659.73 L438.01,656.93 L438.01,611.67 L563.1,611.67 L563.1,656.92 Z" id="Path" fill="#000000" opacity="0.1"></path>
                <path d="M486.52,489.73 C486.52,489.73 466.6,496.42 459.1,501.92 C457.54,503.06 456.1,504 454.84,504.77 C450.20789,507.625892 446.663397,511.948274 444.77,517.05 C444.72,517.19 444.67,517.31 444.62,517.42 C443.62,519.67 438.87,534.92 438.87,534.92 C438.87,534.92 435.37,543.42 434.87,548.92 C434.37,554.42 463.37,569.17 463.37,569.17 C463.37,569.17 449.37,599.67 455.62,607.42 C461.87,615.17 553.12,618.92 551.12,607.42 C549.12,595.92 545.62,576.92 547.37,571.67 L578.37,549.17 C578.37,549.17 577.12,517.67 567.37,509.42 C557.62,501.17 545.37,498.17 545.37,498.17 L525.96,493.17 C525.96,493.17 519.12,510.17 511.62,512.42 C504.12,514.67 487.69,504.28 486.52,489.73 Z" id="Path" fill="#EAEAF2"></path>
                <path d="M514.5,518.36 C514.5,518.36 506.04,525.42 501.6,518.36 C501.6,518.36 497.6,530.3 501.6,534.3 L501.45,535.11 L500.74,538.67 L491.48,615.67 L499.1,628.82 L512.97,611.42 L511.85,539.42 L511.35,535.29 L511.23,534.29 L513.6,534.29 C513.6,534.29 519.89,523.42 514.5,518.36 Z" id="Path" fill="#000000" opacity="0.1"></path>
                <path d="M516.5,518.36 C516.5,518.36 508.04,525.42 503.6,518.36 C503.6,518.36 499.6,530.3 503.6,534.3 L503.45,535.11 L502.74,538.67 L493.48,615.67 L501.1,628.82 L514.97,611.42 L513.85,539.42 L513.35,535.29 L513.23,534.29 L515.6,534.29 C515.6,534.29 521.89,523.42 516.5,518.36 Z" id="Path" fill="#000000" opacity="0.1"></path>
                <polygon id="Path" fill="#BC8487" points="513.97 610.43 500.1 627.8 492.46 614.72 501.73 537.68 502.44 534.12 502.6 533.3 503.85 530.06 512.23 533.3 512.35 534.3 512.85 538.43"></polygon>
                <path d="M436.86,762.98 C432.54478,762.952478 428.242001,762.513829 424.01,761.67 C421.92,761.15 419.3,760.57 416.91,760.06 L416.35,753.29 L435.35,754.29 L436.86,762.98 Z" id="Path" fill="#000000" opacity="0.1"></path>
                <path d="M500.25,659.82 C498.59,664.49 449.01,663.67 449.01,663.67 C449.01,663.67 446.35,733.67 442.35,742.34 C438.35,751.01 438.01,762 438.01,762 C438.01,762 429.35,762 424.01,760.67 C418.67,759.34 410.01,757.67 410.01,757.67 L412.35,638.92 C412.35,638.92 413.35,637.67 415.68,630.16 C417.18,625.33 425.98,619.07 432.07,615.16 C435.47,613.02 438.01,611.62 438.01,611.62 L467.59,612.82 L485.85,613.56 C485.85,613.56 501.92,655.15 500.25,659.82 Z" id="Path" fill="#5F5570"></path>
                <path d="M437.97,769.42 L417.85,771.42 L417.28,764.69 C418.033675,764.71098 418.776643,764.873822 419.47,765.17 C423.14,767.81 433.63,765.71 437.18,764.87 L437.18,764.87 L437.97,769.42 Z" id="Path" fill="#000000" opacity="0.1"></path>
                <path d="M441.77,788.87 C441.8182,790.79681 440.91743,792.624513 439.36,793.76 C438.09404,794.752927 436.597741,795.409923 435.01,795.67 C434.083061,795.749855 433.23479,796.223139 432.68,796.97 C430.457241,800.105022 427.41201,802.56543 423.88,804.08 C416.95,806.8 407.2,809.47 402.63,805.3 C402.252736,804.96462 401.91701,804.585251 401.63,804.17 C395.26,795.05 405.76,785.29 405.76,785.29 C405.76,785.29 410.5,774.17 412.63,769.05 C413.095277,767.706606 414.110435,766.6248 415.421571,766.075154 C416.732707,765.525507 418.215832,765.559998 419.5,766.17 C423.5,769.05 435.63,766.29 438,765.68 C440.37,765.07 441.13,774.79 441.13,774.79 L441.77,788.72 C441.765054,788.769878 441.765054,788.820122 441.77,788.87 Z" id="Path" fill="#BC8487"></path>
                <path d="M584.42,754.3 L583.86,761.06 C581.47,761.57 578.86,762.15 576.75,762.67 C572.521437,763.515478 568.222136,763.957463 563.91,763.99 L565.42,755.3 L584.42,754.3 Z" id="Path" fill="#000000" opacity="0.1"></path>
                <path d="M590.77,758.67 C590.77,758.67 582.11,760.34 576.77,761.67 C571.43,763 562.77,763 562.77,763 C562.77,763 562.44,752 558.44,743.34 C554.44,734.68 551.77,664.67 551.77,664.67 C551.77,664.67 504.99,664.4 503.32,659.73 C501.65,655.06 523.71,614.73 523.71,614.73 L537.16,614.03 L562.77,612.67 C562.77,612.67 567.77,615.39 573.01,619.06 C578.25,622.73 583.94,627.39 585.11,631.16 C587.44,638.67 588.44,639.92 588.44,639.92 L590.77,758.67 Z" id="Path" fill="#5F5570"></path>
                <path d="M583.48,765.69 L582.92,772.42 L562.79,770.42 L563.59,765.87 C567.14,766.72 577.59,768.81 581.29,766.17 C581.983357,765.873822 582.726325,765.71098 583.48,765.69 L583.48,765.69 Z" id="Path" fill="#000000" opacity="0.1"></path>
                <path d="M581.29,767.17 C582.575181,766.556518 584.06098,766.520166 585.374625,767.070064 C586.688269,767.619961 587.705098,768.703925 588.17,770.05 C590.29,775.17 595.04,786.3 595.04,786.3 C595.04,786.3 605.54,796.05 599.17,805.17 C595.17,810.89 584.41,808.02 576.93,805.08 C573.394457,803.571299 570.347763,801.109709 568.13,797.97 C567.572086,797.221644 566.720144,796.748343 565.79,796.67 C564.165427,796.387102 562.638381,795.699243 561.35,794.67 C559.812437,793.531933 558.945554,791.700596 559.04,789.79 L559.67,775.79 C559.67,775.79 560.42,766.06 562.79,766.67 C565.16,767.28 577.29,770.05 581.29,767.17 Z" id="Path" fill="#BC8487"></path>
                <path d="M529.6,498.17 L509.41,519.57 L508.85,520.17 L508.12,519.74 C503.9,517.24 482.79,504.5 484.6,500.67 C485.6,498.49 486.19,493.95 486.5,490.04 C486.5,489.57 486.56,489.11 486.6,488.66 C486.8,485.57 486.85,483.17 486.85,483.17 C486.85,483.17 524.85,476.67 523.35,483.17 C522.74,485.8 523.65,488.76 524.94,491.35 C525.32,492.1 525.74,492.81 526.15,493.48 C527.159574,495.141926 528.314066,496.711366 529.6,498.17 Z" id="Path" fill="#FFC4D0"></path>
                <path d="M524.94,491.35 C513.230298,499.97921 496.990032,498.839765 486.6,488.66 C486.8,485.57 486.85,483.17 486.85,483.17 C486.85,483.17 524.85,476.67 523.35,483.17 C522.77,485.82 523.65,488.76 524.94,491.35 Z" id="Path" fill="#000000" opacity="0.1"></path>
                <path d="M537.01,466.46 C537.238126,482.46002 524.737345,495.758564 508.753798,496.519428 C492.770251,497.280293 479.062758,485.229341 477.77,469.28 C477.69,468.346667 477.65,467.406667 477.65,466.46 C477.453021,455.731894 483.063662,445.733335 492.323035,440.311613 C501.582408,434.889891 513.047592,434.889891 522.306965,440.311613 C531.566338,445.733335 537.176979,455.731894 536.98,466.46 L537.01,466.46 Z" id="Path" fill="#FFC4D0"></path>
                <path d="M536.64,461.72 C535.078374,462.992015 533.049982,463.540917 531.06,463.23 C526.48,462.23 524.91,455.23 520.23,454.75 C515.55,454.27 512.44,460.75 507.7,460.62 C505.7,460.57 503.9,459.26 502.06,458.35 C498.84,456.76 493.54,455.79 490.06,456.99 C484.83,458.78 483.06,463.62 479.72,467.47 C479.149381,468.125516 478.52377,468.731054 477.85,469.28 C477.77,468.346667 477.73,467.406667 477.73,466.46 C477.588764,450.892182 489.504319,437.862863 505.022777,436.616126 C520.541235,435.369389 534.38406,446.329306 536.73,461.72 L536.64,461.72 Z" id="Path" fill="#000000" opacity="0.1"></path>
                <path d="M502.06,457.36 C503.9,458.26 505.66,459.58 507.7,459.63 C512.43,459.75 515.52,453.24 520.22,453.75 C524.92,454.26 526.47,461.2 531.07,462.23 C534.16,462.93 537.07,460.62 539.38,458.47 C540.872664,457.281244 542.090514,455.783664 542.95,454.08 C543.95,451.6 543.43,448.74 542.5,446.22 C541.57,443.7 540.26,441.28 539.8,438.63 C539.24,435.45 539.89,431.97 538.38,429.11 C537.114759,426.921962 534.934519,425.417083 532.44,425.01 C529.966402,424.626399 527.435196,424.913016 525.11,425.84 C523.977348,426.389711 522.75406,426.728572 521.5,426.84 C520.584819,426.784104 519.687173,426.563926 518.85,426.19 C515.957838,425.050148 513.211811,423.569711 510.67,421.78 C508.847452,420.325418 506.896036,419.040094 504.84,417.94 C502.748112,416.841535 500.273051,416.742386 498.1,417.67 C494.5,419.51 493.81,424.67 490.46,426.9 C488.15,428.46 485.14,428.3 482.36,428.41 C479.58,428.52 476.36,429.19 475.04,431.62 C473.86,433.71 474.45,436.28 474.6,438.67 C474.749482,441.187056 474.371404,443.707577 473.49,446.07 C471.94,450.21 468.79,454.29 469.91,458.57 C470.64,461.38 473.16,463.71 473.01,466.57 C472.892133,467.307676 472.828629,468.053016 472.82,468.8 C472.826857,469.574751 473.37184,470.240378 474.13,470.4 C474.530982,470.394997 474.9212,470.26957 475.25,470.04 C476.912651,469.109932 478.404121,467.902551 479.66,466.47 C483.04,462.61 484.79,457.78 490.02,455.99 C493.55,454.82 498.84,455.76 502.06,457.36 Z" id="Path" fill="#8E6F7F"></path>
                <path d="M536.47,631.92 L531.07,633.39 L518.6,636.82 C515.713867,638.969984 512.465891,640.585505 509.01,641.59 C501.38,643.52 496.45,639.32 492.35,632.82 C490.7,630.22 491.53,628.14 493.69,626.51 C498.89,622.58 511.75,621.3 515.69,621.82 C518.277655,622.030754 520.878465,621.626411 523.28,620.64 C524.984736,620.019802 526.628413,619.243156 528.19,618.32 L536.47,631.92 Z" id="Path" fill="#FFC4D0"></path>
                <path d="M536.47,631.92 L531.07,633.39 C529.52,628.72 526.97,622.86 523.32,620.61 C525.024736,619.989802 526.668413,619.213156 528.23,618.29 L536.47,631.92 Z" id="Path" fill="#000000" opacity="0.1"></path>
                <path d="M572.99,619.06 C570.75,620.87 568.85,622.52 568.85,622.52 C568.85,622.52 542.85,630.67 537.85,640.92 C537.85,640.92 533.85,620.92 525.35,620.67 C525.35,620.67 534.5,617.08 537.14,614.01 L562.77,612.67 C562.77,612.67 567.77,615.39 572.99,619.06 Z" id="Path" fill="#000000" opacity="0.1"></path>
                <path d="M572.6,540.67 L578.35,549.17 L580.1,575.67 C580.1,575.67 580.6,601.17 580.1,602.17 L580.6,601.17 C580.6,601.17 579.6,611.17 576.6,612.92 C573.6,614.67 566.85,620.52 566.85,620.52 C566.85,620.52 540.85,628.67 535.85,638.92 C535.85,638.92 531.85,618.92 523.35,618.67 C523.35,618.67 536.1,613.67 535.85,610.42 C535.85,610.42 545.6,601.67 546.35,599.42 C547.1,597.17 551.97,596.92 551.97,596.92 C551.97,596.92 553.1,581.42 550.85,578.92 C548.6,576.42 547.35,571.67 547.35,571.67 L572.6,540.67 Z" id="Path" fill="#EAEAF2"></path>
                <path d="M509.01,641.56 C501.38,643.49 496.45,639.29 492.35,632.79 C490.7,630.19 491.53,628.11 493.69,626.48 L494.47,626.79 C494.47,626.79 508.22,632.75 509.01,641.56 Z" id="Path" fill="#000000" opacity="0.1"></path>
                <path d="M505.85,649.55 C496.85,662.05 480.1,644.67 478.85,641.17 C478.4,639.9 476.69,638.77 474.72,637.86 C472.220722,636.768065 469.626511,635.907791 466.97,635.29 L481.85,623.17 L484.7,624.31 L493.47,627.82 C493.47,627.82 514.85,637.05 505.85,649.55 Z" id="Path" fill="#FFC4D0"></path>
                <path d="M484.7,624.31 C476.5,628.21 474.75,633.82 474.7,637.86 C472.200722,636.768065 469.606511,635.907791 466.95,635.29 L481.83,623.17 L484.7,624.31 Z" id="Path" fill="#000000" opacity="0.1"></path>
                <path d="M471.6,645.92 C471.6,645.92 447.6,626.92 436.1,618.67 C434.660927,617.644893 433.321672,616.486437 432.1,615.21 C435.5,613.07 438.04,611.67 438.04,611.67 L467.62,612.87 C468.41,614.24 468.88,615.17 468.88,615.17 L484.88,625.67 C465.6,631.92 471.6,645.92 471.6,645.92 Z" id="Path" fill="#000000" opacity="0.1"></path>
                <path d="M439.6,546.17 L434.85,548.92 C434.85,548.92 429.1,567.17 430.6,579.17 C430.6,579.17 426.1,596.42 427.85,599.17 C427.85,599.17 425.6,608.42 437.1,616.67 C448.6,624.92 472.6,643.92 472.6,643.92 C472.6,643.92 466.6,629.92 485.85,623.67 L469.85,613.17 C469.85,613.17 464.48,602.51 459.35,600.17 C459.35,600.17 455.35,596.17 457.85,593.42 C460.35,590.67 462.35,587.67 462.35,584.92 C462.35,582.17 463.35,569.17 463.35,569.17 L466.35,555.17 L439.6,546.17 Z" id="Path" fill="#EAEAF2"></path>
                <path d="M512.35,534.29 L502.6,534.29 C502.54117,534.235121 502.487604,534.174858 502.44,534.11 L502.6,533.29 L503.85,530.05 L512.23,533.29 L512.35,534.29 Z" id="Path" fill="#000000" opacity="0.1"></path>
                <path d="M515.5,517.36 C515.5,517.36 507.04,524.42 502.6,517.36 C502.6,517.36 498.6,529.3 502.6,533.3 L514.6,533.3 C514.6,533.3 520.89,522.42 515.5,517.36 Z" id="Path" fill="#BC8487"></path>
                <path d="M526.94,494.17 L539.54,497.42 C539.54,497.42 527.6,528.42 524.97,528.42 L509.85,521.17 L526.94,494.17 Z" id="Path" fill="#000000" opacity="0.1"></path>
                <path d="M529.6,498.17 L509.41,519.57 L508.85,520.17 L508.12,519.74 L525.77,492.82 L526.2,493.53 C527.196113,495.172684 528.333768,496.725248 529.6,498.17 L529.6,498.17 Z" id="Path" fill="#000000" opacity="0.1"></path>
                <path d="M525.94,493.17 L538.54,496.42 C538.54,496.42 526.6,527.42 523.97,527.42 L508.85,520.17 L525.94,493.17 Z" id="Path" fill="#EAEAF2"></path>
                <path d="M485.52,490.73 L474.6,494.17 C474.6,494.17 485.35,526.67 488.35,528.42 L507.85,521.17 L485.52,490.73 Z" id="Path" fill="#000000" opacity="0.1"></path>
                <path d="M509.41,519.57 L508.85,520.17 C508.85,520.17 482.6,504.92 484.6,500.67 C485.6,498.49 486.19,493.95 486.5,490.04 L486.5,489.43 L509.41,519.57 Z" id="Path" fill="#000000" opacity="0.1"></path>
                <path d="M486.52,489.73 L475.6,493.17 C475.6,493.17 486.35,525.67 489.35,527.42 L508.85,520.17 L486.52,489.73 Z" id="Path" fill="#EAEAF2"></path>
                <path d="M460.51,542.82 C460.51,542.82 467.09,543.99 466.97,550.82 C466.85,557.65 469.68,541.99 469.68,541.99 L460.51,542.82 Z" id="Path" fill="#000000" opacity="0.1"></path>
                <path d="M462.01,563.82 C462.01,563.82 460.18,574.15 462.01,583.49 C463.84,592.83 463.68,595.99 465.1,596.49 C466.52,596.99 462.01,563.82 462.01,563.82 Z" id="Path" fill="#000000" opacity="0.1"></path>
                <path d="M546.01,562.82 C544.947267,562.954801 543.998815,563.553373 543.419822,564.454672 C542.840829,565.35597 542.690764,566.467425 543.01,567.49 C543.85,571.67 546.01,562.82 546.01,562.82 Z" id="Path" fill="#000000" opacity="0.1"></path>
                <path d="M431.68,597.82 C431.68,597.82 453.11,595.99 456.68,599.82 C460.25,603.65 431.68,597.82 431.68,597.82 Z" id="Path" fill="#000000" opacity="0.1"></path>
                <path d="M556.01,599.27 C556.01,599.27 571.68,597.34 575.35,600.01" id="Path" fill="#000000" opacity="0.1"></path>
                <path d="M562.35,601.82 C562.35,601.82 571.68,602.15 573.85,603.32" id="Path" fill="#000000" opacity="0.1"></path>
                <path d="M564.18,605.17 C564.18,605.17 572.68,604.84 573.85,606.17" id="Path" fill="#000000" opacity="0.1"></path>
                <path d="M444.31,652.17 C444.31,652.17 451.59,655.96 450.85,659.83 C450.11,663.7 444.31,652.17 444.31,652.17 Z" id="Path" fill="#000000" opacity="0.1"></path>
                <path d="M438.01,654.01 C438.01,654.01 449.12,668.42 447.61,673.17 C446.1,677.92 438.01,654.01 438.01,654.01 Z" id="Path" fill="#000000" opacity="0.1"></path>
                <path d="M557.1,656.4 C557.1,656.4 551.6,660.93 551.75,664.67" id="Path" fill="#000000" opacity="0.1"></path>
                <path d="M430.1,745.67 C430.1,745.67 430.1,749.92 437.97,756.17" id="Path" fill="#000000" opacity="0.1"></path>
                <path d="M569.01,735.67 C569.01,735.67 568.17,744.51 560.51,749.09" id="Path" fill="#000000" opacity="0.1"></path>
                <g id="Group" opacity="0.1" transform="translate(469.000000, 433.000000)" fill="#000000">
                    <path d="M5.6,2.63 C5.6,1.94 5.48,1.23 5.42,0.53 C5.29254119,2.05702827 5.33951087,3.59360769 5.56,5.11 C5.62837955,4.28513826 5.64174245,3.4566379 5.6,2.63 Z" id="Path"></path>
                    <path d="M4.01,30.57 C4.16,27.67 1.64,25.34 0.91,22.57 C0.872785255,22.4356044 0.846038559,22.2985276 0.83,22.16 C0.601745723,23.288384 0.629081262,24.4535614 0.91,25.57 C1.5,27.86 3.28,29.82 3.84,32.04 C3.89,31.52 3.99,31.05 4.01,30.57 Z" id="Path"></path>
                    <path d="M73.95,18.08 C73.0878706,19.7819494 71.8704467,21.2790057 70.38,22.47 C68.05,24.62 65.16,26.93 62.07,26.23 C57.48,25.23 55.9,18.23 51.22,17.75 C46.54,17.27 43.43,23.75 38.7,23.62 C36.7,23.57 34.9,22.26 33.06,21.35 C29.84,19.76 24.55,18.79 21.06,19.99 C15.83,21.78 14.06,26.62 10.7,30.47 C9.44590946,31.9031255 7.958217,33.1135662 6.3,34.05 C5.96417279,34.2715224 5.57224606,34.3929156 5.17,34.4 C4.65854107,34.3311738 4.22731349,33.9846516 4.05,33.5 L4.05,33.57 C3.932145,34.3110365 3.86864229,35.0596999 3.86,35.81 C3.87150927,36.5809864 4.41545744,37.2411983 5.17,37.4 C5.57224606,37.3929156 5.96417279,37.2715224 6.3,37.05 C7.958217,36.1135662 9.44590946,34.9031255 10.7,33.47 C14.08,29.62 15.83,24.78 21.06,22.99 C24.59,21.79 29.88,22.76 33.06,24.35 C34.9,25.26 36.66,26.57 38.7,26.62 C43.43,26.74 46.52,20.23 51.22,20.75 C55.92,21.27 57.48,28.19 62.07,29.23 C65.16,29.93 68.07,27.62 70.38,25.47 C71.8704467,24.2790057 73.0878706,22.7819494 73.95,21.08 C74.507207,19.6347929 74.6559711,18.0641204 74.38,16.54 C74.2953606,17.0679417 74.151105,17.584578 73.95,18.08 Z" id="Path"></path>
                </g>
                <path d="M405.77,785.3 C405.77,785.3 413.94,782.78 417.33,787.56" id="Path" fill="#000000" opacity="0.1"></path>
                <path d="M595.04,786.3 C595.04,786.3 581.51,785.51 582.04,789.17" id="Path" fill="#000000" opacity="0.1"></path>
                <ellipse id="Oval" fill="#FDE61D" opacity="0.24" cx="865.17" cy="774.34" rx="26.93" ry="4.55"></ellipse>
                <ellipse id="Oval" fill="#FDE61D" opacity="0.24" cx="92.09" cy="811.68" rx="26.93" ry="4.55"></ellipse>
                <ellipse id="Oval" fill="#FDE61D" opacity="0.24" cx="196.26" cy="836.09" rx="26.93" ry="4.55"></ellipse>
                <ellipse id="Oval" fill="#1C1B19" cx="806.22" cy="823.1" rx="40.21" ry="6.8"></ellipse>
                <path d="M822.85,811.98 C824.682558,810.481492 826.017919,808.462761 826.68,806.19 C827.18,803.9 826.2,801.19 824,800.3 C821.54,799.36 818.91,801.07 816.92,802.79 C814.93,804.51 812.64,806.48 810.03,806.11 C812.76238,803.638596 813.996336,799.913946 813.28,796.3 C813.162829,795.563392 812.848366,794.872264 812.37,794.3 C811.01,792.84 808.53,793.46 806.9,794.62 C801.7,798.27 800.25,805.34 800.22,811.69 C799.69,809.4 800.14,807.01 800.12,804.69 C800.1,802.37 799.47,799.69 797.48,798.46 C796.252244,797.801117 794.872716,797.476928 793.48,797.52 C791.14,797.43 788.54,797.67 786.94,799.38 C784.94,801.5 785.48,805.06 787.2,807.38 C788.92,809.7 791.55,811.19 793.97,812.8 C795.905902,813.954273 797.556796,815.529971 798.8,817.41 C798.949817,817.672756 799.070531,817.951069 799.16,818.24 L813.77,818.24 C817.064411,816.571162 820.118622,814.465505 822.85,811.98 L822.85,811.98 Z" id="Path" fill="#FDE61D"></path>
                <path d="M197.65,724.27 C197.65,724.27 203.15,731.46 195.12,742.27 C187.09,753.08 180.47,762.27 183.12,769.04 C183.12,769.04 195.24,748.89 205.12,748.61 C215,748.33 208.5,736.39 197.65,724.27 Z" id="Path" fill="#FDE61D"></path>
                <path d="M197.65,724.27 C198.129559,724.965855 198.50674,725.726952 198.77,726.53 C208.39,737.83 213.52,748.38 204.27,748.64 C195.66,748.89 185.33,764.29 182.85,768.18 C182.93,768.48 183.03,768.77 183.14,769.07 C183.14,769.07 195.26,748.92 205.14,748.64 C215.02,748.36 208.5,736.39 197.65,724.27 Z" id="Path" fill="#000000" opacity="0.1"></path>
                <path d="M207.86,733.43 C207.86,735.96 207.58,738.01 207.23,738.01 C206.88,738.01 206.6,735.96 206.6,733.43 C206.6,730.9 206.95,732.09 207.3,732.09 C207.65,732.09 207.86,730.9 207.86,733.43 Z" id="Path" fill="#FFD037"></path>
                <path d="M211.37,736.45 C209.15,737.66 207.21,738.39 207.05,738.08 C206.89,737.77 208.54,736.54 210.76,735.33 C212.98,734.12 212.11,735 212.27,735.33 C212.43,735.66 213.59,735.24 211.37,736.45 Z" id="Path" fill="#FFD037"></path>
                <path d="M168.64,724.27 C168.64,724.27 163.14,731.46 171.17,742.27 C179.2,753.08 185.82,762.27 183.17,769.04 C183.17,769.04 171.06,748.89 161.17,748.61 C151.28,748.33 157.77,736.39 168.64,724.27 Z" id="Path" fill="#FDE61D"></path>
                <path d="M168.64,724.27 C168.158932,724.966447 167.778517,725.727277 167.51,726.53 C157.89,737.83 152.77,748.38 162.01,748.64 C170.63,748.89 180.96,764.29 183.44,768.18 C183.358061,768.482452 183.257878,768.779663 183.14,769.07 C183.14,769.07 171.03,748.92 161.14,748.64 C151.25,748.36 157.77,736.39 168.64,724.27 Z" id="Path" fill="#000000" opacity="0.1"></path>
                <path d="M158.42,733.43 C158.42,735.96 158.71,738.01 159.06,738.01 C159.41,738.01 159.69,735.96 159.69,733.43 C159.69,730.9 159.34,732.09 158.99,732.09 C158.64,732.09 158.42,730.9 158.42,733.43 Z" id="Path" fill="#FFD037"></path>
                <path d="M154.92,736.45 C157.14,737.66 159.07,738.39 159.24,738.08 C159.41,737.77 157.74,736.54 155.52,735.33 C153.3,734.12 154.18,735 154.01,735.33 C153.84,735.66 152.7,735.24 154.92,736.45 Z" id="Path" fill="#FFD037"></path>
                <path d="M160.17,768.13 C160.17,768.13 175.53,767.65 180.17,764.36 C184.81,761.07 203.8,757.12 204.94,762.41 C206.08,767.7 228.03,788.7 210.69,788.84 C193.35,788.98 170.39,786.14 165.77,783.33 C161.15,780.52 160.17,768.13 160.17,768.13 Z" id="Path" fill="#1C1B19"></path>
                <path d="M210.99,787 C193.65,787.14 170.69,784.3 166.07,781.49 C162.56,779.34 161.15,771.65 160.68,768.11 L160.17,768.11 C160.17,768.11 161.17,780.49 165.76,783.31 C170.35,786.13 193.34,788.96 210.68,788.82 C215.68,788.82 217.41,787 217.32,784.36 C216.62,785.98 214.71,786.97 210.99,787 Z" id="Path" fill="#000000" opacity="0.2"></path>
            </g>
        </g>
    </g>
</svg>