<?xml version="1.0" encoding="UTF-8"?>
<svg width="124px" height="38px" viewBox="0 0 124 38" version="1.1" xmlns="http://www.w3.org/2000/svg" xmlns:xlink="http://www.w3.org/1999/xlink">
    <!-- Generator: Sketch 53.1 (72631) - https://sketchapp.com -->
    <title>ic_appstore</title>
    <desc>Created with Sketch.</desc>
    <defs>
        <rect id="path-1" x="0" y="0" width="124" height="38" rx="3.06976406"></rect>
    </defs>
    <g id="Page-1" stroke="none" stroke-width="1" fill="none" fill-rule="evenodd">
        <g id="ic_appstore">
            <g id="backfround-copy" stroke-linejoin="square">
                <rect stroke="#A6A6A6" stroke-width="0.767441016" fill="#000000" fill-rule="evenodd" x="0.383720508" y="0.383720508" width="123.232559" height="37.232559" rx="3.06976406"></rect>
                <rect stroke="#8F8F8F" stroke-width="0.5" x="0.25" y="0.25" width="123.5" height="37.5" rx="3.06976406"></rect>
            </g>
            <path d="M47.595765,29.1832947 L49.6798785,29.1832947 L45.1175964,16.1377565 L43.0072126,16.1377565 L38.4449305,29.1832947 L40.4589898,29.1832947 L41.6236414,25.7207575 L46.4398701,25.7207575 L47.595765,29.1832947 Z M43.9617015,18.506385 L44.1105668,18.506385 L45.9407337,24.0211309 L42.1227778,24.0211309 L43.9617015,18.506385 Z M55.2059401,19.175387 C53.9099368,19.175387 52.789069,19.844389 52.2111215,20.9654193 L52.0710131,20.9654193 L52.0710131,19.3381172 L50.2583597,19.3381172 L50.2583597,32.3746148 L52.1410673,32.3746148 L52.1410673,27.6916011 L52.2899326,27.6916011 C52.789069,28.7312663 53.8661529,29.3460249 55.2234537,29.3460249 C57.631568,29.3460249 59.1640044,27.3842218 59.1640044,24.2561857 C59.1640044,21.1281495 57.631568,19.175387 55.2059401,19.175387 L55.2059401,19.175387 Z M54.6717766,27.6011954 C53.0955563,27.6011954 52.1060402,26.3174349 52.1060402,24.2652262 C52.1060402,22.2039769 53.0955563,20.9202164 54.6805333,20.9202164 C56.2742672,20.9202164 57.2287562,22.1768552 57.2287562,24.2561857 C57.2287562,26.3445566 56.2742672,27.6011954 54.6717766,27.6011954 L54.6717766,27.6011954 Z M64.970283,19.175387 C63.6742796,19.175387 62.5534118,19.844389 61.9754644,20.9654193 L61.8353559,20.9654193 L61.8353559,19.3381172 L60.0227026,19.3381172 L60.0227026,32.3746148 L61.9054102,32.3746148 L61.9054102,27.6916011 L62.0542754,27.6916011 C62.5534118,28.7312663 63.6304957,29.3460249 64.9877965,29.3460249 C67.3959109,29.3460249 68.9283473,27.3842218 68.9283473,24.2561857 C68.9283473,21.1281495 67.3959109,19.175387 64.970283,19.175387 L64.970283,19.175387 Z M64.4361194,27.6011954 C62.8598991,27.6011954 61.870383,26.3174349 61.870383,24.2652262 C61.870383,22.2039769 62.8598991,20.9202164 64.4448762,20.9202164 C66.0386101,20.9202164 66.993099,22.1768552 66.993099,24.2561857 C66.993099,26.3445566 66.0386101,27.6011954 64.4361194,27.6011954 L64.4361194,27.6011954 Z M72.9137495,25.6755547 C73.053858,28.008021 74.9365655,29.4997145 77.738735,29.4997145 C80.7335535,29.4997145 82.6075043,27.9356964 82.6075043,25.4404999 C82.6075043,23.4786969 81.5391772,22.3938289 78.9471705,21.7700297 L77.5548426,21.4174476 C75.9085681,21.0196627 75.2430528,20.4862692 75.2430528,19.5550908 C75.2430528,18.3798171 76.2763528,17.6113689 77.8263028,17.6113689 C79.2974417,17.6113689 80.3132281,18.361736 80.4971205,19.5641314 L82.4060984,19.5641314 C82.2922603,17.3672736 80.4183095,15.8213366 77.8525731,15.8213366 C75.0941876,15.8213366 73.2552639,17.3672736 73.2552639,19.6906993 C73.2552639,21.6072995 74.2973206,22.746411 76.5828401,23.2978855 L78.211601,23.7047111 C79.8841459,24.1115366 80.6197154,24.708214 80.6197154,25.7026764 C80.6197154,26.8598689 79.4638205,27.7006417 77.8876002,27.7006417 C76.1975418,27.7006417 75.0241333,26.9141123 74.8577545,25.6755547 L72.9137495,25.6755547 Z M84.2280423,16.9514075 L84.2280423,19.38332 L82.6605788,19.38332 L82.6605788,21.0196627 L84.2280423,21.0196627 L84.2280423,26.5796114 C84.2280423,28.4781304 85.0599364,29.2375381 87.1528066,29.2375381 C87.5205914,29.2375381 87.8621058,29.1923352 88.1598363,29.1380918 L88.1598363,27.5198303 C87.8971329,27.546952 87.7482676,27.5650332 87.4592939,27.5650332 C86.5223185,27.5650332 86.1107499,27.1130048 86.1107499,26.0823802 L86.1107499,21.0196627 L88.2474041,21.0196627 L88.2474041,19.38332 L86.1107499,19.38332 L86.1107499,16.9514075 L84.2280423,16.9514075 Z M92.9153013,27.6463983 C91.2777835,27.6463983 90.3583217,26.4078406 90.3583217,24.2561857 C90.3583217,22.1226118 91.2777835,20.8750136 92.9153013,20.8750136 C94.5440623,20.8750136 95.4722809,22.1226118 95.4722809,24.2561857 C95.4722809,26.3988 94.5440623,27.6463983 92.9153013,27.6463983 L92.9153013,27.6463983 Z M92.9153013,29.3731466 C95.6999572,29.3731466 97.4075291,27.4475058 97.4075291,24.2561857 C97.4075291,21.0829466 95.6912004,19.1482653 92.9153013,19.1482653 C90.1306454,19.1482653 88.4143167,21.0829466 88.4143167,24.2561857 C88.4143167,27.4475058 90.1218886,29.3731466 92.9153013,29.3731466 L92.9153013,29.3731466 Z M98.2662273,29.1832947 L100.148935,29.1832947 L100.148935,23.3702101 C100.148935,21.9870033 101.155965,21.0558249 102.574563,21.0558249 C102.889807,21.0558249 103.467754,21.1191089 103.61662,21.1733523 L103.61662,19.2567521 C103.415214,19.2025087 103.056186,19.175387 102.784725,19.175387 C101.541263,19.175387 100.490449,19.8805512 100.218989,20.8478919 L100.078881,20.8478919 L100.078881,19.3381172 L98.2662273,19.3381172 L98.2662273,29.1832947 Z M107.855435,20.8026891 C109.247763,20.8026891 110.158468,21.806192 110.202251,23.352129 L105.386023,23.352129 C105.491104,21.8152326 106.463107,20.8026891 107.855435,20.8026891 L107.855435,20.8026891 Z M110.193495,26.525368 C109.843224,27.2938162 109.06387,27.7187228 107.925489,27.7187228 C106.419323,27.7187228 105.44732,26.6248142 105.386023,24.8980659 L105.386023,24.7895791 L112.119986,24.7895791 L112.119986,24.1115366 C112.119986,21.0196627 110.517496,19.1482653 107.864191,19.1482653 C105.17586,19.1482653 103.468288,21.1462306 103.468288,24.2923479 C103.468288,27.4384652 105.140833,29.3731466 107.872948,29.3731466 C110.053386,29.3731466 111.577066,28.2882785 112.006148,26.525368 L110.193495,26.525368 Z" id="App-Store" fill="#FFFFFF"></path>
            <path d="M40.2092964,5.95489233 L40.2092964,12.1670534 L42.3818117,12.1670534 C44.1748666,12.1670534 45.2131704,11.0262199 45.2131704,9.0416002 C45.2131704,7.08711572 44.1665268,5.95489233 42.3818117,5.95489233 L40.2092964,5.95489233 Z M41.1433529,6.83311884 L42.2775644,6.83311884 C43.5243629,6.83311884 44.2624344,7.6510749 44.2624344,9.0545153 C44.2624344,10.4794809 43.5368726,11.2888269 42.2775644,11.2888269 L41.1433529,11.2888269 L41.1433529,6.83311884 Z M48.4998816,11.4351979 C47.7201113,11.4351979 47.2822723,10.8454086 47.2822723,9.82081098 C47.2822723,8.80482345 47.7201113,8.21072905 48.4998816,8.21072905 C49.2754821,8.21072905 49.717491,8.80482345 49.717491,9.82081098 C49.717491,10.8411035 49.2754821,11.4351979 48.4998816,11.4351979 L48.4998816,11.4351979 Z M48.4998816,12.257459 C49.8259082,12.257459 50.6390377,11.3404872 50.6390377,9.82081098 C50.6390377,8.30974478 49.8217383,7.38846795 48.4998816,7.38846795 C47.173855,7.38846795 46.3565556,8.30974478 46.3565556,9.82081098 C46.3565556,11.3404872 47.1696851,12.257459 48.4998816,12.257459 L48.4998816,12.257459 Z M57.6661448,7.47887362 L56.7696173,7.47887362 L55.9606577,11.0563551 L55.8897695,11.0563551 L54.955713,7.47887362 L54.0967147,7.47887362 L53.1626582,11.0563551 L53.0959399,11.0563551 L52.2828103,7.47887362 L51.3737732,7.47887362 L52.6247417,12.1670534 L53.5462885,12.1670534 L54.480345,8.71441778 L54.5512332,8.71441778 L55.4894596,12.1670534 L56.4193462,12.1670534 L57.6661448,7.47887362 Z M58.8053601,12.1670534 L59.7018875,12.1670534 L59.7018875,9.42474804 C59.7018875,8.69289262 60.1438963,8.23655924 60.8652882,8.23655924 C61.5324714,8.23655924 61.8577232,8.61109701 61.8577232,9.3644776 L61.8577232,12.1670534 L62.7542506,12.1670534 L62.7542506,9.13200587 C62.7542506,8.01700261 62.182975,7.38846795 61.1696905,7.38846795 C60.4858277,7.38846795 59.9562511,7.70273528 59.7352466,8.22364414 L59.6685283,8.22364414 L59.6685283,7.47887362 L58.8053601,7.47887362 L58.8053601,12.1670534 Z M64.2687565,12.1670534 L65.1652839,12.1670534 L65.1652839,5.64923506 L64.2687565,5.64923506 L64.2687565,12.1670534 Z M68.6396404,11.4351979 C67.85987,11.4351979 67.422031,10.8454086 67.422031,9.82081098 C67.422031,8.80482345 67.85987,8.21072905 68.6396404,8.21072905 C69.4152408,8.21072905 69.8572497,8.80482345 69.8572497,9.82081098 C69.8572497,10.8411035 69.4152408,11.4351979 68.6396404,11.4351979 L68.6396404,11.4351979 Z M68.6396404,12.257459 C69.965667,12.257459 70.7787965,11.3404872 70.7787965,9.82081098 C70.7787965,8.30974478 69.9614971,7.38846795 68.6396404,7.38846795 C67.3136138,7.38846795 66.4963144,8.30974478 66.4963144,9.82081098 C66.4963144,11.3404872 67.3094439,12.257459 68.6396404,12.257459 L68.6396404,12.257459 Z M73.5526106,11.4653332 C73.0647329,11.4653332 72.7102918,11.2199463 72.7102918,10.7980532 C72.7102918,10.3847702 72.9938447,10.1652135 73.6193289,10.1221632 L74.728521,10.0489777 L74.728521,10.4407356 C74.728521,11.0219149 74.2281336,11.4653332 73.5526106,11.4653332 L73.5526106,11.4653332 Z M73.3232664,12.2445439 C73.9195614,12.2445439 74.4157789,11.977632 74.6868221,11.5083835 L74.7577103,11.5083835 L74.7577103,12.1670534 L75.6208785,12.1670534 L75.6208785,8.96410963 C75.6208785,7.97395229 74.9787147,7.38846795 73.8403334,7.38846795 C72.8103693,7.38846795 72.0764678,7.90507178 71.9847301,8.71011275 L72.8520683,8.71011275 C72.9521457,8.37862529 73.298247,8.18920389 73.7986344,8.18920389 C74.411609,8.18920389 74.728521,8.46903096 74.728521,8.96410963 L74.728521,9.36878263 L73.498402,9.44196817 C72.4183992,9.51084868 71.8095945,9.99731729 71.8095945,10.8411035 C71.8095945,11.6978049 72.4475885,12.2445439 73.3232664,12.2445439 L73.3232664,12.2445439 Z M78.7699832,12.2445439 C79.3954675,12.2445439 79.9250441,11.9388867 80.1960873,11.4265879 L80.2669755,11.4265879 L80.2669755,12.1670534 L81.1259739,12.1670534 L81.1259739,5.64923506 L80.2294465,5.64923506 L80.2294465,8.22364414 L80.1627281,8.22364414 C79.9167043,7.70704031 79.3912976,7.40138305 78.7699832,7.40138305 C77.6232621,7.40138305 76.8851907,8.33988 76.8851907,9.82081098 C76.8851907,11.306047 77.6149223,12.2445439 78.7699832,12.2445439 L78.7699832,12.2445439 Z M79.0243468,8.23225421 C79.7749279,8.23225421 80.246126,8.84787377 80.246126,9.82511601 C80.246126,10.8066633 79.7790978,11.4136728 79.0243468,11.4136728 C78.2654259,11.4136728 77.8109074,10.8152733 77.8109074,9.82081098 C77.8109074,8.83495867 78.2695958,8.23225421 79.0243468,8.23225421 L79.0243468,8.23225421 Z M87.1489702,11.4351979 C86.3691998,11.4351979 85.9313608,10.8454086 85.9313608,9.82081098 C85.9313608,8.80482345 86.3691998,8.21072905 87.1489702,8.21072905 C87.9245706,8.21072905 88.3665795,8.80482345 88.3665795,9.82081098 C88.3665795,10.8411035 87.9245706,11.4351979 87.1489702,11.4351979 L87.1489702,11.4351979 Z M87.1489702,12.257459 C88.4749968,12.257459 89.2881263,11.3404872 89.2881263,9.82081098 C89.2881263,8.30974478 88.4708269,7.38846795 87.1489702,7.38846795 C85.8229436,7.38846795 85.0056442,8.30974478 85.0056442,9.82081098 C85.0056442,11.3404872 85.8187737,12.257459 87.1489702,12.257459 L87.1489702,12.257459 Z M90.5774578,12.1670534 L91.4739852,12.1670534 L91.4739852,9.42474804 C91.4739852,8.69289262 91.9159941,8.23655924 92.6373859,8.23655924 C93.3045691,8.23655924 93.6298209,8.61109701 93.6298209,9.3644776 L93.6298209,12.1670534 L94.5263484,12.1670534 L94.5263484,9.13200587 C94.5263484,8.01700261 93.9550727,7.38846795 92.9417883,7.38846795 C92.2579255,7.38846795 91.7283488,7.70273528 91.5073444,8.22364414 L91.4406261,8.22364414 L91.4406261,7.47887362 L90.5774578,7.47887362 L90.5774578,12.1670534 Z M98.8647071,6.3423452 L98.8647071,7.50039878 L98.1182959,7.50039878 L98.1182959,8.27960956 L98.8647071,8.27960956 L98.8647071,10.9272042 C98.8647071,11.8312609 99.2608471,12.1928836 100.257452,12.1928836 C100.432588,12.1928836 100.595213,12.1713584 100.73699,12.1455282 L100.73699,11.3749275 C100.611893,11.3878426 100.541005,11.3964527 100.403398,11.3964527 C99.9572196,11.3964527 99.7612345,11.1812011 99.7612345,10.6904274 L99.7612345,8.27960956 L100.778689,8.27960956 L100.778689,7.50039878 L99.7612345,7.50039878 L99.7612345,6.3423452 L98.8647071,6.3423452 Z M102.055511,12.1670534 L102.952038,12.1670534 L102.952038,9.42905307 C102.952038,8.71872281 103.406557,8.24086427 104.140458,8.24086427 C104.815981,8.24086427 105.153743,8.61970708 105.153743,9.36878263 L105.153743,12.1670534 L106.05027,12.1670534 L106.05027,9.14061594 C106.05027,8.02561267 105.466485,7.39277298 104.444861,7.39277298 C103.760998,7.39277298 103.235591,7.70704031 103.014587,8.23225421 L102.943698,8.23225421 L102.943698,5.64923506 L102.055511,5.64923506 L102.055511,12.1670534 Z M109.39119,8.17628879 C110.054203,8.17628879 110.487872,8.65414733 110.508722,9.39030779 L108.21528,9.39030779 C108.265318,8.65845236 108.728177,8.17628879 109.39119,8.17628879 L109.39119,8.17628879 Z M110.504552,10.901374 C110.337756,11.2673017 109.966635,11.4696382 109.424549,11.4696382 C108.707327,11.4696382 108.244469,10.9487293 108.21528,10.1264682 L108.21528,10.0748079 L111.421929,10.0748079 L111.421929,9.75193047 C111.421929,8.27960956 110.658838,7.38846795 109.39536,7.38846795 C108.115202,7.38846795 107.302073,8.33988 107.302073,9.8380311 C107.302073,11.3361822 108.098523,12.257459 109.39953,12.257459 C110.437834,12.257459 111.163395,11.7408552 111.36772,10.901374 L110.504552,10.901374 Z" id="Download-on-the" fill="#FFFFFF"></path>
            <g id="logo_apple" transform="translate(11.101928, 5.907193)" fill="#FFFFFF">
                <path d="M16.5111949,13.2739228 C16.4837125,10.1205954 19.0120982,8.58649129 19.1277141,8.51506935 C17.6957834,6.35969226 15.4763384,6.06519906 14.6964053,6.04171788 C12.8323368,5.83919266 11.0241809,7.19327432 10.0746147,7.19327432 C9.10609513,7.19327432 7.64383905,6.06128553 6.06786248,6.09455054 C4.03984692,6.12683717 2.14260994,7.33905334 1.10206738,9.22146166 C-1.0453547,13.059657 0.556208986,18.7000333 2.61360234,21.8024848 C3.64277285,23.3228916 4.84536712,25.0184288 6.41944835,24.9587474 C7.95941344,24.8941742 8.53464962,23.945143 10.3930321,23.945143 C12.2343565,23.945143 12.7745289,24.9587474 14.3798832,24.9196121 C16.0326212,24.8941742 17.0731637,23.3943135 18.0663227,21.8602094 C19.2556496,20.120645 19.7332757,18.4035833 19.7522291,18.3155289 C19.7143223,18.3028099 16.5434157,17.0534152 16.5111949,13.2739228" id="Fill-2"></path>
                <path d="M13.4786483,4.00081156 C14.3069126,2.93143926 14.8736197,1.47658418 14.7163064,0.000204685365 C13.5175028,0.0549941168 12.0182876,0.856289551 11.1549594,1.90218066 C10.3911368,2.82381717 9.70881377,4.33444006 9.88508054,5.75505175 C11.2317208,5.85876031 12.6143725,5.05355135 13.4786483,4.00081156" id="Fill-3"></path>
            </g>
        </g>
    </g>
</svg>