<?xml version="1.0" encoding="UTF-8"?>
<svg width="860px" height="719px" viewBox="0 0 860 719" version="1.1" xmlns="http://www.w3.org/2000/svg" xmlns:xlink="http://www.w3.org/1999/xlink">
    <!-- Generator: Sketch 53.1 (72631) - https://sketchapp.com -->
    <title>Безопасные поездки Copy</title>
    <desc>Created with Sketch.</desc>
    <g id="Page-1" stroke="none" stroke-width="1" fill="none" fill-rule="evenodd">
        <g id="Artboard" transform="translate(-1062.000000, -713.000000)" fill-rule="nonzero">
            <g id="Безопасные-поездки-Copy" transform="translate(1062.000000, 713.000000)">
                <rect id="Rectangle" fill="#B0BEC5" x="145.52" y="524.87" width="71.6" height="7.16"></rect>
                <rect id="Rectangle" fill="#B0BEC5" x="171.52" y="611.87" width="71.6" height="7.16"></rect>
                <rect id="Rectangle" fill="#B0BEC5" x="228.8" y="653.93" width="36.69" height="8.05"></rect>
                <rect id="Rectangle" fill="#B0BEC5" x="247.6" y="697.78" width="36.69" height="5.37"></rect>
                <g id="Group" opacity="0.5" transform="translate(153.000000, 0.000000)" fill="#FDE61D">
                    <path d="M278.4,0.05 L0.4,171.13 C0.4,171.13 0.4,523.98 278.4,716.44 C556.4,523.98 556.4,171.13 556.4,171.13 L278.4,0.05 Z" id="Path"></path>
                </g>
                <path d="M431.4,10.75 L161.7,176.72 C161.7,176.72 161.7,519.03 431.4,705.72 C701.1,519 701.1,176.72 701.1,176.72 L431.4,10.75 Z" id="Path" fill="#FFFFFF"></path>
                <path d="M433.01,10.75 L428.4,13.58 L428.4,702.5 C429.93,703.58 431.46,704.67 433.01,705.74 C702.7,519.03 702.7,176.72 702.7,176.72 L433.01,10.75 Z" id="Path" fill="#1C1B19" opacity="0.03"></path>
                <g id="Group" opacity="0.7" transform="translate(344.000000, 302.000000)" fill="#FDE61D">
                    <polygon id="Path" opacity="0.24" points="22.11 45.07 72.95 91.67 135.98 0.75 161.4 21.94 72.95 134.04 0.92 53.54"></polygon>
                </g>
                <polygon id="Path" fill="#1C1B19" points="378.11 349.87 419.35 387.67 477.78 301.75 498.4 318.94 419.35 422.04 360.92 356.74"></polygon>
                <path d="M228,511.94 C228,511.94 181.7,517.32 195.7,545.32 C204.584343,563.532048 211.706761,582.551951 216.97,602.12 L241.46,597 C241.46,597 231.77,551.24 223.16,545.86 L246.31,541.55 L228,511.94 Z" id="Path" fill="#FDA57D"></path>
                <path d="M223.16,545.86 L246.31,541.55 L228,511.94 C228,511.94 227.46,512 226.52,512.15 L244.7,541.55 L221.55,545.86 C230.17,551.24 239.86,597 239.86,597 L216.86,601.8 L216.95,602.12 L241.44,597 C241.44,597 231.77,551.24 223.16,545.86 Z" id="Path" fill="#000000" opacity="0.05"></path>
                <path d="M231.7,591.82 C231.7,591.82 217.4,602.08 195.7,601.26 C195.7,601.26 184.16,606.51 200.49,610.69 C216.82,614.87 243.17,611.92 245.24,608.69 C247.31,605.46 244.38,594.55 239.56,590.08 C234.74,585.61 231.7,591.82 231.7,591.82 Z" id="Path" fill="#1C1B19"></path>
                <path d="M269.46,577.62 C269.46,577.62 268.38,598.62 275.92,613.69 L281.3,686.38 L298.53,686.38 C298.53,686.38 298.53,650.84 306.61,632 C314.69,613.16 302.3,592.16 302.3,592.16 L301.22,570.62 L269.46,577.62 Z" id="Path" fill="#FDA57D"></path>
                <circle id="Oval" fill="#FDA57D" cx="280.23" cy="352.57" r="22.07"></circle>
                <rect id="Rectangle" fill="#FDA57D" x="265.15" y="363.88" width="26.92" height="24.23"></rect>
                <path d="M292.07,680.99 C292.07,680.99 275.92,687.99 254.92,682.61 C254.92,682.61 242.54,685.3 257.61,692.84 C272.68,700.38 299.07,703.07 301.76,700.37 C304.45,697.67 303.92,686.37 300.15,680.99 C296.38,675.61 292.07,680.99 292.07,680.99 Z" id="Path" fill="#1C1B19"></path>
                <path d="M223.43,431.99 L191.7,513.82 C191.7,513.82 167.47,520.28 179.86,532.13 C179.86,532.13 177.7,520.82 194.93,524.05 C194.93,524.05 199.78,532.13 199.78,534.82 C199.78,537.51 205.31,525.82 203.08,520.1 C208.8321,503.239285 217.95368,487.724774 229.89,474.5 C229.89,474.5 243.35,450.81 242.81,434.66 L223.43,431.99 Z" id="Path" fill="#FDA57D"></path>
                <path d="M330.03,402.91 C330.03,402.91 347.26,410.99 355.87,408.3 C361.97,406.39 368.61,394.22 371.97,387.3 C373.516647,384.08793 376.591425,381.883586 380.13,381.45 C386.53,380.68 395.5,380.76 393.02,387.86 C389.25,398.63 376.87,401.86 376.87,401.86 L359.1,426.6 L327.87,426.6 L330.03,402.91 Z" id="Path" fill="#FDA57D"></path>
                <circle id="Oval" fill="#3D213C" cx="276.19" cy="350.69" r="22.61"></circle>
                <ellipse id="Oval" fill="#3D213C" cx="288.03" cy="330.5" rx="16.69" ry="9.42"></ellipse>
                <polygon id="Path" fill="#000000" opacity="0.05" points="269.55 585.78 269.55 588.49 301.91 584.35 301.91 581.26"></polygon>
                <polygon id="Path" fill="#000000" opacity="0.05" points="224.32 512.52 222.15 512.96 232.6 544.1 233.91 543.86"></polygon>
                <polygon id="Path" fill="#000000" opacity="0.05" points="338.91 406.36 341.05 407.01 341.74 426.6 338.91 426.6"></polygon>
                <polygon id="Path" fill="#000000" opacity="0.05" points="222.44 434.52 221.73 436.37 240.85 448.33 241.39 446.24"></polygon>
                <path d="M244.56,500.15 L241.39,501.41 C241.39,501.41 294.48,527.14 311.98,504.6 L311.4,502.6 C311.4,502.6 295.31,524.16 244.56,500.15 Z" id="Path" fill="#000000" opacity="0.05"></path>
                <path d="M165.29,47.96 C163.602773,47.1924128 162.746849,45.292262 163.29,43.52 C163.330905,43.3865005 163.357718,43.2490845 163.37,43.11 L163.37,43.11 C163.422417,42.2972697 162.934319,41.5467697 162.170154,41.2651137 C161.40599,40.9834578 160.547578,41.2376616 160.06,41.89 L160.06,41.89 C159.977913,42.0007606 159.910675,42.1217884 159.86,42.25 C159.113721,43.9601219 157.205687,44.8410837 155.42,44.3 C155.287768,44.2542129 155.149745,44.2272816 155.01,44.22 L155.01,44.22 C154.196511,44.1422066 153.429187,44.6102723 153.126085,45.3691834 C152.822983,46.1280944 153.056741,46.9959822 153.7,47.5 L153.7,47.5 C153.810761,47.5820871 153.931788,47.6493247 154.06,47.7 C155.770122,48.4462788 156.651084,50.3543132 156.11,52.14 C156.068022,52.2732291 156.041187,52.4107629 156.03,52.55 L156.03,52.55 C155.977583,53.3627303 156.465681,54.1132303 157.229846,54.3948863 C157.99401,54.6765422 158.852422,54.4223384 159.34,53.77 L159.34,53.77 C159.422087,53.6592394 159.489325,53.5382116 159.54,53.41 C160.286279,51.6998781 162.194313,50.8189163 163.98,51.36 C164.113499,51.4009052 164.250915,51.4277181 164.39,51.44 L164.39,51.44 C165.20273,51.4924167 165.95323,51.0043194 166.234886,50.2401545 C166.516542,49.4759896 166.262338,48.6175784 165.61,48.13 L165.61,48.13 C165.510206,48.061249 165.402833,48.0042073 165.29,47.96 Z" id="Path" fill="#4D8AF0" opacity="0.5"></path>
                <path d="M19.29,372.96 C17.5832394,372.210292 16.7037061,370.305352 17.24,368.52 C17.2809052,368.386501 17.3077181,368.249085 17.32,368.11 L17.32,368.11 C17.3724167,367.29727 16.8843194,366.54677 16.1201545,366.265114 C15.3559896,365.983458 14.4975784,366.237662 14.01,366.89 L14.01,366.89 C13.9279129,367.000761 13.8606753,367.121788 13.81,367.25 C13.0637212,368.960122 11.1556868,369.841084 9.37,369.3 C9.23776803,369.254213 9.09974525,369.227282 8.96,369.22 L8.96,369.22 C8.15616672,369.167696 7.4117638,369.644339 7.12290153,370.396298 C6.83403926,371.148256 7.0678829,372.000689 7.7,372.5 L7.7,372.5 C7.81076059,372.582087 7.9317884,372.649325 8.06,372.7 C9.75057943,373.464243 10.6078766,375.367443 10.06,377.14 C10.0180225,377.273229 9.9911866,377.410763 9.98,377.55 L9.98,377.55 C9.92758329,378.36273 10.4156806,379.11323 11.1798455,379.394886 C11.9440104,379.676542 12.8024216,379.422338 13.29,378.77 L13.29,378.77 C13.3720871,378.659239 13.4393247,378.538212 13.49,378.41 C14.2362788,376.699878 16.1443132,375.818916 17.93,376.36 C18.0634995,376.400905 18.2009155,376.427718 18.34,376.44 L18.34,376.44 C19.1527303,376.492417 19.9032303,376.004319 20.1848863,375.240154 C20.4665422,374.47599 20.2123384,373.617578 19.56,373.13 L19.56,373.13 C19.4759668,373.064368 19.3855057,373.007411 19.29,372.96 L19.29,372.96 Z" id="Path" fill="#4D8AF0" opacity="0.5"></path>
                <circle id="Oval" fill="#F55F44" opacity="0.5" cx="748.4" cy="254" r="6"></circle>
                <circle id="Oval" fill="#F55F44" opacity="0.5" cx="121.4" cy="683" r="6"></circle>
                <circle id="Oval" fill="#F55F44" opacity="0.5" cx="850.4" cy="485" r="6"></circle>
                <path d="M704.29,76.96 C702.583239,76.2102925 701.703706,74.3053521 702.24,72.52 C702.280905,72.3865005 702.307718,72.2490845 702.32,72.11 L702.32,72.11 C702.372417,71.2972697 701.884319,70.5467697 701.120154,70.2651137 C700.35599,69.9834578 699.497578,70.2376616 699.01,70.89 L699.01,70.89 C698.927913,71.0007606 698.860675,71.1217884 698.81,71.25 C698.063721,72.9601219 696.155687,73.8410837 694.37,73.3 C694.237768,73.2542129 694.099745,73.2272816 693.96,73.22 L693.96,73.22 C693.156167,73.167696 692.411764,73.6443386 692.122902,74.3962975 C691.834039,75.1482565 692.067883,76.0006889 692.7,76.5 L692.7,76.5 C692.810761,76.5820871 692.931788,76.6493247 693.06,76.7 C694.770122,77.4462788 695.651084,79.3543132 695.11,81.14 C695.068022,81.2732291 695.041187,81.4107629 695.03,81.55 L695.03,81.55 C694.977583,82.3627303 695.465681,83.1132303 696.229846,83.3948863 C696.99401,83.6765422 697.852422,83.4223384 698.34,82.77 L698.34,82.77 C698.422087,82.6592394 698.489325,82.5382116 698.54,82.41 C699.286279,80.6998781 701.194313,79.8189163 702.98,80.36 C703.113499,80.4009052 703.250915,80.4277181 703.39,80.44 L703.39,80.44 C704.20273,80.4924167 704.95323,80.0043194 705.234886,79.2401545 C705.516542,78.4759896 705.262338,77.6175784 704.61,77.13 L704.61,77.13 C704.510206,77.061249 704.402833,77.0042073 704.29,76.96 L704.29,76.96 Z" id="Path" fill="#4D8AF0" opacity="0.5"></path>
                <path d="M804.29,704.96 C802.583239,704.210292 801.703706,702.305352 802.24,700.52 C802.280905,700.386501 802.307718,700.249085 802.32,700.11 L802.32,700.11 C802.372417,699.29727 801.884319,698.54677 801.120154,698.265114 C800.35599,697.983458 799.497578,698.237662 799.01,698.89 L799.01,698.89 C798.927913,699.000761 798.860675,699.121788 798.81,699.25 C798.045757,700.940579 796.142557,701.797877 794.37,701.25 C794.237768,701.204213 794.099745,701.177282 793.96,701.17 L793.96,701.17 C793.127695,701.081368 792.340444,701.565649 792.044233,702.348493 C791.748021,703.131338 792.017497,704.015462 792.7,704.5 L792.7,704.5 C792.810761,704.582087 792.931788,704.649325 793.06,704.7 C794.770122,705.446279 795.651084,707.354313 795.11,709.14 C795.068022,709.273229 795.041187,709.410763 795.03,709.55 L795.03,709.55 C794.977583,710.36273 795.465681,711.11323 796.229846,711.394886 C796.99401,711.676542 797.852422,711.422338 798.34,710.77 L798.34,710.77 C798.422087,710.659239 798.489325,710.538212 798.54,710.41 C799.286279,708.699878 801.194313,707.818916 802.98,708.36 C803.113499,708.400905 803.250915,708.427718 803.39,708.44 L803.39,708.44 C804.20273,708.492417 804.95323,708.004319 805.234886,707.240154 C805.516542,706.47599 805.262338,705.617578 804.61,705.13 L804.61,705.13 C804.510206,705.061249 804.402833,705.004207 804.29,704.96 Z" id="Path" fill="#4D8AF0" opacity="0.5"></path>
                <path d="M12.29,182.96 C10.5832394,182.210292 9.70370608,180.305352 10.24,178.52 C10.2809052,178.386501 10.3077181,178.249085 10.32,178.11 L10.32,178.11 C10.3724167,177.29727 9.88431936,176.54677 9.12015446,176.265114 C8.35598956,175.983458 7.4975784,176.237662 7.01,176.89 L7.01,176.89 C6.92791293,177.000761 6.86067526,177.121788 6.81,177.25 C6.0637212,178.960122 4.15568683,179.841084 2.37,179.3 C2.23776803,179.254213 2.09974525,179.227282 1.96,179.22 L1.96,179.22 C1.15616672,179.167696 0.411763801,179.644339 0.12290153,180.396298 C-0.16596074,181.148256 0.0678828968,182.000689 0.7,182.5 L0.7,182.5 C0.810760589,182.582087 0.931788404,182.649325 1.06,182.7 C2.75057943,183.464243 3.60787664,185.367443 3.06,187.14 C3.01802246,187.273229 2.9911866,187.410763 2.98,187.55 L2.98,187.55 C2.92758329,188.36273 3.41568064,189.11323 4.17984554,189.394886 C4.94401044,189.676542 5.8024216,189.422338 6.29,188.77 L6.29,188.77 C6.37208707,188.659239 6.43932474,188.538212 6.49,188.41 C7.2362788,186.699878 9.14431317,185.818916 10.93,186.36 C11.0634995,186.400905 11.2009155,186.427718 11.34,186.44 L11.34,186.44 C12.1527303,186.492417 12.9032303,186.004319 13.1848863,185.240154 C13.4665422,184.47599 13.2123384,183.617578 12.56,183.13 L12.56,183.13 C12.4759668,183.064368 12.3855057,183.007411 12.29,182.96 L12.29,182.96 Z" id="Path" fill="#4D8AF0" opacity="0.5"></path>
                <circle id="Oval" fill="#47E6B1" opacity="0.5" cx="79.4" cy="284" r="6"></circle>
                <circle id="Oval" fill="#47E6B1" opacity="0.5" cx="853.4" cy="332" r="6"></circle>
                <g id="Group" opacity="0.5" transform="translate(576.000000, 0.000000)" fill="#47E6B1">
                    <rect id="Rectangle" x="7.4" y="0" width="3" height="17"></rect>
                    <rect id="Rectangle" transform="translate(8.900000, 8.500000) rotate(90.000000) translate(-8.900000, -8.500000) " x="7.4" y="0" width="3" height="17"></rect>
                </g>
                <g id="Group" opacity="0.5" transform="translate(587.000000, 666.000000)" fill="#47E6B1">
                    <rect id="Rectangle" x="7.4" y="0" width="3" height="17"></rect>
                    <rect id="Rectangle" transform="translate(8.900000, 8.500000) rotate(90.000000) translate(-8.900000, -8.500000) " x="7.4" y="0" width="3" height="17"></rect>
                </g>
                <g id="Group" opacity="0.5" transform="translate(19.000000, 702.000000)" fill="#47E6B1">
                    <rect id="Rectangle" x="7.4" y="0" width="3" height="17"></rect>
                    <rect id="Rectangle" transform="translate(8.900000, 8.500000) rotate(90.000000) translate(-8.900000, -8.500000) " x="7.4" y="0" width="3" height="17"></rect>
                </g>
                <g id="Group" opacity="0.5" transform="translate(702.000000, 396.000000)" fill="#47E6B1">
                    <rect id="Rectangle" x="7.4" y="0" width="3" height="17"></rect>
                    <rect id="Rectangle" transform="translate(8.900000, 8.500000) rotate(90.000000) translate(-8.900000, -8.500000) " x="7.4" y="5.68434189e-14" width="3" height="17"></rect>
                </g>
                <polygon id="Path" fill="#47E6B1" opacity="0.5" points="795.61 123.02 802.05 128.92 811.18 115.5 814.4 118.19 802.05 134.29 792.92 124.09"></polygon>
                <path d="M218.57,504.65 L233.57,547.41 C240.756667,545.07 248.03,542.996667 255.39,541.19 C259.070656,540.179796 262.887262,539.754604 266.7,539.93 C263.7,540.48 264.17,542.45 263.34,545.43 C262.51,548.41 262.76,551.56 262.94,554.65 C263.562714,565.035428 263.147322,575.45708 261.7,585.76 C277.576411,582.336529 293.759406,580.533951 310,580.38 C307.730582,571.651468 306.231499,562.740623 305.52,553.75 C305.249992,551.394379 305.249992,549.015621 305.52,546.66 C306,543.48 307.36,540.5 308.52,537.49 C311.146282,530.558969 312.704064,523.269088 313.14,515.87 C313.458997,513.020679 313.148346,510.136068 312.23,507.42 C310.81,503.87 307.64,501.25 304.14,499.71 C300.583414,498.309224 296.839914,497.439896 293.03,497.13 C278.64,495.35 264.54,495.7 250.1,495.84 C244.56,495.84 241.85,497.61 236.86,500.01 C235.23,500.78 219.29,506.72 218.57,504.65 Z" id="Path" fill="#1C1B19"></path>
                <path d="M246.48,390.02 C237.75,394.75 230.82,402.14 224.05,409.41 L207.18,427.5 C215.406786,431.349273 223.418571,435.642254 231.18,440.36 C234.04,442.1 237.02,444.07 238.39,447.13 C239.76,450.19 239.26,453.66 238.64,456.91 C236.18946,469.803504 232.12061,482.335966 226.53,494.21 C240.11,497.21 253.92,500.21 266.03,507.01 C269.09,508.73 272.17,510.73 275.67,511.01 C277.77255,511.074337 279.872792,510.821499 281.9,510.26 L312.62,503.36 C313.594109,503.227307 314.517338,502.844925 315.3,502.25 C315.84902,501.675804 316.274451,500.995115 316.55,500.25 C321.96,488.41 327.5,476 326.92,462.99 C326.64,456.86 325.01,450.64 326.41,444.67 C327.81,438.7 333.98,433.13 339.7,435.37 L342.22,406.6 C342.51,403.36 342.57,399.6 340.04,397.52 C338.28,396.1 335.83,396.03 333.68,395.32 C330.28,394.2 327.68,391.48 324.68,389.52 C316.49,384.15 305.91,384.79 296.15,385.63 C287.85,386.34 279.62,387.63 271.37,386.43 C262.44,385.19 254.63,385.61 246.48,390.02 Z" id="Path" fill="#FDE61D"></path>
            </g>
        </g>
    </g>
</svg>